M48
; DRILL file {KiCad 7.0.11} date Mon May 13 15:30:08 2024
; FORMAT={-:-/ absolute / inch / decimal}
; #@! TF.CreationDate,2024-05-13T15:30:08+03:00
; #@! TF.GenerationSoftware,Kicad,Pcbnew,7.0.11
; #@! TF.FileFunction,Plated,1,2,PTH
FMAT,2
INCH
; #@! TA.AperFunction,Plated,PTH,ComponentDrill
T1C0.0315
%
G90
G05
T1
X2.187Y-1.872
X2.187Y-1.972
X2.187Y-2.072
X2.187Y-2.172
X2.187Y-2.272
X2.187Y-2.372
X2.187Y-2.472
X2.187Y-2.572
X2.487Y-1.872
X2.487Y-1.972
X2.487Y-2.072
X2.487Y-2.172
X2.487Y-2.272
X2.487Y-2.372
X2.487Y-2.472
X2.487Y-2.572
X2.7236Y-1.8711
X2.7236Y-1.9711
X2.7236Y-2.0711
X2.7236Y-2.1711
X2.7236Y-2.2711
X2.7236Y-2.3711
X2.7236Y-2.4711
X2.7236Y-2.5711
X3.0236Y-1.8711
X3.0236Y-1.9711
X3.0236Y-2.0711
X3.0236Y-2.1711
X3.0236Y-2.2711
X3.0236Y-2.3711
X3.0236Y-2.4711
X3.0236Y-2.5711
M30
