%TF.GenerationSoftware,KiCad,Pcbnew,7.0.11*%
%TF.CreationDate,2024-10-23T23:44:55+03:00*%
%TF.ProjectId,rndip16,726e6469-7031-4362-9e6b-696361645f70,rev?*%
%TF.SameCoordinates,Original*%
%TF.FileFunction,Copper,L1,Top*%
%TF.FilePolarity,Positive*%
%FSLAX46Y46*%
G04 Gerber Fmt 4.6, Leading zero omitted, Abs format (unit mm)*
G04 Created by KiCad (PCBNEW 7.0.11) date 2024-10-23 23:44:55*
%MOMM*%
%LPD*%
G01*
G04 APERTURE LIST*
G04 Aperture macros list*
%AMRoundRect*
0 Rectangle with rounded corners*
0 $1 Rounding radius*
0 $2 $3 $4 $5 $6 $7 $8 $9 X,Y pos of 4 corners*
0 Add a 4 corners polygon primitive as box body*
4,1,4,$2,$3,$4,$5,$6,$7,$8,$9,$2,$3,0*
0 Add four circle primitives for the rounded corners*
1,1,$1+$1,$2,$3*
1,1,$1+$1,$4,$5*
1,1,$1+$1,$6,$7*
1,1,$1+$1,$8,$9*
0 Add four rect primitives between the rounded corners*
20,1,$1+$1,$2,$3,$4,$5,0*
20,1,$1+$1,$4,$5,$6,$7,0*
20,1,$1+$1,$6,$7,$8,$9,0*
20,1,$1+$1,$8,$9,$2,$3,0*%
G04 Aperture macros list end*
%TA.AperFunction,SMDPad,CuDef*%
%ADD10RoundRect,0.250000X-0.350000X-0.450000X0.350000X-0.450000X0.350000X0.450000X-0.350000X0.450000X0*%
%TD*%
%TA.AperFunction,ComponentPad*%
%ADD11R,2.400000X1.600000*%
%TD*%
%TA.AperFunction,ComponentPad*%
%ADD12O,2.400000X1.600000*%
%TD*%
%TA.AperFunction,Conductor*%
%ADD13C,0.250000*%
%TD*%
G04 APERTURE END LIST*
D10*
%TO.P,R45,1*%
%TO.N,Net-(J4-Pin_7)*%
X99438285Y-62771426D03*
%TO.P,R45,2*%
%TO.N,Net-(J4-Pin_10)*%
X101438285Y-62771426D03*
%TD*%
D11*
%TO.P,J5,1,Pin_1*%
%TO.N,Net-(J5-Pin_1)*%
X110338600Y-47523400D03*
D12*
%TO.P,J5,2,Pin_2*%
%TO.N,Net-(J5-Pin_2)*%
X110338600Y-50063400D03*
%TO.P,J5,3,Pin_3*%
%TO.N,Net-(J5-Pin_3)*%
X110338600Y-52603400D03*
%TO.P,J5,4,Pin_4*%
%TO.N,Net-(J5-Pin_4)*%
X110338600Y-55143400D03*
%TO.P,J5,5,Pin_5*%
%TO.N,Net-(J5-Pin_5)*%
X110338600Y-57683400D03*
%TO.P,J5,6,Pin_6*%
%TO.N,Net-(J5-Pin_6)*%
X110338600Y-60223400D03*
%TO.P,J5,7,Pin_7*%
%TO.N,Net-(J5-Pin_7)*%
X110338600Y-62763400D03*
%TO.P,J5,8,Pin_8*%
%TO.N,Net-(J5-Pin_8)*%
X110338600Y-65303400D03*
%TO.P,J5,9,Pin_9*%
%TO.N,Net-(J5-Pin_9)*%
X117958600Y-65303400D03*
%TO.P,J5,10,Pin_10*%
%TO.N,Net-(J5-Pin_10)*%
X117958600Y-62763400D03*
%TO.P,J5,11,Pin_11*%
%TO.N,Net-(J5-Pin_11)*%
X117958600Y-60223400D03*
%TO.P,J5,12,Pin_12*%
%TO.N,Net-(J5-Pin_12)*%
X117958600Y-57683400D03*
%TO.P,J5,13,Pin_13*%
%TO.N,Net-(J5-Pin_13)*%
X117958600Y-55143400D03*
%TO.P,J5,14,Pin_14*%
%TO.N,Net-(J5-Pin_14)*%
X117958600Y-52603400D03*
%TO.P,J5,15,Pin_15*%
%TO.N,Net-(J5-Pin_15)*%
X117958600Y-50063400D03*
%TO.P,J5,16,Pin_16*%
%TO.N,Net-(J5-Pin_16)*%
X117958600Y-47523400D03*
%TD*%
D10*
%TO.P,R53,1*%
%TO.N,Net-(J5-Pin_7)*%
X113163600Y-62769826D03*
%TO.P,R53,2*%
%TO.N,Net-(J5-Pin_16)*%
X115163600Y-62769826D03*
%TD*%
%TO.P,R29,2*%
%TO.N,Net-(J3-Pin_16)*%
X87756000Y-60241255D03*
%TO.P,R29,1*%
%TO.N,Net-(J3-Pin_6)*%
X85756000Y-60241255D03*
%TD*%
%TO.P,R8,1*%
%TO.N,Net-(J1-Pin_8)*%
X58300000Y-65300000D03*
%TO.P,R8,2*%
%TO.N,Net-(J1-Pin_16)*%
X60300000Y-65300000D03*
%TD*%
D11*
%TO.P,J4,1,Pin_1*%
%TO.N,Net-(J4-Pin_1)*%
X96613285Y-47525000D03*
D12*
%TO.P,J4,2,Pin_2*%
%TO.N,Net-(J4-Pin_2)*%
X96613285Y-50065000D03*
%TO.P,J4,3,Pin_3*%
%TO.N,Net-(J4-Pin_3)*%
X96613285Y-52605000D03*
%TO.P,J4,4,Pin_4*%
%TO.N,Net-(J4-Pin_4)*%
X96613285Y-55145000D03*
%TO.P,J4,5,Pin_5*%
%TO.N,Net-(J4-Pin_5)*%
X96613285Y-57685000D03*
%TO.P,J4,6,Pin_6*%
%TO.N,Net-(J4-Pin_6)*%
X96613285Y-60225000D03*
%TO.P,J4,7,Pin_7*%
%TO.N,Net-(J4-Pin_7)*%
X96613285Y-62765000D03*
%TO.P,J4,8,Pin_8*%
%TO.N,Net-(J4-Pin_8)*%
X96613285Y-65305000D03*
%TO.P,J4,9,Pin_9*%
%TO.N,Net-(J4-Pin_9)*%
X104233285Y-65305000D03*
%TO.P,J4,10,Pin_10*%
%TO.N,Net-(J4-Pin_10)*%
X104233285Y-62765000D03*
%TO.P,J4,11,Pin_11*%
%TO.N,Net-(J4-Pin_11)*%
X104233285Y-60225000D03*
%TO.P,J4,12,Pin_12*%
%TO.N,Net-(J4-Pin_12)*%
X104233285Y-57685000D03*
%TO.P,J4,13,Pin_13*%
%TO.N,Net-(J4-Pin_13)*%
X104233285Y-55145000D03*
%TO.P,J4,14,Pin_14*%
%TO.N,Net-(J4-Pin_14)*%
X104233285Y-52605000D03*
%TO.P,J4,15,Pin_15*%
%TO.N,Net-(J4-Pin_15)*%
X104233285Y-50065000D03*
%TO.P,J4,16,Pin_16*%
%TO.N,Net-(J4-Pin_16)*%
X104233285Y-47525000D03*
%TD*%
D10*
%TO.P,R18,1*%
%TO.N,Net-(J2-Pin_3)*%
X72005000Y-52585714D03*
%TO.P,R18,2*%
%TO.N,Net-(J2-Pin_14)*%
X74005000Y-52585714D03*
%TD*%
%TO.P,R21,1*%
%TO.N,Net-(J2-Pin_6)*%
X72005000Y-60214285D03*
%TO.P,R21,2*%
%TO.N,Net-(J2-Pin_11)*%
X74005000Y-60214285D03*
%TD*%
%TO.P,R54,2*%
%TO.N,Net-(J5-Pin_16)*%
X115163600Y-65298400D03*
%TO.P,R54,1*%
%TO.N,Net-(J5-Pin_8)*%
X113163600Y-65298400D03*
%TD*%
%TO.P,R3,1*%
%TO.N,Net-(J1-Pin_3)*%
X58300000Y-52600000D03*
%TO.P,R3,2*%
%TO.N,Net-(J1-Pin_16)*%
X60300000Y-52600000D03*
%TD*%
%TO.P,R40,1*%
%TO.N,Net-(J4-Pin_2)*%
X99438285Y-50128571D03*
%TO.P,R40,2*%
%TO.N,Net-(J4-Pin_15)*%
X101438285Y-50128571D03*
%TD*%
%TO.P,R43,1*%
%TO.N,Net-(J4-Pin_5)*%
X99438285Y-57714284D03*
%TO.P,R43,2*%
%TO.N,Net-(J4-Pin_12)*%
X101438285Y-57714284D03*
%TD*%
%TO.P,R7,1*%
%TO.N,Net-(J1-Pin_7)*%
X58300000Y-62800000D03*
%TO.P,R7,2*%
%TO.N,Net-(J1-Pin_16)*%
X60300000Y-62800000D03*
%TD*%
%TO.P,R23,1*%
%TO.N,Net-(J2-Pin_8)*%
X72005000Y-65300000D03*
%TO.P,R23,2*%
%TO.N,Net-(J2-Pin_9)*%
X74005000Y-65300000D03*
%TD*%
%TO.P,R30,2*%
%TO.N,Net-(J3-Pin_16)*%
X87756000Y-62769826D03*
%TO.P,R30,1*%
%TO.N,Net-(J3-Pin_7)*%
X85756000Y-62769826D03*
%TD*%
%TO.P,R44,1*%
%TO.N,Net-(J4-Pin_6)*%
X99438285Y-60242855D03*
%TO.P,R44,2*%
%TO.N,Net-(J4-Pin_11)*%
X101438285Y-60242855D03*
%TD*%
%TO.P,R27,2*%
%TO.N,Net-(J3-Pin_16)*%
X87756000Y-55184113D03*
%TO.P,R27,1*%
%TO.N,Net-(J3-Pin_4)*%
X85756000Y-55184113D03*
%TD*%
%TO.P,R28,2*%
%TO.N,Net-(J3-Pin_16)*%
X87756000Y-57712684D03*
%TO.P,R28,1*%
%TO.N,Net-(J3-Pin_5)*%
X85756000Y-57712684D03*
%TD*%
%TO.P,R46,2*%
%TO.N,Net-(J4-Pin_9)*%
X101438285Y-65300000D03*
%TO.P,R46,1*%
%TO.N,Net-(J4-Pin_8)*%
X99438285Y-65300000D03*
%TD*%
%TO.P,R20,1*%
%TO.N,Net-(J2-Pin_5)*%
X72005000Y-57671428D03*
%TO.P,R20,2*%
%TO.N,Net-(J2-Pin_12)*%
X74005000Y-57671428D03*
%TD*%
%TO.P,R25,2*%
%TO.N,Net-(J3-Pin_16)*%
X87756000Y-50126971D03*
%TO.P,R25,1*%
%TO.N,Net-(J3-Pin_2)*%
X85756000Y-50126971D03*
%TD*%
%TO.P,R16,1*%
%TO.N,Net-(J2-Pin_1)*%
X72005000Y-47500000D03*
%TO.P,R16,2*%
%TO.N,Net-(J2-Pin_16)*%
X74005000Y-47500000D03*
%TD*%
%TO.P,R17,1*%
%TO.N,Net-(J2-Pin_2)*%
X72005000Y-50042857D03*
%TO.P,R17,2*%
%TO.N,Net-(J2-Pin_15)*%
X74005000Y-50042857D03*
%TD*%
%TO.P,R4,1*%
%TO.N,Net-(J1-Pin_4)*%
X58300000Y-55200000D03*
%TO.P,R4,2*%
%TO.N,Net-(J1-Pin_16)*%
X60300000Y-55200000D03*
%TD*%
%TO.P,R48,1*%
%TO.N,Net-(J5-Pin_2)*%
X113163600Y-50126971D03*
%TO.P,R48,2*%
%TO.N,Net-(J5-Pin_16)*%
X115163600Y-50126971D03*
%TD*%
%TO.P,R6,1*%
%TO.N,Net-(J1-Pin_6)*%
X58300000Y-60300000D03*
%TO.P,R6,2*%
%TO.N,Net-(J1-Pin_16)*%
X60300000Y-60300000D03*
%TD*%
%TO.P,R1,1*%
%TO.N,Net-(J1-Pin_1)*%
X58300000Y-47600000D03*
%TO.P,R1,2*%
%TO.N,Net-(J1-Pin_16)*%
X60300000Y-47600000D03*
%TD*%
%TO.P,R42,1*%
%TO.N,Net-(J4-Pin_4)*%
X99438285Y-55185713D03*
%TO.P,R42,2*%
%TO.N,Net-(J4-Pin_13)*%
X101438285Y-55185713D03*
%TD*%
%TO.P,R22,1*%
%TO.N,Net-(J2-Pin_7)*%
X72005000Y-62757142D03*
%TO.P,R22,2*%
%TO.N,Net-(J2-Pin_10)*%
X74005000Y-62757142D03*
%TD*%
%TO.P,R51,1*%
%TO.N,Net-(J5-Pin_5)*%
X113163600Y-57712684D03*
%TO.P,R51,2*%
%TO.N,Net-(J5-Pin_16)*%
X115163600Y-57712684D03*
%TD*%
%TO.P,R2,1*%
%TO.N,Net-(J1-Pin_2)*%
X58300000Y-50100000D03*
%TO.P,R2,2*%
%TO.N,Net-(J1-Pin_16)*%
X60300000Y-50100000D03*
%TD*%
D11*
%TO.P,J1,1,Pin_1*%
%TO.N,Net-(J1-Pin_1)*%
X55550000Y-47550000D03*
D12*
%TO.P,J1,2,Pin_2*%
%TO.N,Net-(J1-Pin_2)*%
X55550000Y-50090000D03*
%TO.P,J1,3,Pin_3*%
%TO.N,Net-(J1-Pin_3)*%
X55550000Y-52630000D03*
%TO.P,J1,4,Pin_4*%
%TO.N,Net-(J1-Pin_4)*%
X55550000Y-55170000D03*
%TO.P,J1,5,Pin_5*%
%TO.N,Net-(J1-Pin_5)*%
X55550000Y-57710000D03*
%TO.P,J1,6,Pin_6*%
%TO.N,Net-(J1-Pin_6)*%
X55550000Y-60250000D03*
%TO.P,J1,7,Pin_7*%
%TO.N,Net-(J1-Pin_7)*%
X55550000Y-62790000D03*
%TO.P,J1,8,Pin_8*%
%TO.N,Net-(J1-Pin_8)*%
X55550000Y-65330000D03*
%TO.P,J1,9,Pin_9*%
%TO.N,Net-(J1-Pin_9)*%
X63170000Y-65330000D03*
%TO.P,J1,10,Pin_10*%
%TO.N,Net-(J1-Pin_10)*%
X63170000Y-62790000D03*
%TO.P,J1,11,Pin_11*%
%TO.N,Net-(J1-Pin_11)*%
X63170000Y-60250000D03*
%TO.P,J1,12,Pin_12*%
%TO.N,Net-(J1-Pin_12)*%
X63170000Y-57710000D03*
%TO.P,J1,13,Pin_13*%
%TO.N,Net-(J1-Pin_13)*%
X63170000Y-55170000D03*
%TO.P,J1,14,Pin_14*%
%TO.N,Net-(J1-Pin_14)*%
X63170000Y-52630000D03*
%TO.P,J1,15,Pin_15*%
%TO.N,Net-(J1-Pin_15)*%
X63170000Y-50090000D03*
%TO.P,J1,16,Pin_16*%
%TO.N,Net-(J1-Pin_16)*%
X63170000Y-47550000D03*
%TD*%
D10*
%TO.P,R5,1*%
%TO.N,Net-(J1-Pin_5)*%
X58300000Y-57700000D03*
%TO.P,R5,2*%
%TO.N,Net-(J1-Pin_16)*%
X60300000Y-57700000D03*
%TD*%
%TO.P,R52,1*%
%TO.N,Net-(J5-Pin_6)*%
X113163600Y-60241255D03*
%TO.P,R52,2*%
%TO.N,Net-(J5-Pin_16)*%
X115163600Y-60241255D03*
%TD*%
%TO.P,R19,1*%
%TO.N,Net-(J2-Pin_4)*%
X72005000Y-55128571D03*
%TO.P,R19,2*%
%TO.N,Net-(J2-Pin_13)*%
X74005000Y-55128571D03*
%TD*%
%TO.P,R41,1*%
%TO.N,Net-(J4-Pin_3)*%
X99438285Y-52657142D03*
%TO.P,R41,2*%
%TO.N,Net-(J4-Pin_14)*%
X101438285Y-52657142D03*
%TD*%
%TO.P,R24,2*%
%TO.N,Net-(J3-Pin_16)*%
X87756000Y-47598400D03*
%TO.P,R24,1*%
%TO.N,Net-(J3-Pin_1)*%
X85756000Y-47598400D03*
%TD*%
%TO.P,R49,1*%
%TO.N,Net-(J5-Pin_3)*%
X113163600Y-52655542D03*
%TO.P,R49,2*%
%TO.N,Net-(J5-Pin_16)*%
X115163600Y-52655542D03*
%TD*%
%TO.P,R50,1*%
%TO.N,Net-(J5-Pin_4)*%
X113163600Y-55184113D03*
%TO.P,R50,2*%
%TO.N,Net-(J5-Pin_16)*%
X115163600Y-55184113D03*
%TD*%
%TO.P,R26,2*%
%TO.N,Net-(J3-Pin_16)*%
X87756000Y-52655542D03*
%TO.P,R26,1*%
%TO.N,Net-(J3-Pin_3)*%
X85756000Y-52655542D03*
%TD*%
D12*
%TO.P,J2,16,Pin_16*%
%TO.N,Net-(J2-Pin_16)*%
X76800000Y-47525000D03*
%TO.P,J2,15,Pin_15*%
%TO.N,Net-(J2-Pin_15)*%
X76800000Y-50065000D03*
%TO.P,J2,14,Pin_14*%
%TO.N,Net-(J2-Pin_14)*%
X76800000Y-52605000D03*
%TO.P,J2,13,Pin_13*%
%TO.N,Net-(J2-Pin_13)*%
X76800000Y-55145000D03*
%TO.P,J2,12,Pin_12*%
%TO.N,Net-(J2-Pin_12)*%
X76800000Y-57685000D03*
%TO.P,J2,11,Pin_11*%
%TO.N,Net-(J2-Pin_11)*%
X76800000Y-60225000D03*
%TO.P,J2,10,Pin_10*%
%TO.N,Net-(J2-Pin_10)*%
X76800000Y-62765000D03*
%TO.P,J2,9,Pin_9*%
%TO.N,Net-(J2-Pin_9)*%
X76800000Y-65305000D03*
%TO.P,J2,8,Pin_8*%
%TO.N,Net-(J2-Pin_8)*%
X69180000Y-65305000D03*
%TO.P,J2,7,Pin_7*%
%TO.N,Net-(J2-Pin_7)*%
X69180000Y-62765000D03*
%TO.P,J2,6,Pin_6*%
%TO.N,Net-(J2-Pin_6)*%
X69180000Y-60225000D03*
%TO.P,J2,5,Pin_5*%
%TO.N,Net-(J2-Pin_5)*%
X69180000Y-57685000D03*
%TO.P,J2,4,Pin_4*%
%TO.N,Net-(J2-Pin_4)*%
X69180000Y-55145000D03*
%TO.P,J2,3,Pin_3*%
%TO.N,Net-(J2-Pin_3)*%
X69180000Y-52605000D03*
%TO.P,J2,2,Pin_2*%
%TO.N,Net-(J2-Pin_2)*%
X69180000Y-50065000D03*
D11*
%TO.P,J2,1,Pin_1*%
%TO.N,Net-(J2-Pin_1)*%
X69180000Y-47525000D03*
%TD*%
D10*
%TO.P,R47,1*%
%TO.N,Net-(J5-Pin_1)*%
X113163600Y-47598400D03*
%TO.P,R47,2*%
%TO.N,Net-(J5-Pin_16)*%
X115163600Y-47598400D03*
%TD*%
D12*
%TO.P,J3,16,Pin_16*%
%TO.N,Net-(J3-Pin_16)*%
X90551000Y-47523400D03*
%TO.P,J3,15,Pin_15*%
%TO.N,Net-(J3-Pin_15)*%
X90551000Y-50063400D03*
%TO.P,J3,14,Pin_14*%
%TO.N,Net-(J3-Pin_14)*%
X90551000Y-52603400D03*
%TO.P,J3,13,Pin_13*%
%TO.N,Net-(J3-Pin_13)*%
X90551000Y-55143400D03*
%TO.P,J3,12,Pin_12*%
%TO.N,Net-(J3-Pin_12)*%
X90551000Y-57683400D03*
%TO.P,J3,11,Pin_11*%
%TO.N,Net-(J3-Pin_11)*%
X90551000Y-60223400D03*
%TO.P,J3,10,Pin_10*%
%TO.N,Net-(J3-Pin_10)*%
X90551000Y-62763400D03*
%TO.P,J3,9,Pin_9*%
%TO.N,Net-(J3-Pin_9)*%
X90551000Y-65303400D03*
%TO.P,J3,8,Pin_8*%
%TO.N,Net-(J3-Pin_8)*%
X82931000Y-65303400D03*
%TO.P,J3,7,Pin_7*%
%TO.N,Net-(J3-Pin_7)*%
X82931000Y-62763400D03*
%TO.P,J3,6,Pin_6*%
%TO.N,Net-(J3-Pin_6)*%
X82931000Y-60223400D03*
%TO.P,J3,5,Pin_5*%
%TO.N,Net-(J3-Pin_5)*%
X82931000Y-57683400D03*
%TO.P,J3,4,Pin_4*%
%TO.N,Net-(J3-Pin_4)*%
X82931000Y-55143400D03*
%TO.P,J3,3,Pin_3*%
%TO.N,Net-(J3-Pin_3)*%
X82931000Y-52603400D03*
%TO.P,J3,2,Pin_2*%
%TO.N,Net-(J3-Pin_2)*%
X82931000Y-50063400D03*
D11*
%TO.P,J3,1,Pin_1*%
%TO.N,Net-(J3-Pin_1)*%
X82931000Y-47523400D03*
%TD*%
D10*
%TO.P,R31,2*%
%TO.N,Net-(J3-Pin_16)*%
X87756000Y-65298400D03*
%TO.P,R31,1*%
%TO.N,Net-(J3-Pin_8)*%
X85756000Y-65298400D03*
%TD*%
%TO.P,R39,1*%
%TO.N,Net-(J4-Pin_1)*%
X99438285Y-47600000D03*
%TO.P,R39,2*%
%TO.N,Net-(J4-Pin_16)*%
X101438285Y-47600000D03*
%TD*%
D13*
%TO.N,Net-(J5-Pin_16)*%
X115163600Y-62769826D02*
X115163600Y-65298400D01*
X115163600Y-60241255D02*
X115163600Y-62769826D01*
X115163600Y-57712684D02*
X115163600Y-60241255D01*
X115163600Y-55184113D02*
X115163600Y-57712684D01*
X115163600Y-52655542D02*
X115163600Y-55184113D01*
X115163600Y-50126971D02*
X115163600Y-52655542D01*
X115163600Y-47598400D02*
X115163600Y-50126971D01*
X115238600Y-47523400D02*
X115163600Y-47598400D01*
X117958600Y-47523400D02*
X115238600Y-47523400D01*
%TO.N,Net-(J5-Pin_1)*%
X113088600Y-47523400D02*
X113163600Y-47598400D01*
X110338600Y-47523400D02*
X113088600Y-47523400D01*
%TO.N,Net-(J5-Pin_2)*%
X110338600Y-50063400D02*
X113100029Y-50063400D01*
X113100029Y-50063400D02*
X113163600Y-50126971D01*
%TO.N,Net-(J5-Pin_3)*%
X113111458Y-52603400D02*
X113163600Y-52655542D01*
X110338600Y-52603400D02*
X113111458Y-52603400D01*
%TO.N,Net-(J5-Pin_4)*%
X113122887Y-55143400D02*
X113163600Y-55184113D01*
X110338600Y-55143400D02*
X113122887Y-55143400D01*
%TO.N,Net-(J5-Pin_5)*%
X110338600Y-57683400D02*
X113134316Y-57683400D01*
X113134316Y-57683400D02*
X113163600Y-57712684D01*
%TO.N,Net-(J5-Pin_6)*%
X113145745Y-60223400D02*
X113163600Y-60241255D01*
X110338600Y-60223400D02*
X113145745Y-60223400D01*
%TO.N,Net-(J5-Pin_7)*%
X113157174Y-62763400D02*
X113163600Y-62769826D01*
X110338600Y-62763400D02*
X113157174Y-62763400D01*
%TO.N,Net-(J5-Pin_8)*%
X113158600Y-65303400D02*
X113163600Y-65298400D01*
X110338600Y-65303400D02*
X113158600Y-65303400D01*
%TO.N,Net-(J4-Pin_2)*%
X99423914Y-50114200D02*
X99438285Y-50128571D01*
X96613285Y-50114200D02*
X99423914Y-50114200D01*
%TO.N,Net-(J4-Pin_3)*%
X99435343Y-52654200D02*
X99438285Y-52657142D01*
X96613285Y-52654200D02*
X99435343Y-52654200D01*
%TO.N,Net-(J4-Pin_4)*%
X99429798Y-55194200D02*
X99438285Y-55185713D01*
X96613285Y-55194200D02*
X99429798Y-55194200D01*
%TO.N,Net-(J4-Pin_5)*%
X99418369Y-57734200D02*
X99438285Y-57714284D01*
X96613285Y-57734200D02*
X99418369Y-57734200D01*
%TO.N,Net-(J4-Pin_6)*%
X99406940Y-60274200D02*
X99438285Y-60242855D01*
X96613285Y-60274200D02*
X99406940Y-60274200D01*
%TO.N,Net-(J4-Pin_7)*%
X99395511Y-62814200D02*
X99438285Y-62771426D01*
X96613285Y-62814200D02*
X99395511Y-62814200D01*
%TO.N,Net-(J4-Pin_8)*%
X99384085Y-65354200D02*
X99438285Y-65300000D01*
X96613285Y-65354200D02*
X99384085Y-65354200D01*
%TO.N,Net-(J4-Pin_9)*%
X101492485Y-65354200D02*
X101438285Y-65300000D01*
X104233285Y-65354200D02*
X101492485Y-65354200D01*
%TO.N,Net-(J4-Pin_10)*%
X101481059Y-62814200D02*
X101438285Y-62771426D01*
X104233285Y-62814200D02*
X101481059Y-62814200D01*
%TO.N,Net-(J4-Pin_11)*%
X101469630Y-60274200D02*
X101438285Y-60242855D01*
X104233285Y-60274200D02*
X101469630Y-60274200D01*
%TO.N,Net-(J4-Pin_12)*%
X101458201Y-57734200D02*
X101438285Y-57714284D01*
X104233285Y-57734200D02*
X101458201Y-57734200D01*
%TO.N,Net-(J4-Pin_13)*%
X101446772Y-55194200D02*
X101438285Y-55185713D01*
X104233285Y-55194200D02*
X101446772Y-55194200D01*
%TO.N,Net-(J4-Pin_14)*%
X101441227Y-52654200D02*
X101438285Y-52657142D01*
X104233285Y-52654200D02*
X101441227Y-52654200D01*
%TO.N,Net-(J4-Pin_15)*%
X101452656Y-50114200D02*
X101438285Y-50128571D01*
X104233285Y-50114200D02*
X101452656Y-50114200D01*
%TO.N,Net-(J4-Pin_16)*%
X101464085Y-47574200D02*
X101438285Y-47600000D01*
X104233285Y-47574200D02*
X101464085Y-47574200D01*
%TO.N,Net-(J4-Pin_1)*%
X99412485Y-47574200D02*
X99438285Y-47600000D01*
X96613285Y-47574200D02*
X99412485Y-47574200D01*
%TO.N,Net-(J1-Pin_1)*%
X58250000Y-47550000D02*
X58300000Y-47600000D01*
X55550000Y-47550000D02*
X58250000Y-47550000D01*
%TO.N,Net-(J1-Pin_16)*%
X60350000Y-47550000D02*
X63170000Y-47550000D01*
X60300000Y-62800000D02*
X60300000Y-60300000D01*
X60300000Y-65300000D02*
X60300000Y-62800000D01*
X60300000Y-57700000D02*
X60300000Y-55200000D01*
X60300000Y-50100000D02*
X60300000Y-47600000D01*
X60300000Y-52600000D02*
X60300000Y-50100000D01*
X60300000Y-47600000D02*
X60350000Y-47550000D01*
X60300000Y-60300000D02*
X60300000Y-57700000D01*
X60300000Y-55200000D02*
X60300000Y-52600000D01*
%TO.N,Net-(J1-Pin_2)*%
X58290000Y-50090000D02*
X58300000Y-50100000D01*
X55550000Y-50090000D02*
X58290000Y-50090000D01*
%TO.N,Net-(J1-Pin_3)*%
X58270000Y-52630000D02*
X58300000Y-52600000D01*
X55550000Y-52630000D02*
X58270000Y-52630000D01*
%TO.N,Net-(J1-Pin_4)*%
X55550000Y-55170000D02*
X58270000Y-55170000D01*
X58270000Y-55170000D02*
X58300000Y-55200000D01*
%TO.N,Net-(J1-Pin_5)*%
X58290000Y-57710000D02*
X58300000Y-57700000D01*
X55550000Y-57710000D02*
X58290000Y-57710000D01*
%TO.N,Net-(J1-Pin_6)*%
X55550000Y-60250000D02*
X58250000Y-60250000D01*
X58250000Y-60250000D02*
X58300000Y-60300000D01*
%TO.N,Net-(J1-Pin_7)*%
X55550000Y-62790000D02*
X58290000Y-62790000D01*
X58290000Y-62790000D02*
X58300000Y-62800000D01*
%TO.N,Net-(J1-Pin_8)*%
X55550000Y-65330000D02*
X58270000Y-65330000D01*
X58270000Y-65330000D02*
X58300000Y-65300000D01*
%TO.N,Net-(J2-Pin_1)*%
X69180000Y-47525000D02*
X71980000Y-47525000D01*
X71980000Y-47525000D02*
X72005000Y-47500000D01*
%TO.N,Net-(J2-Pin_2)*%
X69180000Y-50065000D02*
X71982857Y-50065000D01*
X71982857Y-50065000D02*
X72005000Y-50042857D01*
%TO.N,Net-(J2-Pin_3)*%
X69180000Y-52605000D02*
X71985714Y-52605000D01*
X71985714Y-52605000D02*
X72005000Y-52585714D01*
%TO.N,Net-(J2-Pin_4)*%
X71988571Y-55145000D02*
X72005000Y-55128571D01*
X69180000Y-55145000D02*
X71988571Y-55145000D01*
%TO.N,Net-(J2-Pin_5)*%
X69180000Y-57685000D02*
X71991428Y-57685000D01*
X71991428Y-57685000D02*
X72005000Y-57671428D01*
%TO.N,Net-(J2-Pin_6)*%
X69180000Y-60225000D02*
X71994285Y-60225000D01*
X71994285Y-60225000D02*
X72005000Y-60214285D01*
%TO.N,Net-(J2-Pin_7)*%
X69180000Y-62765000D02*
X71997142Y-62765000D01*
X71997142Y-62765000D02*
X72005000Y-62757142D01*
%TO.N,Net-(J2-Pin_8)*%
X72000000Y-65305000D02*
X72005000Y-65300000D01*
X69180000Y-65305000D02*
X72000000Y-65305000D01*
%TO.N,Net-(J2-Pin_9)*%
X74010000Y-65305000D02*
X76800000Y-65305000D01*
X74005000Y-65300000D02*
X74010000Y-65305000D01*
%TO.N,Net-(J2-Pin_10)*%
X74005000Y-62757142D02*
X74012858Y-62765000D01*
X74012858Y-62765000D02*
X76800000Y-62765000D01*
%TO.N,Net-(J2-Pin_11)*%
X74005000Y-60214285D02*
X74015715Y-60225000D01*
X74015715Y-60225000D02*
X76800000Y-60225000D01*
%TO.N,Net-(J2-Pin_12)*%
X74005000Y-57671428D02*
X74018572Y-57685000D01*
X74018572Y-57685000D02*
X76800000Y-57685000D01*
%TO.N,Net-(J2-Pin_13)*%
X74021429Y-55145000D02*
X76800000Y-55145000D01*
X74005000Y-55128571D02*
X74021429Y-55145000D01*
%TO.N,Net-(J2-Pin_14)*%
X74024286Y-52605000D02*
X76800000Y-52605000D01*
X74005000Y-52585714D02*
X74024286Y-52605000D01*
%TO.N,Net-(J2-Pin_15)*%
X74005000Y-50042857D02*
X74027143Y-50065000D01*
X74027143Y-50065000D02*
X76800000Y-50065000D01*
%TO.N,Net-(J2-Pin_16)*%
X74030000Y-47525000D02*
X76800000Y-47525000D01*
X74005000Y-47500000D02*
X74030000Y-47525000D01*
%TO.N,Net-(J3-Pin_1)*%
X85705600Y-47648800D02*
X85756000Y-47598400D01*
X82931000Y-47648800D02*
X85705600Y-47648800D01*
%TO.N,Net-(J3-Pin_2)*%
X85694171Y-50188800D02*
X85756000Y-50126971D01*
X82931000Y-50188800D02*
X85694171Y-50188800D01*
%TO.N,Net-(J3-Pin_3)*%
X82931000Y-52728800D02*
X85682742Y-52728800D01*
X85682742Y-52728800D02*
X85756000Y-52655542D01*
%TO.N,Net-(J3-Pin_4)*%
X82931000Y-55268800D02*
X85671313Y-55268800D01*
X85671313Y-55268800D02*
X85756000Y-55184113D01*
%TO.N,Net-(J3-Pin_5)*%
X82931000Y-57808800D02*
X85659884Y-57808800D01*
X85659884Y-57808800D02*
X85756000Y-57712684D01*
%TO.N,Net-(J3-Pin_6)*%
X85648455Y-60348800D02*
X85756000Y-60241255D01*
X82931000Y-60348800D02*
X85648455Y-60348800D01*
%TO.N,Net-(J3-Pin_7)*%
X82931000Y-62888800D02*
X85637026Y-62888800D01*
X85637026Y-62888800D02*
X85756000Y-62769826D01*
%TO.N,Net-(J3-Pin_8)*%
X85625600Y-65428800D02*
X85756000Y-65298400D01*
X82931000Y-65428800D02*
X85625600Y-65428800D01*
%TO.N,Net-(J3-Pin_16)*%
X87756000Y-60241255D02*
X87756000Y-57712684D01*
X90500600Y-47598400D02*
X90551000Y-47648800D01*
X87756000Y-52655542D02*
X87756000Y-50126971D01*
X87756000Y-62769826D02*
X87756000Y-60241255D01*
X87756000Y-65298400D02*
X87756000Y-62769826D01*
X87756000Y-47598400D02*
X90500600Y-47598400D01*
X87756000Y-57712684D02*
X87756000Y-55184113D01*
X87756000Y-55184113D02*
X87756000Y-52655542D01*
X87756000Y-50126971D02*
X87756000Y-47598400D01*
%TD*%
M02*
