%TF.GenerationSoftware,KiCad,Pcbnew,7.0.11*%
%TF.CreationDate,2024-10-23T23:44:55+03:00*%
%TF.ProjectId,rndip16,726e6469-7031-4362-9e6b-696361645f70,rev?*%
%TF.SameCoordinates,Original*%
%TF.FileFunction,Paste,Top*%
%TF.FilePolarity,Positive*%
%FSLAX46Y46*%
G04 Gerber Fmt 4.6, Leading zero omitted, Abs format (unit mm)*
G04 Created by KiCad (PCBNEW 7.0.11) date 2024-10-23 23:44:55*
%MOMM*%
%LPD*%
G01*
G04 APERTURE LIST*
G04 Aperture macros list*
%AMRoundRect*
0 Rectangle with rounded corners*
0 $1 Rounding radius*
0 $2 $3 $4 $5 $6 $7 $8 $9 X,Y pos of 4 corners*
0 Add a 4 corners polygon primitive as box body*
4,1,4,$2,$3,$4,$5,$6,$7,$8,$9,$2,$3,0*
0 Add four circle primitives for the rounded corners*
1,1,$1+$1,$2,$3*
1,1,$1+$1,$4,$5*
1,1,$1+$1,$6,$7*
1,1,$1+$1,$8,$9*
0 Add four rect primitives between the rounded corners*
20,1,$1+$1,$2,$3,$4,$5,0*
20,1,$1+$1,$4,$5,$6,$7,0*
20,1,$1+$1,$6,$7,$8,$9,0*
20,1,$1+$1,$8,$9,$2,$3,0*%
G04 Aperture macros list end*
%ADD10RoundRect,0.250000X-0.350000X-0.450000X0.350000X-0.450000X0.350000X0.450000X-0.350000X0.450000X0*%
G04 APERTURE END LIST*
D10*
%TO.C,R45*%
X99438285Y-62771426D03*
X101438285Y-62771426D03*
%TD*%
%TO.C,R53*%
X113163600Y-62769826D03*
X115163600Y-62769826D03*
%TD*%
%TO.C,R29*%
X87756000Y-60241255D03*
X85756000Y-60241255D03*
%TD*%
%TO.C,R8*%
X58300000Y-65300000D03*
X60300000Y-65300000D03*
%TD*%
%TO.C,R18*%
X72005000Y-52585714D03*
X74005000Y-52585714D03*
%TD*%
%TO.C,R21*%
X72005000Y-60214285D03*
X74005000Y-60214285D03*
%TD*%
%TO.C,R54*%
X115163600Y-65298400D03*
X113163600Y-65298400D03*
%TD*%
%TO.C,R3*%
X58300000Y-52600000D03*
X60300000Y-52600000D03*
%TD*%
%TO.C,R40*%
X99438285Y-50128571D03*
X101438285Y-50128571D03*
%TD*%
%TO.C,R43*%
X99438285Y-57714284D03*
X101438285Y-57714284D03*
%TD*%
%TO.C,R7*%
X58300000Y-62800000D03*
X60300000Y-62800000D03*
%TD*%
%TO.C,R23*%
X72005000Y-65300000D03*
X74005000Y-65300000D03*
%TD*%
%TO.C,R30*%
X87756000Y-62769826D03*
X85756000Y-62769826D03*
%TD*%
%TO.C,R44*%
X99438285Y-60242855D03*
X101438285Y-60242855D03*
%TD*%
%TO.C,R27*%
X87756000Y-55184113D03*
X85756000Y-55184113D03*
%TD*%
%TO.C,R28*%
X87756000Y-57712684D03*
X85756000Y-57712684D03*
%TD*%
%TO.C,R46*%
X101438285Y-65300000D03*
X99438285Y-65300000D03*
%TD*%
%TO.C,R20*%
X72005000Y-57671428D03*
X74005000Y-57671428D03*
%TD*%
%TO.C,R25*%
X87756000Y-50126971D03*
X85756000Y-50126971D03*
%TD*%
%TO.C,R16*%
X72005000Y-47500000D03*
X74005000Y-47500000D03*
%TD*%
%TO.C,R17*%
X72005000Y-50042857D03*
X74005000Y-50042857D03*
%TD*%
%TO.C,R4*%
X58300000Y-55200000D03*
X60300000Y-55200000D03*
%TD*%
%TO.C,R48*%
X113163600Y-50126971D03*
X115163600Y-50126971D03*
%TD*%
%TO.C,R6*%
X58300000Y-60300000D03*
X60300000Y-60300000D03*
%TD*%
%TO.C,R1*%
X58300000Y-47600000D03*
X60300000Y-47600000D03*
%TD*%
%TO.C,R42*%
X99438285Y-55185713D03*
X101438285Y-55185713D03*
%TD*%
%TO.C,R22*%
X72005000Y-62757142D03*
X74005000Y-62757142D03*
%TD*%
%TO.C,R51*%
X113163600Y-57712684D03*
X115163600Y-57712684D03*
%TD*%
%TO.C,R2*%
X58300000Y-50100000D03*
X60300000Y-50100000D03*
%TD*%
%TO.C,R5*%
X58300000Y-57700000D03*
X60300000Y-57700000D03*
%TD*%
%TO.C,R52*%
X113163600Y-60241255D03*
X115163600Y-60241255D03*
%TD*%
%TO.C,R19*%
X72005000Y-55128571D03*
X74005000Y-55128571D03*
%TD*%
%TO.C,R41*%
X99438285Y-52657142D03*
X101438285Y-52657142D03*
%TD*%
%TO.C,R24*%
X87756000Y-47598400D03*
X85756000Y-47598400D03*
%TD*%
%TO.C,R49*%
X113163600Y-52655542D03*
X115163600Y-52655542D03*
%TD*%
%TO.C,R50*%
X113163600Y-55184113D03*
X115163600Y-55184113D03*
%TD*%
%TO.C,R26*%
X87756000Y-52655542D03*
X85756000Y-52655542D03*
%TD*%
%TO.C,R47*%
X113163600Y-47598400D03*
X115163600Y-47598400D03*
%TD*%
%TO.C,R31*%
X87756000Y-65298400D03*
X85756000Y-65298400D03*
%TD*%
%TO.C,R39*%
X99438285Y-47600000D03*
X101438285Y-47600000D03*
%TD*%
M02*
