%TF.GenerationSoftware,KiCad,Pcbnew,7.0.11*%
%TF.CreationDate,2024-05-08T00:17:06+03:00*%
%TF.ProjectId,rndip16,726e6469-7031-4362-9e6b-696361645f70,rev?*%
%TF.SameCoordinates,Original*%
%TF.FileFunction,Legend,Top*%
%TF.FilePolarity,Positive*%
%FSLAX46Y46*%
G04 Gerber Fmt 4.6, Leading zero omitted, Abs format (unit mm)*
G04 Created by KiCad (PCBNEW 7.0.11) date 2024-05-08 00:17:06*
%MOMM*%
%LPD*%
G01*
G04 APERTURE LIST*
%ADD10C,0.150000*%
%ADD11C,0.120000*%
G04 APERTURE END LIST*
D10*
X54100000Y-46000000D02*
X56900000Y-46000000D01*
X56900000Y-46500000D01*
X54100000Y-46500000D01*
X54100000Y-46000000D01*
G36*
X54100000Y-46000000D02*
G01*
X56900000Y-46000000D01*
X56900000Y-46500000D01*
X54100000Y-46500000D01*
X54100000Y-46000000D01*
G37*
X67800000Y-46000000D02*
X70600000Y-46000000D01*
X70600000Y-46500000D01*
X67800000Y-46500000D01*
X67800000Y-46000000D01*
G36*
X67800000Y-46000000D02*
G01*
X70600000Y-46000000D01*
X70600000Y-46500000D01*
X67800000Y-46500000D01*
X67800000Y-46000000D01*
G37*
D11*
%TO.C,R8*%
X59072936Y-64565000D02*
X59527064Y-64565000D01*
X59072936Y-66035000D02*
X59527064Y-66035000D01*
%TO.C,R18*%
X72777936Y-51850714D02*
X73232064Y-51850714D01*
X72777936Y-53320714D02*
X73232064Y-53320714D01*
%TO.C,R21*%
X72777936Y-59479285D02*
X73232064Y-59479285D01*
X72777936Y-60949285D02*
X73232064Y-60949285D01*
%TO.C,R3*%
X59072936Y-51865000D02*
X59527064Y-51865000D01*
X59072936Y-53335000D02*
X59527064Y-53335000D01*
%TO.C,R7*%
X59072936Y-62065000D02*
X59527064Y-62065000D01*
X59072936Y-63535000D02*
X59527064Y-63535000D01*
%TO.C,R23*%
X72777936Y-64565000D02*
X73232064Y-64565000D01*
X72777936Y-66035000D02*
X73232064Y-66035000D01*
%TO.C,R20*%
X72777936Y-56936428D02*
X73232064Y-56936428D01*
X72777936Y-58406428D02*
X73232064Y-58406428D01*
%TO.C,R16*%
X72777936Y-46765000D02*
X73232064Y-46765000D01*
X72777936Y-48235000D02*
X73232064Y-48235000D01*
%TO.C,R17*%
X72777936Y-49307857D02*
X73232064Y-49307857D01*
X72777936Y-50777857D02*
X73232064Y-50777857D01*
%TO.C,R4*%
X59072936Y-54465000D02*
X59527064Y-54465000D01*
X59072936Y-55935000D02*
X59527064Y-55935000D01*
%TO.C,R6*%
X59072936Y-59565000D02*
X59527064Y-59565000D01*
X59072936Y-61035000D02*
X59527064Y-61035000D01*
%TO.C,R1*%
X59072936Y-46865000D02*
X59527064Y-46865000D01*
X59072936Y-48335000D02*
X59527064Y-48335000D01*
%TO.C,R22*%
X72777936Y-62022142D02*
X73232064Y-62022142D01*
X72777936Y-63492142D02*
X73232064Y-63492142D01*
%TO.C,R2*%
X59072936Y-49365000D02*
X59527064Y-49365000D01*
X59072936Y-50835000D02*
X59527064Y-50835000D01*
%TO.C,R5*%
X59072936Y-56965000D02*
X59527064Y-56965000D01*
X59072936Y-58435000D02*
X59527064Y-58435000D01*
%TO.C,R19*%
X72777936Y-54393571D02*
X73232064Y-54393571D01*
X72777936Y-55863571D02*
X73232064Y-55863571D01*
%TD*%
M02*
