M48
; DRILL file {KiCad 7.0.11} date Mon May 13 15:30:08 2024
; FORMAT={-:-/ absolute / inch / decimal}
; #@! TF.CreationDate,2024-05-13T15:30:08+03:00
; #@! TF.GenerationSoftware,Kicad,Pcbnew,7.0.11
; #@! TF.FileFunction,NonPlated,1,2,NPTH
FMAT,2
INCH
; #@! TA.AperFunction,NonPlated,NPTH,ComponentDrill
T1C0.0197
%
G90
G05
T1
X2.563Y-1.8701
X2.563Y-1.9016
X2.563Y-1.9331
X2.563Y-1.9646
X2.563Y-1.9961
X2.563Y-2.0276
X2.563Y-2.4134
X2.563Y-2.4449
X2.563Y-2.4764
X2.563Y-2.5079
X2.563Y-2.5394
X2.563Y-2.5709
X2.6496Y-1.8701
X2.6496Y-1.9016
X2.6496Y-1.9331
X2.6496Y-1.9646
X2.6496Y-1.9961
X2.6496Y-2.0276
X2.6496Y-2.4134
X2.6496Y-2.4449
X2.6496Y-2.4764
X2.6496Y-2.5079
X2.6496Y-2.5394
X2.6496Y-2.5709
M30
