%TF.GenerationSoftware,KiCad,Pcbnew,7.0.11*%
%TF.CreationDate,2024-10-23T23:44:55+03:00*%
%TF.ProjectId,rndip16,726e6469-7031-4362-9e6b-696361645f70,rev?*%
%TF.SameCoordinates,Original*%
%TF.FileFunction,Profile,NP*%
%FSLAX46Y46*%
G04 Gerber Fmt 4.6, Leading zero omitted, Abs format (unit mm)*
G04 Created by KiCad (PCBNEW 7.0.11) date 2024-10-23 23:44:55*
%MOMM*%
%LPD*%
G01*
G04 APERTURE LIST*
%TA.AperFunction,Profile*%
%ADD10C,0.100000*%
%TD*%
G04 APERTURE END LIST*
D10*
X119500000Y-66900000D02*
X108800000Y-66900000D01*
X108800000Y-45900000D02*
X119500000Y-45900000D01*
X119500000Y-66900000D02*
X119500000Y-45900000D01*
X105800000Y-66900000D02*
X95100000Y-66900000D01*
X95100000Y-45900000D02*
X105800000Y-45900000D01*
X105800000Y-59700000D02*
X105800000Y-53100000D01*
X108800000Y-53100000D02*
X108800000Y-59700000D01*
X95100000Y-53100000D02*
X95100000Y-59700000D01*
X92100000Y-66900000D02*
X81400000Y-66900000D01*
X81400000Y-45900000D02*
X92100000Y-45900000D01*
X92100000Y-59700000D02*
X92100000Y-53100000D01*
X64700000Y-59700000D02*
X64700000Y-53100000D01*
X67700000Y-53100000D02*
X67700000Y-59700000D01*
X54000000Y-66900000D02*
X54000000Y-45900000D01*
X64700000Y-66900000D02*
X54000000Y-66900000D01*
X54000000Y-45900000D02*
X64700000Y-45900000D01*
X78400000Y-59700000D02*
X78400000Y-53100000D01*
X67700000Y-45900000D02*
X78400000Y-45900000D01*
X78400000Y-66900000D02*
X67700000Y-66900000D01*
X81400000Y-53100000D02*
X81400000Y-59700000D01*
%TO.C,mouse-bite-2.54mm-slot_13*%
X108800000Y-53100000D02*
G75*
G03*
X105800000Y-53100000I-1500000J0D01*
G01*
X105800000Y-45900000D02*
G75*
G03*
X108800000Y-45900000I1500000J0D01*
G01*
X108800000Y-66900000D02*
G75*
G03*
X105800000Y-66900000I-1500000J0D01*
G01*
X105800000Y-59700000D02*
G75*
G03*
X108800000Y-59700000I1500000J0D01*
G01*
X95100000Y-53100000D02*
G75*
G03*
X92100000Y-53100000I-1500000J0D01*
G01*
X92100000Y-45900000D02*
G75*
G03*
X95100000Y-45900000I1500000J0D01*
G01*
X95100000Y-66900000D02*
G75*
G03*
X92100000Y-66900000I-1500000J0D01*
G01*
X92100000Y-59700000D02*
G75*
G03*
X95100000Y-59700000I1500000J0D01*
G01*
X67700000Y-66900000D02*
G75*
G03*
X64700000Y-66900000I-1500000J0D01*
G01*
X64700000Y-59700000D02*
G75*
G03*
X67700000Y-59700000I1500000J0D01*
G01*
X67700000Y-53100000D02*
G75*
G03*
X64700000Y-53100000I-1500000J0D01*
G01*
X64700000Y-45900000D02*
G75*
G03*
X67700000Y-45900000I1500000J0D01*
G01*
X78400000Y-59700000D02*
G75*
G03*
X81400000Y-59700000I1500000J0D01*
G01*
X81400000Y-66900000D02*
G75*
G03*
X78400000Y-66900000I-1500000J0D01*
G01*
X78400000Y-45900000D02*
G75*
G03*
X81400000Y-45900000I1500000J0D01*
G01*
X81400000Y-53100000D02*
G75*
G03*
X78400000Y-53100000I-1500000J0D01*
G01*
%TD*%
M02*
