%TF.GenerationSoftware,KiCad,Pcbnew,7.0.11*%
%TF.CreationDate,2024-10-23T23:44:55+03:00*%
%TF.ProjectId,rndip16,726e6469-7031-4362-9e6b-696361645f70,rev?*%
%TF.SameCoordinates,Original*%
%TF.FileFunction,Soldermask,Bot*%
%TF.FilePolarity,Negative*%
%FSLAX46Y46*%
G04 Gerber Fmt 4.6, Leading zero omitted, Abs format (unit mm)*
G04 Created by KiCad (PCBNEW 7.0.11) date 2024-10-23 23:44:55*
%MOMM*%
%LPD*%
G01*
G04 APERTURE LIST*
G04 Aperture macros list*
%AMRoundRect*
0 Rectangle with rounded corners*
0 $1 Rounding radius*
0 $2 $3 $4 $5 $6 $7 $8 $9 X,Y pos of 4 corners*
0 Add a 4 corners polygon primitive as box body*
4,1,4,$2,$3,$4,$5,$6,$7,$8,$9,$2,$3,0*
0 Add four circle primitives for the rounded corners*
1,1,$1+$1,$2,$3*
1,1,$1+$1,$4,$5*
1,1,$1+$1,$6,$7*
1,1,$1+$1,$8,$9*
0 Add four rect primitives between the rounded corners*
20,1,$1+$1,$2,$3,$4,$5,0*
20,1,$1+$1,$4,$5,$6,$7,0*
20,1,$1+$1,$6,$7,$8,$9,0*
20,1,$1+$1,$8,$9,$2,$3,0*%
G04 Aperture macros list end*
%ADD10C,0.500000*%
%ADD11R,2.400000X1.600000*%
%ADD12O,2.400000X1.600000*%
%ADD13RoundRect,0.250000X0.350000X0.450000X-0.350000X0.450000X-0.350000X-0.450000X0.350000X-0.450000X0*%
G04 APERTURE END LIST*
D10*
%TO.C,mouse-bite-2.54mm-slot_13*%
X106200000Y-51500000D03*
X108400000Y-51500000D03*
X106200000Y-50700000D03*
X108400000Y-50700000D03*
X106200000Y-49900000D03*
X108400000Y-49900000D03*
X106200000Y-49100000D03*
X108400000Y-49100000D03*
X106200000Y-48300000D03*
X108400000Y-48300000D03*
X106200000Y-47500000D03*
X108400000Y-47500000D03*
%TD*%
%TO.C,mouse-bite-2.54mm-slot_13*%
X106200000Y-65300000D03*
X108400000Y-65300000D03*
X106200000Y-64500000D03*
X108400000Y-64500000D03*
X106200000Y-63700000D03*
X108400000Y-63700000D03*
X106200000Y-62900000D03*
X108400000Y-62900000D03*
X106200000Y-62100000D03*
X108400000Y-62100000D03*
X106200000Y-61300000D03*
X108400000Y-61300000D03*
%TD*%
%TO.C,mouse-bite-2.54mm-slot_13*%
X92500000Y-51500000D03*
X94700000Y-51500000D03*
X92500000Y-50700000D03*
X94700000Y-50700000D03*
X92500000Y-49900000D03*
X94700000Y-49900000D03*
X92500000Y-49100000D03*
X94700000Y-49100000D03*
X92500000Y-48300000D03*
X94700000Y-48300000D03*
X92500000Y-47500000D03*
X94700000Y-47500000D03*
%TD*%
%TO.C,mouse-bite-2.54mm-slot_13*%
X92500000Y-65300000D03*
X94700000Y-65300000D03*
X92500000Y-64500000D03*
X94700000Y-64500000D03*
X92500000Y-63700000D03*
X94700000Y-63700000D03*
X92500000Y-62900000D03*
X94700000Y-62900000D03*
X92500000Y-62100000D03*
X94700000Y-62100000D03*
X92500000Y-61300000D03*
X94700000Y-61300000D03*
%TD*%
%TO.C,mouse-bite-2.54mm-slot_13*%
X65100000Y-65300000D03*
X67300000Y-65300000D03*
X65100000Y-64500000D03*
X67300000Y-64500000D03*
X65100000Y-63700000D03*
X67300000Y-63700000D03*
X65100000Y-62900000D03*
X67300000Y-62900000D03*
X65100000Y-62100000D03*
X67300000Y-62100000D03*
X65100000Y-61300000D03*
X67300000Y-61300000D03*
%TD*%
D11*
%TO.C,J5*%
X110338600Y-47523400D03*
D12*
X110338600Y-50063400D03*
X110338600Y-52603400D03*
X110338600Y-55143400D03*
X110338600Y-57683400D03*
X110338600Y-60223400D03*
X110338600Y-62763400D03*
X110338600Y-65303400D03*
X117958600Y-65303400D03*
X117958600Y-62763400D03*
X117958600Y-60223400D03*
X117958600Y-57683400D03*
X117958600Y-55143400D03*
X117958600Y-52603400D03*
X117958600Y-50063400D03*
X117958600Y-47523400D03*
%TD*%
D13*
%TO.C,R55*%
X115158000Y-65298400D03*
X113158000Y-65298400D03*
%TD*%
D11*
%TO.C,J4*%
X96613285Y-47525000D03*
D12*
X96613285Y-50065000D03*
X96613285Y-52605000D03*
X96613285Y-55145000D03*
X96613285Y-57685000D03*
X96613285Y-60225000D03*
X96613285Y-62765000D03*
X96613285Y-65305000D03*
X104233285Y-65305000D03*
X104233285Y-62765000D03*
X104233285Y-60225000D03*
X104233285Y-57685000D03*
X104233285Y-55145000D03*
X104233285Y-52605000D03*
X104233285Y-50065000D03*
X104233285Y-47525000D03*
%TD*%
D13*
%TO.C,R61*%
X115158000Y-50126971D03*
X113158000Y-50126971D03*
%TD*%
%TO.C,R57*%
X115158000Y-60241255D03*
X113158000Y-60241255D03*
%TD*%
D10*
%TO.C,mouse-bite-2.54mm-slot_13*%
X65100000Y-51500000D03*
X67300000Y-51500000D03*
X65100000Y-50700000D03*
X67300000Y-50700000D03*
X65100000Y-49900000D03*
X67300000Y-49900000D03*
X65100000Y-49100000D03*
X67300000Y-49100000D03*
X65100000Y-48300000D03*
X67300000Y-48300000D03*
X65100000Y-47500000D03*
X67300000Y-47500000D03*
%TD*%
D13*
%TO.C,R56*%
X115158000Y-62769826D03*
X113158000Y-62769826D03*
%TD*%
D10*
%TO.C,mouse-bite-2.54mm-slot_13*%
X81000000Y-61300000D03*
X78800000Y-61300000D03*
X81000000Y-62100000D03*
X78800000Y-62100000D03*
X81000000Y-62900000D03*
X78800000Y-62900000D03*
X81000000Y-63700000D03*
X78800000Y-63700000D03*
X81000000Y-64500000D03*
X78800000Y-64500000D03*
X81000000Y-65300000D03*
X78800000Y-65300000D03*
%TD*%
D13*
%TO.C,R58*%
X115158000Y-57712684D03*
X113158000Y-57712684D03*
%TD*%
D11*
%TO.C,J1*%
X55550000Y-47550000D03*
D12*
X55550000Y-50090000D03*
X55550000Y-52630000D03*
X55550000Y-55170000D03*
X55550000Y-57710000D03*
X55550000Y-60250000D03*
X55550000Y-62790000D03*
X55550000Y-65330000D03*
X63170000Y-65330000D03*
X63170000Y-62790000D03*
X63170000Y-60250000D03*
X63170000Y-57710000D03*
X63170000Y-55170000D03*
X63170000Y-52630000D03*
X63170000Y-50090000D03*
X63170000Y-47550000D03*
%TD*%
D10*
%TO.C,mouse-bite-2.54mm-slot_13*%
X81000000Y-47500000D03*
X78800000Y-47500000D03*
X81000000Y-48300000D03*
X78800000Y-48300000D03*
X81000000Y-49100000D03*
X78800000Y-49100000D03*
X81000000Y-49900000D03*
X78800000Y-49900000D03*
X81000000Y-50700000D03*
X78800000Y-50700000D03*
X81000000Y-51500000D03*
X78800000Y-51500000D03*
%TD*%
D12*
%TO.C,J2*%
X76800000Y-47525000D03*
X76800000Y-50065000D03*
X76800000Y-52605000D03*
X76800000Y-55145000D03*
X76800000Y-57685000D03*
X76800000Y-60225000D03*
X76800000Y-62765000D03*
X76800000Y-65305000D03*
X69180000Y-65305000D03*
X69180000Y-62765000D03*
X69180000Y-60225000D03*
X69180000Y-57685000D03*
X69180000Y-55145000D03*
X69180000Y-52605000D03*
X69180000Y-50065000D03*
D11*
X69180000Y-47525000D03*
%TD*%
D13*
%TO.C,R60*%
X115158000Y-52655542D03*
X113158000Y-52655542D03*
%TD*%
D12*
%TO.C,J3*%
X90551000Y-47523400D03*
X90551000Y-50063400D03*
X90551000Y-52603400D03*
X90551000Y-55143400D03*
X90551000Y-57683400D03*
X90551000Y-60223400D03*
X90551000Y-62763400D03*
X90551000Y-65303400D03*
X82931000Y-65303400D03*
X82931000Y-62763400D03*
X82931000Y-60223400D03*
X82931000Y-57683400D03*
X82931000Y-55143400D03*
X82931000Y-52603400D03*
X82931000Y-50063400D03*
D11*
X82931000Y-47523400D03*
%TD*%
D13*
%TO.C,R59*%
X115158000Y-55184113D03*
X113158000Y-55184113D03*
%TD*%
%TO.C,R15*%
X60300000Y-50100000D03*
X58300000Y-50100000D03*
%TD*%
%TO.C,R35*%
X87756000Y-57712684D03*
X85756000Y-57712684D03*
%TD*%
%TO.C,R32*%
X87756000Y-65298400D03*
X85756000Y-65298400D03*
%TD*%
%TO.C,R36*%
X87756000Y-55184113D03*
X85756000Y-55184113D03*
%TD*%
%TO.C,R33*%
X87756000Y-62769826D03*
X85756000Y-62769826D03*
%TD*%
%TO.C,R37*%
X87756000Y-52655542D03*
X85756000Y-52655542D03*
%TD*%
%TO.C,R38*%
X87756000Y-50126971D03*
X85756000Y-50126971D03*
%TD*%
%TO.C,R11*%
X60300000Y-60300000D03*
X58300000Y-60300000D03*
%TD*%
%TO.C,R10*%
X60300000Y-62800000D03*
X58300000Y-62800000D03*
%TD*%
%TO.C,R9*%
X60300000Y-65300000D03*
X58300000Y-65300000D03*
%TD*%
%TO.C,R13*%
X60300000Y-55200000D03*
X58300000Y-55200000D03*
%TD*%
%TO.C,R34*%
X87756000Y-60241255D03*
X85756000Y-60241255D03*
%TD*%
%TO.C,R12*%
X60300000Y-57700000D03*
X58300000Y-57700000D03*
%TD*%
%TO.C,R14*%
X60300000Y-52600000D03*
X58300000Y-52600000D03*
%TD*%
M02*
