M48
; DRILL file {KiCad 7.0.11} date Wed May  8 00:17:07 2024
; FORMAT={-:-/ absolute / metric / decimal}
; #@! TF.CreationDate,2024-05-08T00:17:07+03:00
; #@! TF.GenerationSoftware,Kicad,Pcbnew,7.0.11
; #@! TF.FileFunction,Plated,1,2,PTH
FMAT,2
METRIC
; #@! TA.AperFunction,Plated,PTH,ComponentDrill
T1C0.800
%
G90
G05
T1
X55.55Y-47.55
X55.55Y-50.09
X55.55Y-52.63
X55.55Y-55.17
X55.55Y-57.71
X55.55Y-60.25
X55.55Y-62.79
X55.55Y-65.33
X63.17Y-47.55
X63.17Y-50.09
X63.17Y-52.63
X63.17Y-55.17
X63.17Y-57.71
X63.17Y-60.25
X63.17Y-62.79
X63.17Y-65.33
X69.18Y-47.525
X69.18Y-50.065
X69.18Y-52.605
X69.18Y-55.145
X69.18Y-57.685
X69.18Y-60.225
X69.18Y-62.765
X69.18Y-65.305
X76.8Y-47.525
X76.8Y-50.065
X76.8Y-52.605
X76.8Y-55.145
X76.8Y-57.685
X76.8Y-60.225
X76.8Y-62.765
X76.8Y-65.305
M30
