%TF.GenerationSoftware,KiCad,Pcbnew,7.0.11*%
%TF.CreationDate,2024-05-08T00:17:08+03:00*%
%TF.ProjectId,rndip16,726e6469-7031-4362-9e6b-696361645f70,rev?*%
%TF.SameCoordinates,Original*%
%TF.FileFunction,Drillmap*%
%TF.FilePolarity,Positive*%
%FSLAX45Y45*%
G04 Gerber Fmt 4.5, Leading zero omitted, Abs format (unit mm)*
G04 Created by KiCad (PCBNEW 7.0.11) date 2024-05-08 00:17:08*
%MOMM*%
%LPD*%
G01*
G04 APERTURE LIST*
%ADD10C,0.100000*%
%ADD11C,0.200000*%
G04 APERTURE END LIST*
D10*
X6470000Y-5970000D02*
X6470000Y-5310000D01*
X6770000Y-5310000D02*
X6770000Y-5970000D01*
X5400000Y-6690000D02*
X5400000Y-4590000D01*
X7840000Y-4590000D02*
X7840000Y-6690000D01*
X6470000Y-6690000D02*
X5400000Y-6690000D01*
X5400000Y-4590000D02*
X6470000Y-4590000D01*
X6770000Y-4590000D02*
X7840000Y-4590000D01*
X7840000Y-6690000D02*
X6770000Y-6690000D01*
X6770000Y-6690000D02*
G75*
G03*
X6470000Y-6690000I-150000J0D01*
G01*
X6470000Y-5970000D02*
G75*
G03*
X6770000Y-5970000I150000J0D01*
G01*
X6770000Y-5310000D02*
G75*
G03*
X6470000Y-5310000I-150000J0D01*
G01*
X6470000Y-4590000D02*
G75*
G03*
X6770000Y-4590000I150000J0D01*
G01*
D11*
D10*
X6485000Y-4725000D02*
X6535000Y-4775000D01*
X6535000Y-4725000D02*
X6485000Y-4775000D01*
X6485000Y-4805000D02*
X6535000Y-4855000D01*
X6535000Y-4805000D02*
X6485000Y-4855000D01*
X6485000Y-4885000D02*
X6535000Y-4935000D01*
X6535000Y-4885000D02*
X6485000Y-4935000D01*
X6485000Y-4965000D02*
X6535000Y-5015000D01*
X6535000Y-4965000D02*
X6485000Y-5015000D01*
X6485000Y-5045000D02*
X6535000Y-5095000D01*
X6535000Y-5045000D02*
X6485000Y-5095000D01*
X6485000Y-5125000D02*
X6535000Y-5175000D01*
X6535000Y-5125000D02*
X6485000Y-5175000D01*
X6485000Y-6105000D02*
X6535000Y-6155000D01*
X6535000Y-6105000D02*
X6485000Y-6155000D01*
X6485000Y-6185000D02*
X6535000Y-6235000D01*
X6535000Y-6185000D02*
X6485000Y-6235000D01*
X6485000Y-6265000D02*
X6535000Y-6315000D01*
X6535000Y-6265000D02*
X6485000Y-6315000D01*
X6485000Y-6345000D02*
X6535000Y-6395000D01*
X6535000Y-6345000D02*
X6485000Y-6395000D01*
X6485000Y-6425000D02*
X6535000Y-6475000D01*
X6535000Y-6425000D02*
X6485000Y-6475000D01*
X6485000Y-6505000D02*
X6535000Y-6555000D01*
X6535000Y-6505000D02*
X6485000Y-6555000D01*
X6705000Y-4725000D02*
X6755000Y-4775000D01*
X6755000Y-4725000D02*
X6705000Y-4775000D01*
X6705000Y-4805000D02*
X6755000Y-4855000D01*
X6755000Y-4805000D02*
X6705000Y-4855000D01*
X6705000Y-4885000D02*
X6755000Y-4935000D01*
X6755000Y-4885000D02*
X6705000Y-4935000D01*
X6705000Y-4965000D02*
X6755000Y-5015000D01*
X6755000Y-4965000D02*
X6705000Y-5015000D01*
X6705000Y-5045000D02*
X6755000Y-5095000D01*
X6755000Y-5045000D02*
X6705000Y-5095000D01*
X6705000Y-5125000D02*
X6755000Y-5175000D01*
X6755000Y-5125000D02*
X6705000Y-5175000D01*
X6705000Y-6105000D02*
X6755000Y-6155000D01*
X6755000Y-6105000D02*
X6705000Y-6155000D01*
X6705000Y-6185000D02*
X6755000Y-6235000D01*
X6755000Y-6185000D02*
X6705000Y-6235000D01*
X6705000Y-6265000D02*
X6755000Y-6315000D01*
X6755000Y-6265000D02*
X6705000Y-6315000D01*
X6705000Y-6345000D02*
X6755000Y-6395000D01*
X6755000Y-6345000D02*
X6705000Y-6395000D01*
X6705000Y-6425000D02*
X6755000Y-6475000D01*
X6755000Y-6425000D02*
X6705000Y-6475000D01*
X6705000Y-6505000D02*
X6755000Y-6555000D01*
X6755000Y-6505000D02*
X6705000Y-6555000D01*
D11*
X5655777Y-7006484D02*
X5655777Y-6806484D01*
X5655777Y-6806484D02*
X5703396Y-6806484D01*
X5703396Y-6806484D02*
X5731967Y-6816008D01*
X5731967Y-6816008D02*
X5751015Y-6835055D01*
X5751015Y-6835055D02*
X5760539Y-6854103D01*
X5760539Y-6854103D02*
X5770062Y-6892198D01*
X5770062Y-6892198D02*
X5770062Y-6920769D01*
X5770062Y-6920769D02*
X5760539Y-6958865D01*
X5760539Y-6958865D02*
X5751015Y-6977912D01*
X5751015Y-6977912D02*
X5731967Y-6996960D01*
X5731967Y-6996960D02*
X5703396Y-7006484D01*
X5703396Y-7006484D02*
X5655777Y-7006484D01*
X5855777Y-7006484D02*
X5855777Y-6873150D01*
X5855777Y-6911246D02*
X5865301Y-6892198D01*
X5865301Y-6892198D02*
X5874824Y-6882674D01*
X5874824Y-6882674D02*
X5893872Y-6873150D01*
X5893872Y-6873150D02*
X5912920Y-6873150D01*
X5979586Y-7006484D02*
X5979586Y-6873150D01*
X5979586Y-6806484D02*
X5970062Y-6816008D01*
X5970062Y-6816008D02*
X5979586Y-6825531D01*
X5979586Y-6825531D02*
X5989110Y-6816008D01*
X5989110Y-6816008D02*
X5979586Y-6806484D01*
X5979586Y-6806484D02*
X5979586Y-6825531D01*
X6103396Y-7006484D02*
X6084348Y-6996960D01*
X6084348Y-6996960D02*
X6074824Y-6977912D01*
X6074824Y-6977912D02*
X6074824Y-6806484D01*
X6208158Y-7006484D02*
X6189110Y-6996960D01*
X6189110Y-6996960D02*
X6179586Y-6977912D01*
X6179586Y-6977912D02*
X6179586Y-6806484D01*
X6436729Y-7006484D02*
X6436729Y-6806484D01*
X6436729Y-6806484D02*
X6503396Y-6949341D01*
X6503396Y-6949341D02*
X6570062Y-6806484D01*
X6570062Y-6806484D02*
X6570062Y-7006484D01*
X6751015Y-7006484D02*
X6751015Y-6901722D01*
X6751015Y-6901722D02*
X6741491Y-6882674D01*
X6741491Y-6882674D02*
X6722443Y-6873150D01*
X6722443Y-6873150D02*
X6684348Y-6873150D01*
X6684348Y-6873150D02*
X6665301Y-6882674D01*
X6751015Y-6996960D02*
X6731967Y-7006484D01*
X6731967Y-7006484D02*
X6684348Y-7006484D01*
X6684348Y-7006484D02*
X6665301Y-6996960D01*
X6665301Y-6996960D02*
X6655777Y-6977912D01*
X6655777Y-6977912D02*
X6655777Y-6958865D01*
X6655777Y-6958865D02*
X6665301Y-6939817D01*
X6665301Y-6939817D02*
X6684348Y-6930293D01*
X6684348Y-6930293D02*
X6731967Y-6930293D01*
X6731967Y-6930293D02*
X6751015Y-6920769D01*
X6846253Y-6873150D02*
X6846253Y-7073150D01*
X6846253Y-6882674D02*
X6865301Y-6873150D01*
X6865301Y-6873150D02*
X6903396Y-6873150D01*
X6903396Y-6873150D02*
X6922443Y-6882674D01*
X6922443Y-6882674D02*
X6931967Y-6892198D01*
X6931967Y-6892198D02*
X6941491Y-6911246D01*
X6941491Y-6911246D02*
X6941491Y-6968388D01*
X6941491Y-6968388D02*
X6931967Y-6987436D01*
X6931967Y-6987436D02*
X6922443Y-6996960D01*
X6922443Y-6996960D02*
X6903396Y-7006484D01*
X6903396Y-7006484D02*
X6865301Y-7006484D01*
X6865301Y-7006484D02*
X6846253Y-6996960D01*
X7027205Y-6987436D02*
X7036729Y-6996960D01*
X7036729Y-6996960D02*
X7027205Y-7006484D01*
X7027205Y-7006484D02*
X7017682Y-6996960D01*
X7017682Y-6996960D02*
X7027205Y-6987436D01*
X7027205Y-6987436D02*
X7027205Y-7006484D01*
X7027205Y-6882674D02*
X7036729Y-6892198D01*
X7036729Y-6892198D02*
X7027205Y-6901722D01*
X7027205Y-6901722D02*
X7017682Y-6892198D01*
X7017682Y-6892198D02*
X7027205Y-6882674D01*
X7027205Y-6882674D02*
X7027205Y-6901722D01*
D10*
X5345000Y-7310000D02*
X5395000Y-7360000D01*
X5395000Y-7310000D02*
X5345000Y-7360000D01*
D11*
X5693872Y-7226484D02*
X5712920Y-7226484D01*
X5712920Y-7226484D02*
X5731967Y-7236008D01*
X5731967Y-7236008D02*
X5741491Y-7245531D01*
X5741491Y-7245531D02*
X5751015Y-7264579D01*
X5751015Y-7264579D02*
X5760539Y-7302674D01*
X5760539Y-7302674D02*
X5760539Y-7350293D01*
X5760539Y-7350293D02*
X5751015Y-7388388D01*
X5751015Y-7388388D02*
X5741491Y-7407436D01*
X5741491Y-7407436D02*
X5731967Y-7416960D01*
X5731967Y-7416960D02*
X5712920Y-7426484D01*
X5712920Y-7426484D02*
X5693872Y-7426484D01*
X5693872Y-7426484D02*
X5674824Y-7416960D01*
X5674824Y-7416960D02*
X5665301Y-7407436D01*
X5665301Y-7407436D02*
X5655777Y-7388388D01*
X5655777Y-7388388D02*
X5646253Y-7350293D01*
X5646253Y-7350293D02*
X5646253Y-7302674D01*
X5646253Y-7302674D02*
X5655777Y-7264579D01*
X5655777Y-7264579D02*
X5665301Y-7245531D01*
X5665301Y-7245531D02*
X5674824Y-7236008D01*
X5674824Y-7236008D02*
X5693872Y-7226484D01*
X5846253Y-7407436D02*
X5855777Y-7416960D01*
X5855777Y-7416960D02*
X5846253Y-7426484D01*
X5846253Y-7426484D02*
X5836729Y-7416960D01*
X5836729Y-7416960D02*
X5846253Y-7407436D01*
X5846253Y-7407436D02*
X5846253Y-7426484D01*
X6036729Y-7226484D02*
X5941491Y-7226484D01*
X5941491Y-7226484D02*
X5931967Y-7321722D01*
X5931967Y-7321722D02*
X5941491Y-7312198D01*
X5941491Y-7312198D02*
X5960539Y-7302674D01*
X5960539Y-7302674D02*
X6008158Y-7302674D01*
X6008158Y-7302674D02*
X6027205Y-7312198D01*
X6027205Y-7312198D02*
X6036729Y-7321722D01*
X6036729Y-7321722D02*
X6046253Y-7340769D01*
X6046253Y-7340769D02*
X6046253Y-7388388D01*
X6046253Y-7388388D02*
X6036729Y-7407436D01*
X6036729Y-7407436D02*
X6027205Y-7416960D01*
X6027205Y-7416960D02*
X6008158Y-7426484D01*
X6008158Y-7426484D02*
X5960539Y-7426484D01*
X5960539Y-7426484D02*
X5941491Y-7416960D01*
X5941491Y-7416960D02*
X5931967Y-7407436D01*
X6170062Y-7226484D02*
X6189110Y-7226484D01*
X6189110Y-7226484D02*
X6208158Y-7236008D01*
X6208158Y-7236008D02*
X6217682Y-7245531D01*
X6217682Y-7245531D02*
X6227205Y-7264579D01*
X6227205Y-7264579D02*
X6236729Y-7302674D01*
X6236729Y-7302674D02*
X6236729Y-7350293D01*
X6236729Y-7350293D02*
X6227205Y-7388388D01*
X6227205Y-7388388D02*
X6217682Y-7407436D01*
X6217682Y-7407436D02*
X6208158Y-7416960D01*
X6208158Y-7416960D02*
X6189110Y-7426484D01*
X6189110Y-7426484D02*
X6170062Y-7426484D01*
X6170062Y-7426484D02*
X6151015Y-7416960D01*
X6151015Y-7416960D02*
X6141491Y-7407436D01*
X6141491Y-7407436D02*
X6131967Y-7388388D01*
X6131967Y-7388388D02*
X6122443Y-7350293D01*
X6122443Y-7350293D02*
X6122443Y-7302674D01*
X6122443Y-7302674D02*
X6131967Y-7264579D01*
X6131967Y-7264579D02*
X6141491Y-7245531D01*
X6141491Y-7245531D02*
X6151015Y-7236008D01*
X6151015Y-7236008D02*
X6170062Y-7226484D01*
X6360539Y-7226484D02*
X6379586Y-7226484D01*
X6379586Y-7226484D02*
X6398634Y-7236008D01*
X6398634Y-7236008D02*
X6408158Y-7245531D01*
X6408158Y-7245531D02*
X6417682Y-7264579D01*
X6417682Y-7264579D02*
X6427205Y-7302674D01*
X6427205Y-7302674D02*
X6427205Y-7350293D01*
X6427205Y-7350293D02*
X6417682Y-7388388D01*
X6417682Y-7388388D02*
X6408158Y-7407436D01*
X6408158Y-7407436D02*
X6398634Y-7416960D01*
X6398634Y-7416960D02*
X6379586Y-7426484D01*
X6379586Y-7426484D02*
X6360539Y-7426484D01*
X6360539Y-7426484D02*
X6341491Y-7416960D01*
X6341491Y-7416960D02*
X6331967Y-7407436D01*
X6331967Y-7407436D02*
X6322443Y-7388388D01*
X6322443Y-7388388D02*
X6312920Y-7350293D01*
X6312920Y-7350293D02*
X6312920Y-7302674D01*
X6312920Y-7302674D02*
X6322443Y-7264579D01*
X6322443Y-7264579D02*
X6331967Y-7245531D01*
X6331967Y-7245531D02*
X6341491Y-7236008D01*
X6341491Y-7236008D02*
X6360539Y-7226484D01*
X6512920Y-7426484D02*
X6512920Y-7293150D01*
X6512920Y-7312198D02*
X6522443Y-7302674D01*
X6522443Y-7302674D02*
X6541491Y-7293150D01*
X6541491Y-7293150D02*
X6570063Y-7293150D01*
X6570063Y-7293150D02*
X6589110Y-7302674D01*
X6589110Y-7302674D02*
X6598634Y-7321722D01*
X6598634Y-7321722D02*
X6598634Y-7426484D01*
X6598634Y-7321722D02*
X6608158Y-7302674D01*
X6608158Y-7302674D02*
X6627205Y-7293150D01*
X6627205Y-7293150D02*
X6655777Y-7293150D01*
X6655777Y-7293150D02*
X6674824Y-7302674D01*
X6674824Y-7302674D02*
X6684348Y-7321722D01*
X6684348Y-7321722D02*
X6684348Y-7426484D01*
X6779586Y-7426484D02*
X6779586Y-7293150D01*
X6779586Y-7312198D02*
X6789110Y-7302674D01*
X6789110Y-7302674D02*
X6808158Y-7293150D01*
X6808158Y-7293150D02*
X6836729Y-7293150D01*
X6836729Y-7293150D02*
X6855777Y-7302674D01*
X6855777Y-7302674D02*
X6865301Y-7321722D01*
X6865301Y-7321722D02*
X6865301Y-7426484D01*
X6865301Y-7321722D02*
X6874824Y-7302674D01*
X6874824Y-7302674D02*
X6893872Y-7293150D01*
X6893872Y-7293150D02*
X6922443Y-7293150D01*
X6922443Y-7293150D02*
X6941491Y-7302674D01*
X6941491Y-7302674D02*
X6951015Y-7321722D01*
X6951015Y-7321722D02*
X6951015Y-7426484D01*
X7341491Y-7216960D02*
X7170063Y-7474103D01*
X7598634Y-7226484D02*
X7617682Y-7226484D01*
X7617682Y-7226484D02*
X7636729Y-7236008D01*
X7636729Y-7236008D02*
X7646253Y-7245531D01*
X7646253Y-7245531D02*
X7655777Y-7264579D01*
X7655777Y-7264579D02*
X7665301Y-7302674D01*
X7665301Y-7302674D02*
X7665301Y-7350293D01*
X7665301Y-7350293D02*
X7655777Y-7388388D01*
X7655777Y-7388388D02*
X7646253Y-7407436D01*
X7646253Y-7407436D02*
X7636729Y-7416960D01*
X7636729Y-7416960D02*
X7617682Y-7426484D01*
X7617682Y-7426484D02*
X7598634Y-7426484D01*
X7598634Y-7426484D02*
X7579586Y-7416960D01*
X7579586Y-7416960D02*
X7570063Y-7407436D01*
X7570063Y-7407436D02*
X7560539Y-7388388D01*
X7560539Y-7388388D02*
X7551015Y-7350293D01*
X7551015Y-7350293D02*
X7551015Y-7302674D01*
X7551015Y-7302674D02*
X7560539Y-7264579D01*
X7560539Y-7264579D02*
X7570063Y-7245531D01*
X7570063Y-7245531D02*
X7579586Y-7236008D01*
X7579586Y-7236008D02*
X7598634Y-7226484D01*
X7751015Y-7407436D02*
X7760539Y-7416960D01*
X7760539Y-7416960D02*
X7751015Y-7426484D01*
X7751015Y-7426484D02*
X7741491Y-7416960D01*
X7741491Y-7416960D02*
X7751015Y-7407436D01*
X7751015Y-7407436D02*
X7751015Y-7426484D01*
X7884348Y-7226484D02*
X7903396Y-7226484D01*
X7903396Y-7226484D02*
X7922444Y-7236008D01*
X7922444Y-7236008D02*
X7931967Y-7245531D01*
X7931967Y-7245531D02*
X7941491Y-7264579D01*
X7941491Y-7264579D02*
X7951015Y-7302674D01*
X7951015Y-7302674D02*
X7951015Y-7350293D01*
X7951015Y-7350293D02*
X7941491Y-7388388D01*
X7941491Y-7388388D02*
X7931967Y-7407436D01*
X7931967Y-7407436D02*
X7922444Y-7416960D01*
X7922444Y-7416960D02*
X7903396Y-7426484D01*
X7903396Y-7426484D02*
X7884348Y-7426484D01*
X7884348Y-7426484D02*
X7865301Y-7416960D01*
X7865301Y-7416960D02*
X7855777Y-7407436D01*
X7855777Y-7407436D02*
X7846253Y-7388388D01*
X7846253Y-7388388D02*
X7836729Y-7350293D01*
X7836729Y-7350293D02*
X7836729Y-7302674D01*
X7836729Y-7302674D02*
X7846253Y-7264579D01*
X7846253Y-7264579D02*
X7855777Y-7245531D01*
X7855777Y-7245531D02*
X7865301Y-7236008D01*
X7865301Y-7236008D02*
X7884348Y-7226484D01*
X8141491Y-7426484D02*
X8027206Y-7426484D01*
X8084348Y-7426484D02*
X8084348Y-7226484D01*
X8084348Y-7226484D02*
X8065301Y-7255055D01*
X8065301Y-7255055D02*
X8046253Y-7274103D01*
X8046253Y-7274103D02*
X8027206Y-7283627D01*
X8236729Y-7426484D02*
X8274825Y-7426484D01*
X8274825Y-7426484D02*
X8293872Y-7416960D01*
X8293872Y-7416960D02*
X8303396Y-7407436D01*
X8303396Y-7407436D02*
X8322444Y-7378865D01*
X8322444Y-7378865D02*
X8331967Y-7340769D01*
X8331967Y-7340769D02*
X8331967Y-7264579D01*
X8331967Y-7264579D02*
X8322444Y-7245531D01*
X8322444Y-7245531D02*
X8312920Y-7236008D01*
X8312920Y-7236008D02*
X8293872Y-7226484D01*
X8293872Y-7226484D02*
X8255777Y-7226484D01*
X8255777Y-7226484D02*
X8236729Y-7236008D01*
X8236729Y-7236008D02*
X8227206Y-7245531D01*
X8227206Y-7245531D02*
X8217682Y-7264579D01*
X8217682Y-7264579D02*
X8217682Y-7312198D01*
X8217682Y-7312198D02*
X8227206Y-7331246D01*
X8227206Y-7331246D02*
X8236729Y-7340769D01*
X8236729Y-7340769D02*
X8255777Y-7350293D01*
X8255777Y-7350293D02*
X8293872Y-7350293D01*
X8293872Y-7350293D02*
X8312920Y-7340769D01*
X8312920Y-7340769D02*
X8322444Y-7331246D01*
X8322444Y-7331246D02*
X8331967Y-7312198D01*
X8398634Y-7226484D02*
X8531968Y-7226484D01*
X8531968Y-7226484D02*
X8446253Y-7426484D01*
X8598634Y-7226484D02*
X8598634Y-7264579D01*
X8674825Y-7226484D02*
X8674825Y-7264579D01*
X8970063Y-7502674D02*
X8960539Y-7493150D01*
X8960539Y-7493150D02*
X8941491Y-7464579D01*
X8941491Y-7464579D02*
X8931968Y-7445531D01*
X8931968Y-7445531D02*
X8922444Y-7416960D01*
X8922444Y-7416960D02*
X8912920Y-7369341D01*
X8912920Y-7369341D02*
X8912920Y-7331246D01*
X8912920Y-7331246D02*
X8922444Y-7283627D01*
X8922444Y-7283627D02*
X8931968Y-7255055D01*
X8931968Y-7255055D02*
X8941491Y-7236008D01*
X8941491Y-7236008D02*
X8960539Y-7207436D01*
X8960539Y-7207436D02*
X8970063Y-7197912D01*
X9036730Y-7245531D02*
X9046253Y-7236008D01*
X9046253Y-7236008D02*
X9065301Y-7226484D01*
X9065301Y-7226484D02*
X9112920Y-7226484D01*
X9112920Y-7226484D02*
X9131968Y-7236008D01*
X9131968Y-7236008D02*
X9141491Y-7245531D01*
X9141491Y-7245531D02*
X9151015Y-7264579D01*
X9151015Y-7264579D02*
X9151015Y-7283627D01*
X9151015Y-7283627D02*
X9141491Y-7312198D01*
X9141491Y-7312198D02*
X9027206Y-7426484D01*
X9027206Y-7426484D02*
X9151015Y-7426484D01*
X9322444Y-7293150D02*
X9322444Y-7426484D01*
X9274825Y-7216960D02*
X9227206Y-7359817D01*
X9227206Y-7359817D02*
X9351015Y-7359817D01*
X9579587Y-7426484D02*
X9579587Y-7226484D01*
X9665301Y-7426484D02*
X9665301Y-7321722D01*
X9665301Y-7321722D02*
X9655777Y-7302674D01*
X9655777Y-7302674D02*
X9636730Y-7293150D01*
X9636730Y-7293150D02*
X9608158Y-7293150D01*
X9608158Y-7293150D02*
X9589111Y-7302674D01*
X9589111Y-7302674D02*
X9579587Y-7312198D01*
X9789111Y-7426484D02*
X9770063Y-7416960D01*
X9770063Y-7416960D02*
X9760539Y-7407436D01*
X9760539Y-7407436D02*
X9751015Y-7388388D01*
X9751015Y-7388388D02*
X9751015Y-7331246D01*
X9751015Y-7331246D02*
X9760539Y-7312198D01*
X9760539Y-7312198D02*
X9770063Y-7302674D01*
X9770063Y-7302674D02*
X9789111Y-7293150D01*
X9789111Y-7293150D02*
X9817682Y-7293150D01*
X9817682Y-7293150D02*
X9836730Y-7302674D01*
X9836730Y-7302674D02*
X9846253Y-7312198D01*
X9846253Y-7312198D02*
X9855777Y-7331246D01*
X9855777Y-7331246D02*
X9855777Y-7388388D01*
X9855777Y-7388388D02*
X9846253Y-7407436D01*
X9846253Y-7407436D02*
X9836730Y-7416960D01*
X9836730Y-7416960D02*
X9817682Y-7426484D01*
X9817682Y-7426484D02*
X9789111Y-7426484D01*
X9970063Y-7426484D02*
X9951015Y-7416960D01*
X9951015Y-7416960D02*
X9941492Y-7397912D01*
X9941492Y-7397912D02*
X9941492Y-7226484D01*
X10122444Y-7416960D02*
X10103396Y-7426484D01*
X10103396Y-7426484D02*
X10065301Y-7426484D01*
X10065301Y-7426484D02*
X10046253Y-7416960D01*
X10046253Y-7416960D02*
X10036730Y-7397912D01*
X10036730Y-7397912D02*
X10036730Y-7321722D01*
X10036730Y-7321722D02*
X10046253Y-7302674D01*
X10046253Y-7302674D02*
X10065301Y-7293150D01*
X10065301Y-7293150D02*
X10103396Y-7293150D01*
X10103396Y-7293150D02*
X10122444Y-7302674D01*
X10122444Y-7302674D02*
X10131968Y-7321722D01*
X10131968Y-7321722D02*
X10131968Y-7340769D01*
X10131968Y-7340769D02*
X10036730Y-7359817D01*
X10208158Y-7416960D02*
X10227206Y-7426484D01*
X10227206Y-7426484D02*
X10265301Y-7426484D01*
X10265301Y-7426484D02*
X10284349Y-7416960D01*
X10284349Y-7416960D02*
X10293873Y-7397912D01*
X10293873Y-7397912D02*
X10293873Y-7388388D01*
X10293873Y-7388388D02*
X10284349Y-7369341D01*
X10284349Y-7369341D02*
X10265301Y-7359817D01*
X10265301Y-7359817D02*
X10236730Y-7359817D01*
X10236730Y-7359817D02*
X10217682Y-7350293D01*
X10217682Y-7350293D02*
X10208158Y-7331246D01*
X10208158Y-7331246D02*
X10208158Y-7321722D01*
X10208158Y-7321722D02*
X10217682Y-7302674D01*
X10217682Y-7302674D02*
X10236730Y-7293150D01*
X10236730Y-7293150D02*
X10265301Y-7293150D01*
X10265301Y-7293150D02*
X10284349Y-7302674D01*
X10360539Y-7502674D02*
X10370063Y-7493150D01*
X10370063Y-7493150D02*
X10389111Y-7464579D01*
X10389111Y-7464579D02*
X10398634Y-7445531D01*
X10398634Y-7445531D02*
X10408158Y-7416960D01*
X10408158Y-7416960D02*
X10417682Y-7369341D01*
X10417682Y-7369341D02*
X10417682Y-7331246D01*
X10417682Y-7331246D02*
X10408158Y-7283627D01*
X10408158Y-7283627D02*
X10398634Y-7255055D01*
X10398634Y-7255055D02*
X10389111Y-7236008D01*
X10389111Y-7236008D02*
X10370063Y-7207436D01*
X10370063Y-7207436D02*
X10360539Y-7197912D01*
X10722444Y-7502674D02*
X10712920Y-7493150D01*
X10712920Y-7493150D02*
X10693873Y-7464579D01*
X10693873Y-7464579D02*
X10684349Y-7445531D01*
X10684349Y-7445531D02*
X10674825Y-7416960D01*
X10674825Y-7416960D02*
X10665301Y-7369341D01*
X10665301Y-7369341D02*
X10665301Y-7331246D01*
X10665301Y-7331246D02*
X10674825Y-7283627D01*
X10674825Y-7283627D02*
X10684349Y-7255055D01*
X10684349Y-7255055D02*
X10693873Y-7236008D01*
X10693873Y-7236008D02*
X10712920Y-7207436D01*
X10712920Y-7207436D02*
X10722444Y-7197912D01*
X10798634Y-7293150D02*
X10798634Y-7426484D01*
X10798634Y-7312198D02*
X10808158Y-7302674D01*
X10808158Y-7302674D02*
X10827206Y-7293150D01*
X10827206Y-7293150D02*
X10855777Y-7293150D01*
X10855777Y-7293150D02*
X10874825Y-7302674D01*
X10874825Y-7302674D02*
X10884349Y-7321722D01*
X10884349Y-7321722D02*
X10884349Y-7426484D01*
X11008158Y-7426484D02*
X10989111Y-7416960D01*
X10989111Y-7416960D02*
X10979587Y-7407436D01*
X10979587Y-7407436D02*
X10970063Y-7388388D01*
X10970063Y-7388388D02*
X10970063Y-7331246D01*
X10970063Y-7331246D02*
X10979587Y-7312198D01*
X10979587Y-7312198D02*
X10989111Y-7302674D01*
X10989111Y-7302674D02*
X11008158Y-7293150D01*
X11008158Y-7293150D02*
X11036730Y-7293150D01*
X11036730Y-7293150D02*
X11055777Y-7302674D01*
X11055777Y-7302674D02*
X11065301Y-7312198D01*
X11065301Y-7312198D02*
X11074825Y-7331246D01*
X11074825Y-7331246D02*
X11074825Y-7388388D01*
X11074825Y-7388388D02*
X11065301Y-7407436D01*
X11065301Y-7407436D02*
X11055777Y-7416960D01*
X11055777Y-7416960D02*
X11036730Y-7426484D01*
X11036730Y-7426484D02*
X11008158Y-7426484D01*
X11131968Y-7293150D02*
X11208158Y-7293150D01*
X11160539Y-7226484D02*
X11160539Y-7397912D01*
X11160539Y-7397912D02*
X11170063Y-7416960D01*
X11170063Y-7416960D02*
X11189111Y-7426484D01*
X11189111Y-7426484D02*
X11208158Y-7426484D01*
X11427206Y-7293150D02*
X11427206Y-7493150D01*
X11427206Y-7302674D02*
X11446253Y-7293150D01*
X11446253Y-7293150D02*
X11484349Y-7293150D01*
X11484349Y-7293150D02*
X11503396Y-7302674D01*
X11503396Y-7302674D02*
X11512920Y-7312198D01*
X11512920Y-7312198D02*
X11522444Y-7331246D01*
X11522444Y-7331246D02*
X11522444Y-7388388D01*
X11522444Y-7388388D02*
X11512920Y-7407436D01*
X11512920Y-7407436D02*
X11503396Y-7416960D01*
X11503396Y-7416960D02*
X11484349Y-7426484D01*
X11484349Y-7426484D02*
X11446253Y-7426484D01*
X11446253Y-7426484D02*
X11427206Y-7416960D01*
X11636730Y-7426484D02*
X11617682Y-7416960D01*
X11617682Y-7416960D02*
X11608158Y-7397912D01*
X11608158Y-7397912D02*
X11608158Y-7226484D01*
X11798634Y-7426484D02*
X11798634Y-7321722D01*
X11798634Y-7321722D02*
X11789111Y-7302674D01*
X11789111Y-7302674D02*
X11770063Y-7293150D01*
X11770063Y-7293150D02*
X11731968Y-7293150D01*
X11731968Y-7293150D02*
X11712920Y-7302674D01*
X11798634Y-7416960D02*
X11779587Y-7426484D01*
X11779587Y-7426484D02*
X11731968Y-7426484D01*
X11731968Y-7426484D02*
X11712920Y-7416960D01*
X11712920Y-7416960D02*
X11703396Y-7397912D01*
X11703396Y-7397912D02*
X11703396Y-7378865D01*
X11703396Y-7378865D02*
X11712920Y-7359817D01*
X11712920Y-7359817D02*
X11731968Y-7350293D01*
X11731968Y-7350293D02*
X11779587Y-7350293D01*
X11779587Y-7350293D02*
X11798634Y-7340769D01*
X11865301Y-7293150D02*
X11941492Y-7293150D01*
X11893873Y-7226484D02*
X11893873Y-7397912D01*
X11893873Y-7397912D02*
X11903396Y-7416960D01*
X11903396Y-7416960D02*
X11922444Y-7426484D01*
X11922444Y-7426484D02*
X11941492Y-7426484D01*
X12084349Y-7416960D02*
X12065301Y-7426484D01*
X12065301Y-7426484D02*
X12027206Y-7426484D01*
X12027206Y-7426484D02*
X12008158Y-7416960D01*
X12008158Y-7416960D02*
X11998634Y-7397912D01*
X11998634Y-7397912D02*
X11998634Y-7321722D01*
X11998634Y-7321722D02*
X12008158Y-7302674D01*
X12008158Y-7302674D02*
X12027206Y-7293150D01*
X12027206Y-7293150D02*
X12065301Y-7293150D01*
X12065301Y-7293150D02*
X12084349Y-7302674D01*
X12084349Y-7302674D02*
X12093873Y-7321722D01*
X12093873Y-7321722D02*
X12093873Y-7340769D01*
X12093873Y-7340769D02*
X11998634Y-7359817D01*
X12265301Y-7426484D02*
X12265301Y-7226484D01*
X12265301Y-7416960D02*
X12246254Y-7426484D01*
X12246254Y-7426484D02*
X12208158Y-7426484D01*
X12208158Y-7426484D02*
X12189111Y-7416960D01*
X12189111Y-7416960D02*
X12179587Y-7407436D01*
X12179587Y-7407436D02*
X12170063Y-7388388D01*
X12170063Y-7388388D02*
X12170063Y-7331246D01*
X12170063Y-7331246D02*
X12179587Y-7312198D01*
X12179587Y-7312198D02*
X12189111Y-7302674D01*
X12189111Y-7302674D02*
X12208158Y-7293150D01*
X12208158Y-7293150D02*
X12246254Y-7293150D01*
X12246254Y-7293150D02*
X12265301Y-7302674D01*
X12341492Y-7502674D02*
X12351015Y-7493150D01*
X12351015Y-7493150D02*
X12370063Y-7464579D01*
X12370063Y-7464579D02*
X12379587Y-7445531D01*
X12379587Y-7445531D02*
X12389111Y-7416960D01*
X12389111Y-7416960D02*
X12398634Y-7369341D01*
X12398634Y-7369341D02*
X12398634Y-7331246D01*
X12398634Y-7331246D02*
X12389111Y-7283627D01*
X12389111Y-7283627D02*
X12379587Y-7255055D01*
X12379587Y-7255055D02*
X12370063Y-7236008D01*
X12370063Y-7236008D02*
X12351015Y-7207436D01*
X12351015Y-7207436D02*
X12341492Y-7197912D01*
M02*
