M48
; DRILL file {KiCad 7.0.11} date Wed Oct 23 23:44:56 2024
; FORMAT={-:-/ absolute / metric / decimal}
; #@! TF.CreationDate,2024-10-23T23:44:56+03:00
; #@! TF.GenerationSoftware,Kicad,Pcbnew,7.0.11
; #@! TF.FileFunction,NonPlated,1,2,NPTH
FMAT,2
METRIC
; #@! TA.AperFunction,NonPlated,NPTH,ComponentDrill
T1C0.500
%
G90
G05
T1
X65.1Y-47.5
X65.1Y-48.3
X65.1Y-49.1
X65.1Y-49.9
X65.1Y-50.7
X65.1Y-51.5
X65.1Y-61.3
X65.1Y-62.1
X65.1Y-62.9
X65.1Y-63.7
X65.1Y-64.5
X65.1Y-65.3
X67.3Y-47.5
X67.3Y-48.3
X67.3Y-49.1
X67.3Y-49.9
X67.3Y-50.7
X67.3Y-51.5
X67.3Y-61.3
X67.3Y-62.1
X67.3Y-62.9
X67.3Y-63.7
X67.3Y-64.5
X67.3Y-65.3
X78.8Y-47.5
X78.8Y-48.3
X78.8Y-49.1
X78.8Y-49.9
X78.8Y-50.7
X78.8Y-51.5
X78.8Y-61.3
X78.8Y-62.1
X78.8Y-62.9
X78.8Y-63.7
X78.8Y-64.5
X78.8Y-65.3
X81.0Y-47.5
X81.0Y-48.3
X81.0Y-49.1
X81.0Y-49.9
X81.0Y-50.7
X81.0Y-51.5
X81.0Y-61.3
X81.0Y-62.1
X81.0Y-62.9
X81.0Y-63.7
X81.0Y-64.5
X81.0Y-65.3
X92.5Y-47.5
X92.5Y-48.3
X92.5Y-49.1
X92.5Y-49.9
X92.5Y-50.7
X92.5Y-51.5
X92.5Y-61.3
X92.5Y-62.1
X92.5Y-62.9
X92.5Y-63.7
X92.5Y-64.5
X92.5Y-65.3
X94.7Y-47.5
X94.7Y-48.3
X94.7Y-49.1
X94.7Y-49.9
X94.7Y-50.7
X94.7Y-51.5
X94.7Y-61.3
X94.7Y-62.1
X94.7Y-62.9
X94.7Y-63.7
X94.7Y-64.5
X94.7Y-65.3
X106.2Y-47.5
X106.2Y-48.3
X106.2Y-49.1
X106.2Y-49.9
X106.2Y-50.7
X106.2Y-51.5
X106.2Y-61.3
X106.2Y-62.1
X106.2Y-62.9
X106.2Y-63.7
X106.2Y-64.5
X106.2Y-65.3
X108.4Y-47.5
X108.4Y-48.3
X108.4Y-49.1
X108.4Y-49.9
X108.4Y-50.7
X108.4Y-51.5
X108.4Y-61.3
X108.4Y-62.1
X108.4Y-62.9
X108.4Y-63.7
X108.4Y-64.5
X108.4Y-65.3
M30
