%TF.GenerationSoftware,KiCad,Pcbnew,7.0.11*%
%TF.CreationDate,2024-05-13T15:30:06+03:00*%
%TF.ProjectId,rndip16,726e6469-7031-4362-9e6b-696361645f70,rev?*%
%TF.SameCoordinates,Original*%
%TF.FileFunction,Copper,L2,Bot*%
%TF.FilePolarity,Positive*%
%FSLAX46Y46*%
G04 Gerber Fmt 4.6, Leading zero omitted, Abs format (unit mm)*
G04 Created by KiCad (PCBNEW 7.0.11) date 2024-05-13 15:30:06*
%MOMM*%
%LPD*%
G01*
G04 APERTURE LIST*
G04 Aperture macros list*
%AMRoundRect*
0 Rectangle with rounded corners*
0 $1 Rounding radius*
0 $2 $3 $4 $5 $6 $7 $8 $9 X,Y pos of 4 corners*
0 Add a 4 corners polygon primitive as box body*
4,1,4,$2,$3,$4,$5,$6,$7,$8,$9,$2,$3,0*
0 Add four circle primitives for the rounded corners*
1,1,$1+$1,$2,$3*
1,1,$1+$1,$4,$5*
1,1,$1+$1,$6,$7*
1,1,$1+$1,$8,$9*
0 Add four rect primitives between the rounded corners*
20,1,$1+$1,$2,$3,$4,$5,0*
20,1,$1+$1,$4,$5,$6,$7,0*
20,1,$1+$1,$6,$7,$8,$9,0*
20,1,$1+$1,$8,$9,$2,$3,0*%
G04 Aperture macros list end*
%TA.AperFunction,ComponentPad*%
%ADD10R,2.400000X1.600000*%
%TD*%
%TA.AperFunction,ComponentPad*%
%ADD11O,2.400000X1.600000*%
%TD*%
%TA.AperFunction,SMDPad,CuDef*%
%ADD12RoundRect,0.250000X0.350000X0.450000X-0.350000X0.450000X-0.350000X-0.450000X0.350000X-0.450000X0*%
%TD*%
%TA.AperFunction,Conductor*%
%ADD13C,0.250000*%
%TD*%
G04 APERTURE END LIST*
D10*
%TO.P,J1,1,Pin_1*%
%TO.N,Net-(J1-Pin_1)*%
X55550000Y-47550000D03*
D11*
%TO.P,J1,2,Pin_2*%
%TO.N,Net-(J1-Pin_2)*%
X55550000Y-50090000D03*
%TO.P,J1,3,Pin_3*%
%TO.N,Net-(J1-Pin_3)*%
X55550000Y-52630000D03*
%TO.P,J1,4,Pin_4*%
%TO.N,Net-(J1-Pin_4)*%
X55550000Y-55170000D03*
%TO.P,J1,5,Pin_5*%
%TO.N,Net-(J1-Pin_5)*%
X55550000Y-57710000D03*
%TO.P,J1,6,Pin_6*%
%TO.N,Net-(J1-Pin_6)*%
X55550000Y-60250000D03*
%TO.P,J1,7,Pin_7*%
%TO.N,Net-(J1-Pin_7)*%
X55550000Y-62790000D03*
%TO.P,J1,8,Pin_8*%
%TO.N,Net-(J1-Pin_8)*%
X55550000Y-65330000D03*
%TO.P,J1,9,Pin_9*%
%TO.N,Net-(J1-Pin_9)*%
X63170000Y-65330000D03*
%TO.P,J1,10,Pin_10*%
%TO.N,Net-(J1-Pin_10)*%
X63170000Y-62790000D03*
%TO.P,J1,11,Pin_11*%
%TO.N,Net-(J1-Pin_11)*%
X63170000Y-60250000D03*
%TO.P,J1,12,Pin_12*%
%TO.N,Net-(J1-Pin_12)*%
X63170000Y-57710000D03*
%TO.P,J1,13,Pin_13*%
%TO.N,Net-(J1-Pin_13)*%
X63170000Y-55170000D03*
%TO.P,J1,14,Pin_14*%
%TO.N,Net-(J1-Pin_14)*%
X63170000Y-52630000D03*
%TO.P,J1,15,Pin_15*%
%TO.N,Net-(J1-Pin_15)*%
X63170000Y-50090000D03*
%TO.P,J1,16,Pin_16*%
%TO.N,Net-(J1-Pin_16)*%
X63170000Y-47550000D03*
%TD*%
D10*
%TO.P,J2,1,Pin_1*%
%TO.N,Net-(J2-Pin_1)*%
X69180000Y-47525000D03*
D11*
%TO.P,J2,2,Pin_2*%
%TO.N,Net-(J2-Pin_2)*%
X69180000Y-50065000D03*
%TO.P,J2,3,Pin_3*%
%TO.N,Net-(J2-Pin_3)*%
X69180000Y-52605000D03*
%TO.P,J2,4,Pin_4*%
%TO.N,Net-(J2-Pin_4)*%
X69180000Y-55145000D03*
%TO.P,J2,5,Pin_5*%
%TO.N,Net-(J2-Pin_5)*%
X69180000Y-57685000D03*
%TO.P,J2,6,Pin_6*%
%TO.N,Net-(J2-Pin_6)*%
X69180000Y-60225000D03*
%TO.P,J2,7,Pin_7*%
%TO.N,Net-(J2-Pin_7)*%
X69180000Y-62765000D03*
%TO.P,J2,8,Pin_8*%
%TO.N,Net-(J2-Pin_8)*%
X69180000Y-65305000D03*
%TO.P,J2,9,Pin_9*%
%TO.N,Net-(J2-Pin_9)*%
X76800000Y-65305000D03*
%TO.P,J2,10,Pin_10*%
%TO.N,Net-(J2-Pin_10)*%
X76800000Y-62765000D03*
%TO.P,J2,11,Pin_11*%
%TO.N,Net-(J2-Pin_11)*%
X76800000Y-60225000D03*
%TO.P,J2,12,Pin_12*%
%TO.N,Net-(J2-Pin_12)*%
X76800000Y-57685000D03*
%TO.P,J2,13,Pin_13*%
%TO.N,Net-(J2-Pin_13)*%
X76800000Y-55145000D03*
%TO.P,J2,14,Pin_14*%
%TO.N,Net-(J2-Pin_14)*%
X76800000Y-52605000D03*
%TO.P,J2,15,Pin_15*%
%TO.N,Net-(J2-Pin_15)*%
X76800000Y-50065000D03*
%TO.P,J2,16,Pin_16*%
%TO.N,Net-(J2-Pin_16)*%
X76800000Y-47525000D03*
%TD*%
D12*
%TO.P,R15,1*%
%TO.N,Net-(J1-Pin_15)*%
X60300000Y-50100000D03*
%TO.P,R15,2*%
%TO.N,Net-(J1-Pin_16)*%
X58300000Y-50100000D03*
%TD*%
%TO.P,R11,1*%
%TO.N,Net-(J1-Pin_11)*%
X60300000Y-60300000D03*
%TO.P,R11,2*%
%TO.N,Net-(J1-Pin_16)*%
X58300000Y-60300000D03*
%TD*%
%TO.P,R10,1*%
%TO.N,Net-(J1-Pin_10)*%
X60300000Y-62800000D03*
%TO.P,R10,2*%
%TO.N,Net-(J1-Pin_16)*%
X58300000Y-62800000D03*
%TD*%
%TO.P,R9,1*%
%TO.N,Net-(J1-Pin_9)*%
X60300000Y-65300000D03*
%TO.P,R9,2*%
%TO.N,Net-(J1-Pin_16)*%
X58300000Y-65300000D03*
%TD*%
%TO.P,R13,1*%
%TO.N,Net-(J1-Pin_13)*%
X60300000Y-55200000D03*
%TO.P,R13,2*%
%TO.N,Net-(J1-Pin_16)*%
X58300000Y-55200000D03*
%TD*%
%TO.P,R12,1*%
%TO.N,Net-(J1-Pin_12)*%
X60300000Y-57700000D03*
%TO.P,R12,2*%
%TO.N,Net-(J1-Pin_16)*%
X58300000Y-57700000D03*
%TD*%
%TO.P,R14,1*%
%TO.N,Net-(J1-Pin_14)*%
X60300000Y-52600000D03*
%TO.P,R14,2*%
%TO.N,Net-(J1-Pin_16)*%
X58300000Y-52600000D03*
%TD*%
D13*
%TO.N,Net-(J1-Pin_16)*%
X58750000Y-47550000D02*
X63170000Y-47550000D01*
X58300000Y-65300000D02*
X58300000Y-62800000D01*
X58300000Y-62800000D02*
X58300000Y-60300000D01*
X58300000Y-50100000D02*
X58300000Y-48000000D01*
X58300000Y-48000000D02*
X58750000Y-47550000D01*
X58300000Y-52600000D02*
X58300000Y-50100000D01*
X58300000Y-55200000D02*
X58300000Y-52600000D01*
X58300000Y-60300000D02*
X58300000Y-57700000D01*
X58300000Y-57700000D02*
X58300000Y-55200000D01*
%TO.N,Net-(J1-Pin_9)*%
X63170000Y-65330000D02*
X60330000Y-65330000D01*
X60330000Y-65330000D02*
X60300000Y-65300000D01*
%TO.N,Net-(J1-Pin_10)*%
X63170000Y-62790000D02*
X60310000Y-62790000D01*
X60310000Y-62790000D02*
X60300000Y-62800000D01*
%TO.N,Net-(J1-Pin_11)*%
X60350000Y-60250000D02*
X60300000Y-60300000D01*
X63170000Y-60250000D02*
X60350000Y-60250000D01*
%TO.N,Net-(J1-Pin_12)*%
X63170000Y-57710000D02*
X60310000Y-57710000D01*
X60310000Y-57710000D02*
X60300000Y-57700000D01*
%TO.N,Net-(J1-Pin_13)*%
X63170000Y-55170000D02*
X60330000Y-55170000D01*
X60330000Y-55170000D02*
X60300000Y-55200000D01*
%TO.N,Net-(J1-Pin_14)*%
X63170000Y-52630000D02*
X60330000Y-52630000D01*
X60330000Y-52630000D02*
X60300000Y-52600000D01*
%TO.N,Net-(J1-Pin_15)*%
X63170000Y-50090000D02*
X60310000Y-50090000D01*
X60310000Y-50090000D02*
X60300000Y-50100000D01*
%TD*%
M02*
