%TF.GenerationSoftware,KiCad,Pcbnew,7.0.11*%
%TF.CreationDate,2024-10-23T23:44:55+03:00*%
%TF.ProjectId,rndip16,726e6469-7031-4362-9e6b-696361645f70,rev?*%
%TF.SameCoordinates,Original*%
%TF.FileFunction,Legend,Bot*%
%TF.FilePolarity,Positive*%
%FSLAX46Y46*%
G04 Gerber Fmt 4.6, Leading zero omitted, Abs format (unit mm)*
G04 Created by KiCad (PCBNEW 7.0.11) date 2024-10-23 23:44:55*
%MOMM*%
%LPD*%
G01*
G04 APERTURE LIST*
%ADD10C,0.125000*%
%ADD11C,0.150000*%
%ADD12C,0.120000*%
G04 APERTURE END LIST*
D10*
X74200087Y-47432690D02*
X74247706Y-47385071D01*
X74247706Y-47385071D02*
X74271516Y-47337452D01*
X74271516Y-47337452D02*
X74295325Y-47242214D01*
X74295325Y-47242214D02*
X74295325Y-47194595D01*
X74295325Y-47194595D02*
X74271516Y-47099357D01*
X74271516Y-47099357D02*
X74247706Y-47051738D01*
X74247706Y-47051738D02*
X74200087Y-47004119D01*
X74200087Y-47004119D02*
X74104849Y-47004119D01*
X74104849Y-47004119D02*
X74057230Y-47051738D01*
X74057230Y-47051738D02*
X74033421Y-47099357D01*
X74033421Y-47099357D02*
X74009611Y-47194595D01*
X74009611Y-47194595D02*
X74009611Y-47242214D01*
X74009611Y-47242214D02*
X74033421Y-47337452D01*
X74033421Y-47337452D02*
X74057230Y-47385071D01*
X74057230Y-47385071D02*
X74104849Y-47432690D01*
X74104849Y-47432690D02*
X74200087Y-47432690D01*
X74200087Y-47432690D02*
X74247706Y-47480309D01*
X74247706Y-47480309D02*
X74271516Y-47527928D01*
X74271516Y-47527928D02*
X74295325Y-47623166D01*
X74295325Y-47623166D02*
X74295325Y-47813642D01*
X74295325Y-47813642D02*
X74271516Y-47908880D01*
X74271516Y-47908880D02*
X74247706Y-47956500D01*
X74247706Y-47956500D02*
X74200087Y-48004119D01*
X74200087Y-48004119D02*
X74104849Y-48004119D01*
X74104849Y-48004119D02*
X74057230Y-47956500D01*
X74057230Y-47956500D02*
X74033421Y-47908880D01*
X74033421Y-47908880D02*
X74009611Y-47813642D01*
X74009611Y-47813642D02*
X74009611Y-47623166D01*
X74009611Y-47623166D02*
X74033421Y-47527928D01*
X74033421Y-47527928D02*
X74057230Y-47480309D01*
X74057230Y-47480309D02*
X74104849Y-47432690D01*
X73795326Y-47623166D02*
X73414374Y-47623166D01*
X73176278Y-48004119D02*
X73176278Y-47337452D01*
X73176278Y-47004119D02*
X73200087Y-47051738D01*
X73200087Y-47051738D02*
X73176278Y-47099357D01*
X73176278Y-47099357D02*
X73152468Y-47051738D01*
X73152468Y-47051738D02*
X73176278Y-47004119D01*
X73176278Y-47004119D02*
X73176278Y-47099357D01*
X72938183Y-47337452D02*
X72938183Y-48004119D01*
X72938183Y-47432690D02*
X72914373Y-47385071D01*
X72914373Y-47385071D02*
X72866754Y-47337452D01*
X72866754Y-47337452D02*
X72795326Y-47337452D01*
X72795326Y-47337452D02*
X72747707Y-47385071D01*
X72747707Y-47385071D02*
X72723897Y-47480309D01*
X72723897Y-47480309D02*
X72723897Y-48004119D01*
X72485802Y-47623166D02*
X72104850Y-47623166D01*
X71604849Y-48004119D02*
X71890563Y-48004119D01*
X71747706Y-48004119D02*
X71747706Y-47004119D01*
X71747706Y-47004119D02*
X71795325Y-47146976D01*
X71795325Y-47146976D02*
X71842944Y-47242214D01*
X71842944Y-47242214D02*
X71890563Y-47289833D01*
X101581287Y-47483490D02*
X101628906Y-47435871D01*
X101628906Y-47435871D02*
X101652716Y-47388252D01*
X101652716Y-47388252D02*
X101676525Y-47293014D01*
X101676525Y-47293014D02*
X101676525Y-47245395D01*
X101676525Y-47245395D02*
X101652716Y-47150157D01*
X101652716Y-47150157D02*
X101628906Y-47102538D01*
X101628906Y-47102538D02*
X101581287Y-47054919D01*
X101581287Y-47054919D02*
X101486049Y-47054919D01*
X101486049Y-47054919D02*
X101438430Y-47102538D01*
X101438430Y-47102538D02*
X101414621Y-47150157D01*
X101414621Y-47150157D02*
X101390811Y-47245395D01*
X101390811Y-47245395D02*
X101390811Y-47293014D01*
X101390811Y-47293014D02*
X101414621Y-47388252D01*
X101414621Y-47388252D02*
X101438430Y-47435871D01*
X101438430Y-47435871D02*
X101486049Y-47483490D01*
X101486049Y-47483490D02*
X101581287Y-47483490D01*
X101581287Y-47483490D02*
X101628906Y-47531109D01*
X101628906Y-47531109D02*
X101652716Y-47578728D01*
X101652716Y-47578728D02*
X101676525Y-47673966D01*
X101676525Y-47673966D02*
X101676525Y-47864442D01*
X101676525Y-47864442D02*
X101652716Y-47959680D01*
X101652716Y-47959680D02*
X101628906Y-48007300D01*
X101628906Y-48007300D02*
X101581287Y-48054919D01*
X101581287Y-48054919D02*
X101486049Y-48054919D01*
X101486049Y-48054919D02*
X101438430Y-48007300D01*
X101438430Y-48007300D02*
X101414621Y-47959680D01*
X101414621Y-47959680D02*
X101390811Y-47864442D01*
X101390811Y-47864442D02*
X101390811Y-47673966D01*
X101390811Y-47673966D02*
X101414621Y-47578728D01*
X101414621Y-47578728D02*
X101438430Y-47531109D01*
X101438430Y-47531109D02*
X101486049Y-47483490D01*
X101176526Y-47673966D02*
X100795574Y-47673966D01*
X100557478Y-48054919D02*
X100557478Y-47388252D01*
X100557478Y-47054919D02*
X100581287Y-47102538D01*
X100581287Y-47102538D02*
X100557478Y-47150157D01*
X100557478Y-47150157D02*
X100533668Y-47102538D01*
X100533668Y-47102538D02*
X100557478Y-47054919D01*
X100557478Y-47054919D02*
X100557478Y-47150157D01*
X100319383Y-47388252D02*
X100319383Y-48054919D01*
X100319383Y-47483490D02*
X100295573Y-47435871D01*
X100295573Y-47435871D02*
X100247954Y-47388252D01*
X100247954Y-47388252D02*
X100176526Y-47388252D01*
X100176526Y-47388252D02*
X100128907Y-47435871D01*
X100128907Y-47435871D02*
X100105097Y-47531109D01*
X100105097Y-47531109D02*
X100105097Y-48054919D01*
X99867002Y-47673966D02*
X99486050Y-47673966D01*
X98986049Y-48054919D02*
X99271763Y-48054919D01*
X99128906Y-48054919D02*
X99128906Y-47054919D01*
X99128906Y-47054919D02*
X99176525Y-47197776D01*
X99176525Y-47197776D02*
X99224144Y-47293014D01*
X99224144Y-47293014D02*
X99271763Y-47340633D01*
X60446011Y-48004119D02*
X60731725Y-48004119D01*
X60588868Y-48004119D02*
X60588868Y-47004119D01*
X60588868Y-47004119D02*
X60636487Y-47146976D01*
X60636487Y-47146976D02*
X60684106Y-47242214D01*
X60684106Y-47242214D02*
X60731725Y-47289833D01*
X59993631Y-47004119D02*
X60231726Y-47004119D01*
X60231726Y-47004119D02*
X60255535Y-47480309D01*
X60255535Y-47480309D02*
X60231726Y-47432690D01*
X60231726Y-47432690D02*
X60184107Y-47385071D01*
X60184107Y-47385071D02*
X60065059Y-47385071D01*
X60065059Y-47385071D02*
X60017440Y-47432690D01*
X60017440Y-47432690D02*
X59993631Y-47480309D01*
X59993631Y-47480309D02*
X59969821Y-47575547D01*
X59969821Y-47575547D02*
X59969821Y-47813642D01*
X59969821Y-47813642D02*
X59993631Y-47908880D01*
X59993631Y-47908880D02*
X60017440Y-47956500D01*
X60017440Y-47956500D02*
X60065059Y-48004119D01*
X60065059Y-48004119D02*
X60184107Y-48004119D01*
X60184107Y-48004119D02*
X60231726Y-47956500D01*
X60231726Y-47956500D02*
X60255535Y-47908880D01*
X59755536Y-47623166D02*
X59374584Y-47623166D01*
X59136488Y-48004119D02*
X59136488Y-47337452D01*
X59136488Y-47004119D02*
X59160297Y-47051738D01*
X59160297Y-47051738D02*
X59136488Y-47099357D01*
X59136488Y-47099357D02*
X59112678Y-47051738D01*
X59112678Y-47051738D02*
X59136488Y-47004119D01*
X59136488Y-47004119D02*
X59136488Y-47099357D01*
X58898393Y-47337452D02*
X58898393Y-48004119D01*
X58898393Y-47432690D02*
X58874583Y-47385071D01*
X58874583Y-47385071D02*
X58826964Y-47337452D01*
X58826964Y-47337452D02*
X58755536Y-47337452D01*
X58755536Y-47337452D02*
X58707917Y-47385071D01*
X58707917Y-47385071D02*
X58684107Y-47480309D01*
X58684107Y-47480309D02*
X58684107Y-48004119D01*
X58446012Y-47623166D02*
X58065060Y-47623166D01*
X57565059Y-48004119D02*
X57850773Y-48004119D01*
X57707916Y-48004119D02*
X57707916Y-47004119D01*
X57707916Y-47004119D02*
X57755535Y-47146976D01*
X57755535Y-47146976D02*
X57803154Y-47242214D01*
X57803154Y-47242214D02*
X57850773Y-47289833D01*
X87801811Y-48054919D02*
X88087525Y-48054919D01*
X87944668Y-48054919D02*
X87944668Y-47054919D01*
X87944668Y-47054919D02*
X87992287Y-47197776D01*
X87992287Y-47197776D02*
X88039906Y-47293014D01*
X88039906Y-47293014D02*
X88087525Y-47340633D01*
X87349431Y-47054919D02*
X87587526Y-47054919D01*
X87587526Y-47054919D02*
X87611335Y-47531109D01*
X87611335Y-47531109D02*
X87587526Y-47483490D01*
X87587526Y-47483490D02*
X87539907Y-47435871D01*
X87539907Y-47435871D02*
X87420859Y-47435871D01*
X87420859Y-47435871D02*
X87373240Y-47483490D01*
X87373240Y-47483490D02*
X87349431Y-47531109D01*
X87349431Y-47531109D02*
X87325621Y-47626347D01*
X87325621Y-47626347D02*
X87325621Y-47864442D01*
X87325621Y-47864442D02*
X87349431Y-47959680D01*
X87349431Y-47959680D02*
X87373240Y-48007300D01*
X87373240Y-48007300D02*
X87420859Y-48054919D01*
X87420859Y-48054919D02*
X87539907Y-48054919D01*
X87539907Y-48054919D02*
X87587526Y-48007300D01*
X87587526Y-48007300D02*
X87611335Y-47959680D01*
X87111336Y-47673966D02*
X86730384Y-47673966D01*
X86492288Y-48054919D02*
X86492288Y-47388252D01*
X86492288Y-47054919D02*
X86516097Y-47102538D01*
X86516097Y-47102538D02*
X86492288Y-47150157D01*
X86492288Y-47150157D02*
X86468478Y-47102538D01*
X86468478Y-47102538D02*
X86492288Y-47054919D01*
X86492288Y-47054919D02*
X86492288Y-47150157D01*
X86254193Y-47388252D02*
X86254193Y-48054919D01*
X86254193Y-47483490D02*
X86230383Y-47435871D01*
X86230383Y-47435871D02*
X86182764Y-47388252D01*
X86182764Y-47388252D02*
X86111336Y-47388252D01*
X86111336Y-47388252D02*
X86063717Y-47435871D01*
X86063717Y-47435871D02*
X86039907Y-47531109D01*
X86039907Y-47531109D02*
X86039907Y-48054919D01*
X85801812Y-47673966D02*
X85420860Y-47673966D01*
X84920859Y-48054919D02*
X85206573Y-48054919D01*
X85063716Y-48054919D02*
X85063716Y-47054919D01*
X85063716Y-47054919D02*
X85111335Y-47197776D01*
X85111335Y-47197776D02*
X85158954Y-47293014D01*
X85158954Y-47293014D02*
X85206573Y-47340633D01*
X115284611Y-47978719D02*
X115570325Y-47978719D01*
X115427468Y-47978719D02*
X115427468Y-46978719D01*
X115427468Y-46978719D02*
X115475087Y-47121576D01*
X115475087Y-47121576D02*
X115522706Y-47216814D01*
X115522706Y-47216814D02*
X115570325Y-47264433D01*
X114832231Y-46978719D02*
X115070326Y-46978719D01*
X115070326Y-46978719D02*
X115094135Y-47454909D01*
X115094135Y-47454909D02*
X115070326Y-47407290D01*
X115070326Y-47407290D02*
X115022707Y-47359671D01*
X115022707Y-47359671D02*
X114903659Y-47359671D01*
X114903659Y-47359671D02*
X114856040Y-47407290D01*
X114856040Y-47407290D02*
X114832231Y-47454909D01*
X114832231Y-47454909D02*
X114808421Y-47550147D01*
X114808421Y-47550147D02*
X114808421Y-47788242D01*
X114808421Y-47788242D02*
X114832231Y-47883480D01*
X114832231Y-47883480D02*
X114856040Y-47931100D01*
X114856040Y-47931100D02*
X114903659Y-47978719D01*
X114903659Y-47978719D02*
X115022707Y-47978719D01*
X115022707Y-47978719D02*
X115070326Y-47931100D01*
X115070326Y-47931100D02*
X115094135Y-47883480D01*
X114594136Y-47597766D02*
X114213184Y-47597766D01*
X113975088Y-47978719D02*
X113975088Y-47312052D01*
X113975088Y-46978719D02*
X113998897Y-47026338D01*
X113998897Y-47026338D02*
X113975088Y-47073957D01*
X113975088Y-47073957D02*
X113951278Y-47026338D01*
X113951278Y-47026338D02*
X113975088Y-46978719D01*
X113975088Y-46978719D02*
X113975088Y-47073957D01*
X113736993Y-47312052D02*
X113736993Y-47978719D01*
X113736993Y-47407290D02*
X113713183Y-47359671D01*
X113713183Y-47359671D02*
X113665564Y-47312052D01*
X113665564Y-47312052D02*
X113594136Y-47312052D01*
X113594136Y-47312052D02*
X113546517Y-47359671D01*
X113546517Y-47359671D02*
X113522707Y-47454909D01*
X113522707Y-47454909D02*
X113522707Y-47978719D01*
X113284612Y-47597766D02*
X112903660Y-47597766D01*
X112403659Y-47978719D02*
X112689373Y-47978719D01*
X112546516Y-47978719D02*
X112546516Y-46978719D01*
X112546516Y-46978719D02*
X112594135Y-47121576D01*
X112594135Y-47121576D02*
X112641754Y-47216814D01*
X112641754Y-47216814D02*
X112689373Y-47264433D01*
D11*
X71859219Y-51342065D02*
X71383028Y-51008732D01*
X71859219Y-50770637D02*
X70859219Y-50770637D01*
X70859219Y-50770637D02*
X70859219Y-51151589D01*
X70859219Y-51151589D02*
X70906838Y-51246827D01*
X70906838Y-51246827D02*
X70954457Y-51294446D01*
X70954457Y-51294446D02*
X71049695Y-51342065D01*
X71049695Y-51342065D02*
X71192552Y-51342065D01*
X71192552Y-51342065D02*
X71287790Y-51294446D01*
X71287790Y-51294446D02*
X71335409Y-51246827D01*
X71335409Y-51246827D02*
X71383028Y-51151589D01*
X71383028Y-51151589D02*
X71383028Y-50770637D01*
X71811600Y-52151589D02*
X71859219Y-52056351D01*
X71859219Y-52056351D02*
X71859219Y-51865875D01*
X71859219Y-51865875D02*
X71811600Y-51770637D01*
X71811600Y-51770637D02*
X71716361Y-51723018D01*
X71716361Y-51723018D02*
X71335409Y-51723018D01*
X71335409Y-51723018D02*
X71240171Y-51770637D01*
X71240171Y-51770637D02*
X71192552Y-51865875D01*
X71192552Y-51865875D02*
X71192552Y-52056351D01*
X71192552Y-52056351D02*
X71240171Y-52151589D01*
X71240171Y-52151589D02*
X71335409Y-52199208D01*
X71335409Y-52199208D02*
X71430647Y-52199208D01*
X71430647Y-52199208D02*
X71525885Y-51723018D01*
X71811600Y-52580161D02*
X71859219Y-52675399D01*
X71859219Y-52675399D02*
X71859219Y-52865875D01*
X71859219Y-52865875D02*
X71811600Y-52961113D01*
X71811600Y-52961113D02*
X71716361Y-53008732D01*
X71716361Y-53008732D02*
X71668742Y-53008732D01*
X71668742Y-53008732D02*
X71573504Y-52961113D01*
X71573504Y-52961113D02*
X71525885Y-52865875D01*
X71525885Y-52865875D02*
X71525885Y-52723018D01*
X71525885Y-52723018D02*
X71478266Y-52627780D01*
X71478266Y-52627780D02*
X71383028Y-52580161D01*
X71383028Y-52580161D02*
X71335409Y-52580161D01*
X71335409Y-52580161D02*
X71240171Y-52627780D01*
X71240171Y-52627780D02*
X71192552Y-52723018D01*
X71192552Y-52723018D02*
X71192552Y-52865875D01*
X71192552Y-52865875D02*
X71240171Y-52961113D01*
X71859219Y-53437304D02*
X71192552Y-53437304D01*
X70859219Y-53437304D02*
X70906838Y-53389685D01*
X70906838Y-53389685D02*
X70954457Y-53437304D01*
X70954457Y-53437304D02*
X70906838Y-53484923D01*
X70906838Y-53484923D02*
X70859219Y-53437304D01*
X70859219Y-53437304D02*
X70954457Y-53437304D01*
X71811600Y-53865875D02*
X71859219Y-53961113D01*
X71859219Y-53961113D02*
X71859219Y-54151589D01*
X71859219Y-54151589D02*
X71811600Y-54246827D01*
X71811600Y-54246827D02*
X71716361Y-54294446D01*
X71716361Y-54294446D02*
X71668742Y-54294446D01*
X71668742Y-54294446D02*
X71573504Y-54246827D01*
X71573504Y-54246827D02*
X71525885Y-54151589D01*
X71525885Y-54151589D02*
X71525885Y-54008732D01*
X71525885Y-54008732D02*
X71478266Y-53913494D01*
X71478266Y-53913494D02*
X71383028Y-53865875D01*
X71383028Y-53865875D02*
X71335409Y-53865875D01*
X71335409Y-53865875D02*
X71240171Y-53913494D01*
X71240171Y-53913494D02*
X71192552Y-54008732D01*
X71192552Y-54008732D02*
X71192552Y-54151589D01*
X71192552Y-54151589D02*
X71240171Y-54246827D01*
X71192552Y-54580161D02*
X71192552Y-54961113D01*
X70859219Y-54723018D02*
X71716361Y-54723018D01*
X71716361Y-54723018D02*
X71811600Y-54770637D01*
X71811600Y-54770637D02*
X71859219Y-54865875D01*
X71859219Y-54865875D02*
X71859219Y-54961113D01*
X71859219Y-55437304D02*
X71811600Y-55342066D01*
X71811600Y-55342066D02*
X71763980Y-55294447D01*
X71763980Y-55294447D02*
X71668742Y-55246828D01*
X71668742Y-55246828D02*
X71383028Y-55246828D01*
X71383028Y-55246828D02*
X71287790Y-55294447D01*
X71287790Y-55294447D02*
X71240171Y-55342066D01*
X71240171Y-55342066D02*
X71192552Y-55437304D01*
X71192552Y-55437304D02*
X71192552Y-55580161D01*
X71192552Y-55580161D02*
X71240171Y-55675399D01*
X71240171Y-55675399D02*
X71287790Y-55723018D01*
X71287790Y-55723018D02*
X71383028Y-55770637D01*
X71383028Y-55770637D02*
X71668742Y-55770637D01*
X71668742Y-55770637D02*
X71763980Y-55723018D01*
X71763980Y-55723018D02*
X71811600Y-55675399D01*
X71811600Y-55675399D02*
X71859219Y-55580161D01*
X71859219Y-55580161D02*
X71859219Y-55437304D01*
X71859219Y-56199209D02*
X71192552Y-56199209D01*
X71383028Y-56199209D02*
X71287790Y-56246828D01*
X71287790Y-56246828D02*
X71240171Y-56294447D01*
X71240171Y-56294447D02*
X71192552Y-56389685D01*
X71192552Y-56389685D02*
X71192552Y-56484923D01*
X71192552Y-57580162D02*
X71859219Y-57580162D01*
X71287790Y-57580162D02*
X71240171Y-57627781D01*
X71240171Y-57627781D02*
X71192552Y-57723019D01*
X71192552Y-57723019D02*
X71192552Y-57865876D01*
X71192552Y-57865876D02*
X71240171Y-57961114D01*
X71240171Y-57961114D02*
X71335409Y-58008733D01*
X71335409Y-58008733D02*
X71859219Y-58008733D01*
X71811600Y-58865876D02*
X71859219Y-58770638D01*
X71859219Y-58770638D02*
X71859219Y-58580162D01*
X71859219Y-58580162D02*
X71811600Y-58484924D01*
X71811600Y-58484924D02*
X71716361Y-58437305D01*
X71716361Y-58437305D02*
X71335409Y-58437305D01*
X71335409Y-58437305D02*
X71240171Y-58484924D01*
X71240171Y-58484924D02*
X71192552Y-58580162D01*
X71192552Y-58580162D02*
X71192552Y-58770638D01*
X71192552Y-58770638D02*
X71240171Y-58865876D01*
X71240171Y-58865876D02*
X71335409Y-58913495D01*
X71335409Y-58913495D02*
X71430647Y-58913495D01*
X71430647Y-58913495D02*
X71525885Y-58437305D01*
X71192552Y-59199210D02*
X71192552Y-59580162D01*
X70859219Y-59342067D02*
X71716361Y-59342067D01*
X71716361Y-59342067D02*
X71811600Y-59389686D01*
X71811600Y-59389686D02*
X71859219Y-59484924D01*
X71859219Y-59484924D02*
X71859219Y-59580162D01*
X71192552Y-59818258D02*
X71859219Y-60008734D01*
X71859219Y-60008734D02*
X71383028Y-60199210D01*
X71383028Y-60199210D02*
X71859219Y-60389686D01*
X71859219Y-60389686D02*
X71192552Y-60580162D01*
X71859219Y-61103972D02*
X71811600Y-61008734D01*
X71811600Y-61008734D02*
X71763980Y-60961115D01*
X71763980Y-60961115D02*
X71668742Y-60913496D01*
X71668742Y-60913496D02*
X71383028Y-60913496D01*
X71383028Y-60913496D02*
X71287790Y-60961115D01*
X71287790Y-60961115D02*
X71240171Y-61008734D01*
X71240171Y-61008734D02*
X71192552Y-61103972D01*
X71192552Y-61103972D02*
X71192552Y-61246829D01*
X71192552Y-61246829D02*
X71240171Y-61342067D01*
X71240171Y-61342067D02*
X71287790Y-61389686D01*
X71287790Y-61389686D02*
X71383028Y-61437305D01*
X71383028Y-61437305D02*
X71668742Y-61437305D01*
X71668742Y-61437305D02*
X71763980Y-61389686D01*
X71763980Y-61389686D02*
X71811600Y-61342067D01*
X71811600Y-61342067D02*
X71859219Y-61246829D01*
X71859219Y-61246829D02*
X71859219Y-61103972D01*
X71859219Y-61865877D02*
X71192552Y-61865877D01*
X71383028Y-61865877D02*
X71287790Y-61913496D01*
X71287790Y-61913496D02*
X71240171Y-61961115D01*
X71240171Y-61961115D02*
X71192552Y-62056353D01*
X71192552Y-62056353D02*
X71192552Y-62151591D01*
X71859219Y-62484925D02*
X70859219Y-62484925D01*
X71478266Y-62580163D02*
X71859219Y-62865877D01*
X71192552Y-62865877D02*
X71573504Y-62484925D01*
X73469219Y-52818256D02*
X72802552Y-52818256D01*
X72993028Y-52818256D02*
X72897790Y-52865875D01*
X72897790Y-52865875D02*
X72850171Y-52913494D01*
X72850171Y-52913494D02*
X72802552Y-53008732D01*
X72802552Y-53008732D02*
X72802552Y-53103970D01*
X73421600Y-53818256D02*
X73469219Y-53723018D01*
X73469219Y-53723018D02*
X73469219Y-53532542D01*
X73469219Y-53532542D02*
X73421600Y-53437304D01*
X73421600Y-53437304D02*
X73326361Y-53389685D01*
X73326361Y-53389685D02*
X72945409Y-53389685D01*
X72945409Y-53389685D02*
X72850171Y-53437304D01*
X72850171Y-53437304D02*
X72802552Y-53532542D01*
X72802552Y-53532542D02*
X72802552Y-53723018D01*
X72802552Y-53723018D02*
X72850171Y-53818256D01*
X72850171Y-53818256D02*
X72945409Y-53865875D01*
X72945409Y-53865875D02*
X73040647Y-53865875D01*
X73040647Y-53865875D02*
X73135885Y-53389685D01*
X72802552Y-54294447D02*
X73802552Y-54294447D01*
X72850171Y-54294447D02*
X72802552Y-54389685D01*
X72802552Y-54389685D02*
X72802552Y-54580161D01*
X72802552Y-54580161D02*
X72850171Y-54675399D01*
X72850171Y-54675399D02*
X72897790Y-54723018D01*
X72897790Y-54723018D02*
X72993028Y-54770637D01*
X72993028Y-54770637D02*
X73278742Y-54770637D01*
X73278742Y-54770637D02*
X73373980Y-54723018D01*
X73373980Y-54723018D02*
X73421600Y-54675399D01*
X73421600Y-54675399D02*
X73469219Y-54580161D01*
X73469219Y-54580161D02*
X73469219Y-54389685D01*
X73469219Y-54389685D02*
X73421600Y-54294447D01*
X73469219Y-55342066D02*
X73421600Y-55246828D01*
X73421600Y-55246828D02*
X73326361Y-55199209D01*
X73326361Y-55199209D02*
X72469219Y-55199209D01*
X73469219Y-56151590D02*
X72945409Y-56151590D01*
X72945409Y-56151590D02*
X72850171Y-56103971D01*
X72850171Y-56103971D02*
X72802552Y-56008733D01*
X72802552Y-56008733D02*
X72802552Y-55818257D01*
X72802552Y-55818257D02*
X72850171Y-55723019D01*
X73421600Y-56151590D02*
X73469219Y-56056352D01*
X73469219Y-56056352D02*
X73469219Y-55818257D01*
X73469219Y-55818257D02*
X73421600Y-55723019D01*
X73421600Y-55723019D02*
X73326361Y-55675400D01*
X73326361Y-55675400D02*
X73231123Y-55675400D01*
X73231123Y-55675400D02*
X73135885Y-55723019D01*
X73135885Y-55723019D02*
X73088266Y-55818257D01*
X73088266Y-55818257D02*
X73088266Y-56056352D01*
X73088266Y-56056352D02*
X73040647Y-56151590D01*
X73421600Y-57056352D02*
X73469219Y-56961114D01*
X73469219Y-56961114D02*
X73469219Y-56770638D01*
X73469219Y-56770638D02*
X73421600Y-56675400D01*
X73421600Y-56675400D02*
X73373980Y-56627781D01*
X73373980Y-56627781D02*
X73278742Y-56580162D01*
X73278742Y-56580162D02*
X72993028Y-56580162D01*
X72993028Y-56580162D02*
X72897790Y-56627781D01*
X72897790Y-56627781D02*
X72850171Y-56675400D01*
X72850171Y-56675400D02*
X72802552Y-56770638D01*
X72802552Y-56770638D02*
X72802552Y-56961114D01*
X72802552Y-56961114D02*
X72850171Y-57056352D01*
X73421600Y-57865876D02*
X73469219Y-57770638D01*
X73469219Y-57770638D02*
X73469219Y-57580162D01*
X73469219Y-57580162D02*
X73421600Y-57484924D01*
X73421600Y-57484924D02*
X73326361Y-57437305D01*
X73326361Y-57437305D02*
X72945409Y-57437305D01*
X72945409Y-57437305D02*
X72850171Y-57484924D01*
X72850171Y-57484924D02*
X72802552Y-57580162D01*
X72802552Y-57580162D02*
X72802552Y-57770638D01*
X72802552Y-57770638D02*
X72850171Y-57865876D01*
X72850171Y-57865876D02*
X72945409Y-57913495D01*
X72945409Y-57913495D02*
X73040647Y-57913495D01*
X73040647Y-57913495D02*
X73135885Y-57437305D01*
X73469219Y-58342067D02*
X72802552Y-58342067D01*
X72897790Y-58342067D02*
X72850171Y-58389686D01*
X72850171Y-58389686D02*
X72802552Y-58484924D01*
X72802552Y-58484924D02*
X72802552Y-58627781D01*
X72802552Y-58627781D02*
X72850171Y-58723019D01*
X72850171Y-58723019D02*
X72945409Y-58770638D01*
X72945409Y-58770638D02*
X73469219Y-58770638D01*
X72945409Y-58770638D02*
X72850171Y-58818257D01*
X72850171Y-58818257D02*
X72802552Y-58913495D01*
X72802552Y-58913495D02*
X72802552Y-59056352D01*
X72802552Y-59056352D02*
X72850171Y-59151591D01*
X72850171Y-59151591D02*
X72945409Y-59199210D01*
X72945409Y-59199210D02*
X73469219Y-59199210D01*
X73421600Y-60056352D02*
X73469219Y-59961114D01*
X73469219Y-59961114D02*
X73469219Y-59770638D01*
X73469219Y-59770638D02*
X73421600Y-59675400D01*
X73421600Y-59675400D02*
X73326361Y-59627781D01*
X73326361Y-59627781D02*
X72945409Y-59627781D01*
X72945409Y-59627781D02*
X72850171Y-59675400D01*
X72850171Y-59675400D02*
X72802552Y-59770638D01*
X72802552Y-59770638D02*
X72802552Y-59961114D01*
X72802552Y-59961114D02*
X72850171Y-60056352D01*
X72850171Y-60056352D02*
X72945409Y-60103971D01*
X72945409Y-60103971D02*
X73040647Y-60103971D01*
X73040647Y-60103971D02*
X73135885Y-59627781D01*
X72802552Y-60532543D02*
X73469219Y-60532543D01*
X72897790Y-60532543D02*
X72850171Y-60580162D01*
X72850171Y-60580162D02*
X72802552Y-60675400D01*
X72802552Y-60675400D02*
X72802552Y-60818257D01*
X72802552Y-60818257D02*
X72850171Y-60913495D01*
X72850171Y-60913495D02*
X72945409Y-60961114D01*
X72945409Y-60961114D02*
X73469219Y-60961114D01*
X72802552Y-61294448D02*
X72802552Y-61675400D01*
X72469219Y-61437305D02*
X73326361Y-61437305D01*
X73326361Y-61437305D02*
X73421600Y-61484924D01*
X73421600Y-61484924D02*
X73469219Y-61580162D01*
X73469219Y-61580162D02*
X73469219Y-61675400D01*
X75079219Y-52413495D02*
X74079219Y-52413495D01*
X74079219Y-52413495D02*
X74793504Y-52746828D01*
X74793504Y-52746828D02*
X74079219Y-53080161D01*
X74079219Y-53080161D02*
X75079219Y-53080161D01*
X75079219Y-53984923D02*
X74555409Y-53984923D01*
X74555409Y-53984923D02*
X74460171Y-53937304D01*
X74460171Y-53937304D02*
X74412552Y-53842066D01*
X74412552Y-53842066D02*
X74412552Y-53651590D01*
X74412552Y-53651590D02*
X74460171Y-53556352D01*
X75031600Y-53984923D02*
X75079219Y-53889685D01*
X75079219Y-53889685D02*
X75079219Y-53651590D01*
X75079219Y-53651590D02*
X75031600Y-53556352D01*
X75031600Y-53556352D02*
X74936361Y-53508733D01*
X74936361Y-53508733D02*
X74841123Y-53508733D01*
X74841123Y-53508733D02*
X74745885Y-53556352D01*
X74745885Y-53556352D02*
X74698266Y-53651590D01*
X74698266Y-53651590D02*
X74698266Y-53889685D01*
X74698266Y-53889685D02*
X74650647Y-53984923D01*
X75079219Y-54889685D02*
X74079219Y-54889685D01*
X75031600Y-54889685D02*
X75079219Y-54794447D01*
X75079219Y-54794447D02*
X75079219Y-54603971D01*
X75079219Y-54603971D02*
X75031600Y-54508733D01*
X75031600Y-54508733D02*
X74983980Y-54461114D01*
X74983980Y-54461114D02*
X74888742Y-54413495D01*
X74888742Y-54413495D02*
X74603028Y-54413495D01*
X74603028Y-54413495D02*
X74507790Y-54461114D01*
X74507790Y-54461114D02*
X74460171Y-54508733D01*
X74460171Y-54508733D02*
X74412552Y-54603971D01*
X74412552Y-54603971D02*
X74412552Y-54794447D01*
X74412552Y-54794447D02*
X74460171Y-54889685D01*
X74983980Y-55937304D02*
X75031600Y-55889685D01*
X75031600Y-55889685D02*
X75079219Y-55746828D01*
X75079219Y-55746828D02*
X75079219Y-55651590D01*
X75079219Y-55651590D02*
X75031600Y-55508733D01*
X75031600Y-55508733D02*
X74936361Y-55413495D01*
X74936361Y-55413495D02*
X74841123Y-55365876D01*
X74841123Y-55365876D02*
X74650647Y-55318257D01*
X74650647Y-55318257D02*
X74507790Y-55318257D01*
X74507790Y-55318257D02*
X74317314Y-55365876D01*
X74317314Y-55365876D02*
X74222076Y-55413495D01*
X74222076Y-55413495D02*
X74126838Y-55508733D01*
X74126838Y-55508733D02*
X74079219Y-55651590D01*
X74079219Y-55651590D02*
X74079219Y-55746828D01*
X74079219Y-55746828D02*
X74126838Y-55889685D01*
X74126838Y-55889685D02*
X74174457Y-55937304D01*
X75079219Y-56794447D02*
X74555409Y-56794447D01*
X74555409Y-56794447D02*
X74460171Y-56746828D01*
X74460171Y-56746828D02*
X74412552Y-56651590D01*
X74412552Y-56651590D02*
X74412552Y-56461114D01*
X74412552Y-56461114D02*
X74460171Y-56365876D01*
X75031600Y-56794447D02*
X75079219Y-56699209D01*
X75079219Y-56699209D02*
X75079219Y-56461114D01*
X75079219Y-56461114D02*
X75031600Y-56365876D01*
X75031600Y-56365876D02*
X74936361Y-56318257D01*
X74936361Y-56318257D02*
X74841123Y-56318257D01*
X74841123Y-56318257D02*
X74745885Y-56365876D01*
X74745885Y-56365876D02*
X74698266Y-56461114D01*
X74698266Y-56461114D02*
X74698266Y-56699209D01*
X74698266Y-56699209D02*
X74650647Y-56794447D01*
X74412552Y-57127781D02*
X74412552Y-57508733D01*
X74079219Y-57270638D02*
X74936361Y-57270638D01*
X74936361Y-57270638D02*
X75031600Y-57318257D01*
X75031600Y-57318257D02*
X75079219Y-57413495D01*
X75079219Y-57413495D02*
X75079219Y-57508733D01*
X74174457Y-58556353D02*
X74126838Y-58603972D01*
X74126838Y-58603972D02*
X74079219Y-58699210D01*
X74079219Y-58699210D02*
X74079219Y-58937305D01*
X74079219Y-58937305D02*
X74126838Y-59032543D01*
X74126838Y-59032543D02*
X74174457Y-59080162D01*
X74174457Y-59080162D02*
X74269695Y-59127781D01*
X74269695Y-59127781D02*
X74364933Y-59127781D01*
X74364933Y-59127781D02*
X74507790Y-59080162D01*
X74507790Y-59080162D02*
X75079219Y-58508734D01*
X75079219Y-58508734D02*
X75079219Y-59127781D01*
X74079219Y-59746829D02*
X74079219Y-59842067D01*
X74079219Y-59842067D02*
X74126838Y-59937305D01*
X74126838Y-59937305D02*
X74174457Y-59984924D01*
X74174457Y-59984924D02*
X74269695Y-60032543D01*
X74269695Y-60032543D02*
X74460171Y-60080162D01*
X74460171Y-60080162D02*
X74698266Y-60080162D01*
X74698266Y-60080162D02*
X74888742Y-60032543D01*
X74888742Y-60032543D02*
X74983980Y-59984924D01*
X74983980Y-59984924D02*
X75031600Y-59937305D01*
X75031600Y-59937305D02*
X75079219Y-59842067D01*
X75079219Y-59842067D02*
X75079219Y-59746829D01*
X75079219Y-59746829D02*
X75031600Y-59651591D01*
X75031600Y-59651591D02*
X74983980Y-59603972D01*
X74983980Y-59603972D02*
X74888742Y-59556353D01*
X74888742Y-59556353D02*
X74698266Y-59508734D01*
X74698266Y-59508734D02*
X74460171Y-59508734D01*
X74460171Y-59508734D02*
X74269695Y-59556353D01*
X74269695Y-59556353D02*
X74174457Y-59603972D01*
X74174457Y-59603972D02*
X74126838Y-59651591D01*
X74126838Y-59651591D02*
X74079219Y-59746829D01*
X74174457Y-60461115D02*
X74126838Y-60508734D01*
X74126838Y-60508734D02*
X74079219Y-60603972D01*
X74079219Y-60603972D02*
X74079219Y-60842067D01*
X74079219Y-60842067D02*
X74126838Y-60937305D01*
X74126838Y-60937305D02*
X74174457Y-60984924D01*
X74174457Y-60984924D02*
X74269695Y-61032543D01*
X74269695Y-61032543D02*
X74364933Y-61032543D01*
X74364933Y-61032543D02*
X74507790Y-60984924D01*
X74507790Y-60984924D02*
X75079219Y-60413496D01*
X75079219Y-60413496D02*
X75079219Y-61032543D01*
X74412552Y-61889686D02*
X75079219Y-61889686D01*
X74031600Y-61651591D02*
X74745885Y-61413496D01*
X74745885Y-61413496D02*
X74745885Y-62032543D01*
D12*
%TO.C,R55*%
X114385064Y-64563400D02*
X113930936Y-64563400D01*
X114385064Y-66033400D02*
X113930936Y-66033400D01*
%TO.C,R61*%
X114385064Y-49391971D02*
X113930936Y-49391971D01*
X114385064Y-50861971D02*
X113930936Y-50861971D01*
%TO.C,R57*%
X114385064Y-59506255D02*
X113930936Y-59506255D01*
X114385064Y-60976255D02*
X113930936Y-60976255D01*
%TO.C,R56*%
X114385064Y-62034826D02*
X113930936Y-62034826D01*
X114385064Y-63504826D02*
X113930936Y-63504826D01*
%TO.C,R58*%
X114385064Y-56977684D02*
X113930936Y-56977684D01*
X114385064Y-58447684D02*
X113930936Y-58447684D01*
%TO.C,R60*%
X114385064Y-51920542D02*
X113930936Y-51920542D01*
X114385064Y-53390542D02*
X113930936Y-53390542D01*
%TO.C,R59*%
X114385064Y-54449113D02*
X113930936Y-54449113D01*
X114385064Y-55919113D02*
X113930936Y-55919113D01*
%TO.C,R15*%
X59527064Y-50835000D02*
X59072936Y-50835000D01*
X59527064Y-49365000D02*
X59072936Y-49365000D01*
%TO.C,R35*%
X86983064Y-58447684D02*
X86528936Y-58447684D01*
X86983064Y-56977684D02*
X86528936Y-56977684D01*
%TO.C,R32*%
X86983064Y-66033400D02*
X86528936Y-66033400D01*
X86983064Y-64563400D02*
X86528936Y-64563400D01*
%TO.C,R36*%
X86983064Y-55919113D02*
X86528936Y-55919113D01*
X86983064Y-54449113D02*
X86528936Y-54449113D01*
%TO.C,R33*%
X86983064Y-63504826D02*
X86528936Y-63504826D01*
X86983064Y-62034826D02*
X86528936Y-62034826D01*
%TO.C,R37*%
X86983064Y-53390542D02*
X86528936Y-53390542D01*
X86983064Y-51920542D02*
X86528936Y-51920542D01*
%TO.C,R38*%
X86983064Y-50861971D02*
X86528936Y-50861971D01*
X86983064Y-49391971D02*
X86528936Y-49391971D01*
%TO.C,R11*%
X59527064Y-61035000D02*
X59072936Y-61035000D01*
X59527064Y-59565000D02*
X59072936Y-59565000D01*
%TO.C,R10*%
X59527064Y-63535000D02*
X59072936Y-63535000D01*
X59527064Y-62065000D02*
X59072936Y-62065000D01*
%TO.C,R9*%
X59527064Y-66035000D02*
X59072936Y-66035000D01*
X59527064Y-64565000D02*
X59072936Y-64565000D01*
%TO.C,R13*%
X59527064Y-55935000D02*
X59072936Y-55935000D01*
X59527064Y-54465000D02*
X59072936Y-54465000D01*
%TO.C,R34*%
X86983064Y-60976255D02*
X86528936Y-60976255D01*
X86983064Y-59506255D02*
X86528936Y-59506255D01*
%TO.C,R12*%
X59527064Y-58435000D02*
X59072936Y-58435000D01*
X59527064Y-56965000D02*
X59072936Y-56965000D01*
%TO.C,R14*%
X59527064Y-53335000D02*
X59072936Y-53335000D01*
X59527064Y-51865000D02*
X59072936Y-51865000D01*
%TD*%
M02*
