M48
; DRILL file {KiCad 7.0.11} date Wed Oct 23 23:44:56 2024
; FORMAT={-:-/ absolute / metric / decimal}
; #@! TF.CreationDate,2024-10-23T23:44:56+03:00
; #@! TF.GenerationSoftware,Kicad,Pcbnew,7.0.11
; #@! TF.FileFunction,Plated,1,2,PTH
FMAT,2
METRIC
; #@! TA.AperFunction,Plated,PTH,ComponentDrill
T1C0.800
%
G90
G05
T1
X55.55Y-47.55
X55.55Y-50.09
X55.55Y-52.63
X55.55Y-55.17
X55.55Y-57.71
X55.55Y-60.25
X55.55Y-62.79
X55.55Y-65.33
X63.17Y-47.55
X63.17Y-50.09
X63.17Y-52.63
X63.17Y-55.17
X63.17Y-57.71
X63.17Y-60.25
X63.17Y-62.79
X63.17Y-65.33
X69.18Y-47.525
X69.18Y-50.065
X69.18Y-52.605
X69.18Y-55.145
X69.18Y-57.685
X69.18Y-60.225
X69.18Y-62.765
X69.18Y-65.305
X76.8Y-47.525
X76.8Y-50.065
X76.8Y-52.605
X76.8Y-55.145
X76.8Y-57.685
X76.8Y-60.225
X76.8Y-62.765
X76.8Y-65.305
X82.931Y-47.523
X82.931Y-50.063
X82.931Y-52.603
X82.931Y-55.143
X82.931Y-57.683
X82.931Y-60.223
X82.931Y-62.763
X82.931Y-65.303
X90.551Y-47.523
X90.551Y-50.063
X90.551Y-52.603
X90.551Y-55.143
X90.551Y-57.683
X90.551Y-60.223
X90.551Y-62.763
X90.551Y-65.303
X96.613Y-47.525
X96.613Y-50.065
X96.613Y-52.605
X96.613Y-55.145
X96.613Y-57.685
X96.613Y-60.225
X96.613Y-62.765
X96.613Y-65.305
X104.233Y-47.525
X104.233Y-50.065
X104.233Y-52.605
X104.233Y-55.145
X104.233Y-57.685
X104.233Y-60.225
X104.233Y-62.765
X104.233Y-65.305
X110.339Y-47.523
X110.339Y-50.063
X110.339Y-52.603
X110.339Y-55.143
X110.339Y-57.683
X110.339Y-60.223
X110.339Y-62.763
X110.339Y-65.303
X117.959Y-47.523
X117.959Y-50.063
X117.959Y-52.603
X117.959Y-55.143
X117.959Y-57.683
X117.959Y-60.223
X117.959Y-62.763
X117.959Y-65.303
M30
