%TF.GenerationSoftware,KiCad,Pcbnew,7.0.11*%
%TF.CreationDate,2024-05-13T15:30:06+03:00*%
%TF.ProjectId,rndip16,726e6469-7031-4362-9e6b-696361645f70,rev?*%
%TF.SameCoordinates,Original*%
%TF.FileFunction,Soldermask,Top*%
%TF.FilePolarity,Negative*%
%FSLAX46Y46*%
G04 Gerber Fmt 4.6, Leading zero omitted, Abs format (unit mm)*
G04 Created by KiCad (PCBNEW 7.0.11) date 2024-05-13 15:30:06*
%MOMM*%
%LPD*%
G01*
G04 APERTURE LIST*
G04 Aperture macros list*
%AMRoundRect*
0 Rectangle with rounded corners*
0 $1 Rounding radius*
0 $2 $3 $4 $5 $6 $7 $8 $9 X,Y pos of 4 corners*
0 Add a 4 corners polygon primitive as box body*
4,1,4,$2,$3,$4,$5,$6,$7,$8,$9,$2,$3,0*
0 Add four circle primitives for the rounded corners*
1,1,$1+$1,$2,$3*
1,1,$1+$1,$4,$5*
1,1,$1+$1,$6,$7*
1,1,$1+$1,$8,$9*
0 Add four rect primitives between the rounded corners*
20,1,$1+$1,$2,$3,$4,$5,0*
20,1,$1+$1,$4,$5,$6,$7,0*
20,1,$1+$1,$6,$7,$8,$9,0*
20,1,$1+$1,$8,$9,$2,$3,0*%
G04 Aperture macros list end*
%ADD10C,0.500000*%
%ADD11RoundRect,0.250000X-0.350000X-0.450000X0.350000X-0.450000X0.350000X0.450000X-0.350000X0.450000X0*%
%ADD12R,2.400000X1.600000*%
%ADD13O,2.400000X1.600000*%
G04 APERTURE END LIST*
D10*
%TO.C,mouse-bite-2.54mm-slot_13*%
X65100000Y-65300000D03*
X67300000Y-65300000D03*
X65100000Y-64500000D03*
X67300000Y-64500000D03*
X65100000Y-63700000D03*
X67300000Y-63700000D03*
X65100000Y-62900000D03*
X67300000Y-62900000D03*
X65100000Y-62100000D03*
X67300000Y-62100000D03*
X65100000Y-61300000D03*
X67300000Y-61300000D03*
%TD*%
D11*
%TO.C,R8*%
X58300000Y-65300000D03*
X60300000Y-65300000D03*
%TD*%
%TO.C,R18*%
X72005000Y-52585714D03*
X74005000Y-52585714D03*
%TD*%
%TO.C,R21*%
X72005000Y-60214285D03*
X74005000Y-60214285D03*
%TD*%
%TO.C,R3*%
X58300000Y-52600000D03*
X60300000Y-52600000D03*
%TD*%
%TO.C,R7*%
X58300000Y-62800000D03*
X60300000Y-62800000D03*
%TD*%
%TO.C,R23*%
X72005000Y-65300000D03*
X74005000Y-65300000D03*
%TD*%
D10*
%TO.C,mouse-bite-2.54mm-slot_13*%
X65100000Y-51500000D03*
X67300000Y-51500000D03*
X65100000Y-50700000D03*
X67300000Y-50700000D03*
X65100000Y-49900000D03*
X67300000Y-49900000D03*
X65100000Y-49100000D03*
X67300000Y-49100000D03*
X65100000Y-48300000D03*
X67300000Y-48300000D03*
X65100000Y-47500000D03*
X67300000Y-47500000D03*
%TD*%
D11*
%TO.C,R20*%
X72005000Y-57671428D03*
X74005000Y-57671428D03*
%TD*%
%TO.C,R16*%
X72005000Y-47500000D03*
X74005000Y-47500000D03*
%TD*%
%TO.C,R17*%
X72005000Y-50042857D03*
X74005000Y-50042857D03*
%TD*%
%TO.C,R4*%
X58300000Y-55200000D03*
X60300000Y-55200000D03*
%TD*%
%TO.C,R6*%
X58300000Y-60300000D03*
X60300000Y-60300000D03*
%TD*%
%TO.C,R1*%
X58300000Y-47600000D03*
X60300000Y-47600000D03*
%TD*%
%TO.C,R22*%
X72005000Y-62757142D03*
X74005000Y-62757142D03*
%TD*%
%TO.C,R2*%
X58300000Y-50100000D03*
X60300000Y-50100000D03*
%TD*%
D12*
%TO.C,J1*%
X55550000Y-47550000D03*
D13*
X55550000Y-50090000D03*
X55550000Y-52630000D03*
X55550000Y-55170000D03*
X55550000Y-57710000D03*
X55550000Y-60250000D03*
X55550000Y-62790000D03*
X55550000Y-65330000D03*
X63170000Y-65330000D03*
X63170000Y-62790000D03*
X63170000Y-60250000D03*
X63170000Y-57710000D03*
X63170000Y-55170000D03*
X63170000Y-52630000D03*
X63170000Y-50090000D03*
X63170000Y-47550000D03*
%TD*%
D11*
%TO.C,R5*%
X58300000Y-57700000D03*
X60300000Y-57700000D03*
%TD*%
%TO.C,R19*%
X72005000Y-55128571D03*
X74005000Y-55128571D03*
%TD*%
D12*
%TO.C,J2*%
X69180000Y-47525000D03*
D13*
X69180000Y-50065000D03*
X69180000Y-52605000D03*
X69180000Y-55145000D03*
X69180000Y-57685000D03*
X69180000Y-60225000D03*
X69180000Y-62765000D03*
X69180000Y-65305000D03*
X76800000Y-65305000D03*
X76800000Y-62765000D03*
X76800000Y-60225000D03*
X76800000Y-57685000D03*
X76800000Y-55145000D03*
X76800000Y-52605000D03*
X76800000Y-50065000D03*
X76800000Y-47525000D03*
%TD*%
M02*
