%TF.GenerationSoftware,KiCad,Pcbnew,7.0.11*%
%TF.CreationDate,2024-05-17T15:10:08+03:00*%
%TF.ProjectId,time_delay,74696d65-5f64-4656-9c61-792e6b696361,rev?*%
%TF.SameCoordinates,Original*%
%TF.FileFunction,Copper,L1,Top*%
%TF.FilePolarity,Positive*%
%FSLAX46Y46*%
G04 Gerber Fmt 4.6, Leading zero omitted, Abs format (unit mm)*
G04 Created by KiCad (PCBNEW 7.0.11) date 2024-05-17 15:10:08*
%MOMM*%
%LPD*%
G01*
G04 APERTURE LIST*
G04 Aperture macros list*
%AMRoundRect*
0 Rectangle with rounded corners*
0 $1 Rounding radius*
0 $2 $3 $4 $5 $6 $7 $8 $9 X,Y pos of 4 corners*
0 Add a 4 corners polygon primitive as box body*
4,1,4,$2,$3,$4,$5,$6,$7,$8,$9,$2,$3,0*
0 Add four circle primitives for the rounded corners*
1,1,$1+$1,$2,$3*
1,1,$1+$1,$4,$5*
1,1,$1+$1,$6,$7*
1,1,$1+$1,$8,$9*
0 Add four rect primitives between the rounded corners*
20,1,$1+$1,$2,$3,$4,$5,0*
20,1,$1+$1,$4,$5,$6,$7,0*
20,1,$1+$1,$6,$7,$8,$9,0*
20,1,$1+$1,$8,$9,$2,$3,0*%
G04 Aperture macros list end*
%TA.AperFunction,ComponentPad*%
%ADD10R,1.600000X1.600000*%
%TD*%
%TA.AperFunction,ComponentPad*%
%ADD11O,1.600000X1.600000*%
%TD*%
%TA.AperFunction,SMDPad,CuDef*%
%ADD12RoundRect,0.150000X0.150000X-0.825000X0.150000X0.825000X-0.150000X0.825000X-0.150000X-0.825000X0*%
%TD*%
%TA.AperFunction,ViaPad*%
%ADD13C,0.600000*%
%TD*%
%TA.AperFunction,Conductor*%
%ADD14C,0.200000*%
%TD*%
G04 APERTURE END LIST*
D10*
%TO.P,TD1,1,IN*%
%TO.N,Net-(TD1A-IN)*%
X42750000Y-44755000D03*
D11*
%TO.P,TD1,4,40*%
%TO.N,Net-(TD1A-40)*%
X42750000Y-52375000D03*
%TO.P,TD1,6,80*%
%TO.N,Net-(TD1A-80)*%
X42750000Y-57455000D03*
%TO.P,TD1,7,GND*%
%TO.N,Net-(TD1B-GND)*%
X42750000Y-59995000D03*
%TO.P,TD1,8,100*%
%TO.N,Net-(TD1A-100)*%
X50370000Y-59995000D03*
%TO.P,TD1,10,60*%
%TO.N,Net-(TD1A-60)*%
X50370000Y-54915000D03*
%TO.P,TD1,12,20*%
%TO.N,Net-(TD1A-20)*%
X50370000Y-49835000D03*
%TO.P,TD1,14,Vcc*%
%TO.N,Net-(TD1B-Vcc)*%
X50370000Y-44755000D03*
%TD*%
D12*
%TO.P,U1,8,Vcc*%
%TO.N,Net-(TD1B-Vcc)*%
X44645000Y-49905000D03*
%TO.P,U1,7,TAP1*%
%TO.N,Net-(TD1A-20)*%
X45915000Y-49905000D03*
%TO.P,U1,6,TAP3*%
%TO.N,Net-(TD1A-60)*%
X47185000Y-49905000D03*
%TO.P,U1,5,TAP5*%
%TO.N,Net-(TD1A-100)*%
X48455000Y-49905000D03*
%TO.P,U1,4,GND*%
%TO.N,Net-(TD1B-GND)*%
X48455000Y-54855000D03*
%TO.P,U1,3,TAP4*%
%TO.N,Net-(TD1A-80)*%
X47185000Y-54855000D03*
%TO.P,U1,2,TAP2*%
%TO.N,Net-(TD1A-40)*%
X45915000Y-54855000D03*
%TO.P,U1,1,IN*%
%TO.N,Net-(TD1A-IN)*%
X44645000Y-54855000D03*
%TD*%
D13*
%TO.N,Net-(TD1A-100)*%
X48500000Y-51900000D03*
%TD*%
D14*
%TO.N,Net-(TD1A-100)*%
X48455000Y-51155000D02*
X48455000Y-49905000D01*
X48500000Y-51200000D02*
X48455000Y-51155000D01*
X48500000Y-51900000D02*
X48500000Y-51200000D01*
%TO.N,Net-(TD1A-80)*%
X47185000Y-56515000D02*
X46245000Y-57455000D01*
X46245000Y-57455000D02*
X42750000Y-57455000D01*
X47185000Y-54855000D02*
X47185000Y-56515000D01*
%TO.N,Net-(TD1B-GND)*%
X44905000Y-59995000D02*
X42750000Y-59995000D01*
X48455000Y-56445000D02*
X44905000Y-59995000D01*
X48455000Y-54855000D02*
X48455000Y-56445000D01*
%TO.N,Net-(TD1A-40)*%
X42750000Y-55650000D02*
X42750000Y-52375000D01*
X45915000Y-56285000D02*
X45600000Y-56600000D01*
X45600000Y-56600000D02*
X43700000Y-56600000D01*
X43700000Y-56600000D02*
X42750000Y-55650000D01*
X45915000Y-54855000D02*
X45915000Y-56285000D01*
%TO.N,Net-(TD1A-IN)*%
X42750000Y-50350000D02*
X42750000Y-44755000D01*
X44645000Y-52245000D02*
X42750000Y-50350000D01*
X44645000Y-54855000D02*
X44645000Y-52245000D01*
%TO.N,Net-(TD1A-60)*%
X48000000Y-52600000D02*
X49500000Y-52600000D01*
X49500000Y-52600000D02*
X50370000Y-53470000D01*
X47185000Y-51785000D02*
X48000000Y-52600000D01*
X50370000Y-53470000D02*
X50370000Y-54915000D01*
X47185000Y-49905000D02*
X47185000Y-51785000D01*
%TO.N,Net-(TD1B-Vcc)*%
X48245000Y-44755000D02*
X50370000Y-44755000D01*
X44645000Y-48355000D02*
X48245000Y-44755000D01*
X44645000Y-49905000D02*
X44645000Y-48355000D01*
%TO.N,Net-(TD1A-20)*%
X46400000Y-47900000D02*
X48435000Y-47900000D01*
X48435000Y-47900000D02*
X50370000Y-49835000D01*
X45915000Y-48385000D02*
X46400000Y-47900000D01*
X45915000Y-49905000D02*
X45915000Y-48385000D01*
%TD*%
M02*
