%TF.GenerationSoftware,KiCad,Pcbnew,7.0.11*%
%TF.CreationDate,2024-05-17T15:10:11+03:00*%
%TF.ProjectId,time_delay,74696d65-5f64-4656-9c61-792e6b696361,rev?*%
%TF.SameCoordinates,Original*%
%TF.FileFunction,Drillmap*%
%TF.FilePolarity,Positive*%
%FSLAX45Y45*%
G04 Gerber Fmt 4.5, Leading zero omitted, Abs format (unit mm)*
G04 Created by KiCad (PCBNEW 7.0.11) date 2024-05-17 15:10:11*
%MOMM*%
%LPD*%
G01*
G04 APERTURE LIST*
%ADD10C,0.050000*%
%ADD11C,0.200000*%
%ADD12C,0.100000*%
G04 APERTURE END LIST*
D10*
X4140000Y-4290000D02*
X5170000Y-4290000D01*
X5170000Y-6180000D01*
X4140000Y-6180000D01*
X4140000Y-4290000D01*
D11*
D12*
X4835000Y-5175000D02*
X4865000Y-5205000D01*
X4865000Y-5175000D02*
X4835000Y-5205000D01*
X4315000Y-4475500D02*
G75*
G03*
X4235000Y-4475500I-40000J0D01*
G01*
X4235000Y-4475500D02*
G75*
G03*
X4315000Y-4475500I40000J0D01*
G01*
X4315000Y-5237500D02*
G75*
G03*
X4235000Y-5237500I-40000J0D01*
G01*
X4235000Y-5237500D02*
G75*
G03*
X4315000Y-5237500I40000J0D01*
G01*
X4315000Y-5745500D02*
G75*
G03*
X4235000Y-5745500I-40000J0D01*
G01*
X4235000Y-5745500D02*
G75*
G03*
X4315000Y-5745500I40000J0D01*
G01*
X4315000Y-5999500D02*
G75*
G03*
X4235000Y-5999500I-40000J0D01*
G01*
X4235000Y-5999500D02*
G75*
G03*
X4315000Y-5999500I40000J0D01*
G01*
X5077000Y-4475500D02*
G75*
G03*
X4997000Y-4475500I-40000J0D01*
G01*
X4997000Y-4475500D02*
G75*
G03*
X5077000Y-4475500I40000J0D01*
G01*
X5077000Y-4983500D02*
G75*
G03*
X4997000Y-4983500I-40000J0D01*
G01*
X4997000Y-4983500D02*
G75*
G03*
X5077000Y-4983500I40000J0D01*
G01*
X5077000Y-5491500D02*
G75*
G03*
X4997000Y-5491500I-40000J0D01*
G01*
X4997000Y-5491500D02*
G75*
G03*
X5077000Y-5491500I40000J0D01*
G01*
X5077000Y-5999500D02*
G75*
G03*
X4997000Y-5999500I-40000J0D01*
G01*
X4997000Y-5999500D02*
G75*
G03*
X5077000Y-5999500I40000J0D01*
G01*
D11*
X4398277Y-6493984D02*
X4398277Y-6293984D01*
X4398277Y-6293984D02*
X4445896Y-6293984D01*
X4445896Y-6293984D02*
X4474467Y-6303508D01*
X4474467Y-6303508D02*
X4493515Y-6322555D01*
X4493515Y-6322555D02*
X4503039Y-6341603D01*
X4503039Y-6341603D02*
X4512563Y-6379698D01*
X4512563Y-6379698D02*
X4512563Y-6408269D01*
X4512563Y-6408269D02*
X4503039Y-6446365D01*
X4503039Y-6446365D02*
X4493515Y-6465412D01*
X4493515Y-6465412D02*
X4474467Y-6484460D01*
X4474467Y-6484460D02*
X4445896Y-6493984D01*
X4445896Y-6493984D02*
X4398277Y-6493984D01*
X4598277Y-6493984D02*
X4598277Y-6360650D01*
X4598277Y-6398746D02*
X4607801Y-6379698D01*
X4607801Y-6379698D02*
X4617324Y-6370174D01*
X4617324Y-6370174D02*
X4636372Y-6360650D01*
X4636372Y-6360650D02*
X4655420Y-6360650D01*
X4722086Y-6493984D02*
X4722086Y-6360650D01*
X4722086Y-6293984D02*
X4712563Y-6303508D01*
X4712563Y-6303508D02*
X4722086Y-6313031D01*
X4722086Y-6313031D02*
X4731610Y-6303508D01*
X4731610Y-6303508D02*
X4722086Y-6293984D01*
X4722086Y-6293984D02*
X4722086Y-6313031D01*
X4845896Y-6493984D02*
X4826848Y-6484460D01*
X4826848Y-6484460D02*
X4817324Y-6465412D01*
X4817324Y-6465412D02*
X4817324Y-6293984D01*
X4950658Y-6493984D02*
X4931610Y-6484460D01*
X4931610Y-6484460D02*
X4922086Y-6465412D01*
X4922086Y-6465412D02*
X4922086Y-6293984D01*
X5179229Y-6493984D02*
X5179229Y-6293984D01*
X5179229Y-6293984D02*
X5245896Y-6436841D01*
X5245896Y-6436841D02*
X5312563Y-6293984D01*
X5312563Y-6293984D02*
X5312563Y-6493984D01*
X5493515Y-6493984D02*
X5493515Y-6389222D01*
X5493515Y-6389222D02*
X5483991Y-6370174D01*
X5483991Y-6370174D02*
X5464944Y-6360650D01*
X5464944Y-6360650D02*
X5426848Y-6360650D01*
X5426848Y-6360650D02*
X5407801Y-6370174D01*
X5493515Y-6484460D02*
X5474467Y-6493984D01*
X5474467Y-6493984D02*
X5426848Y-6493984D01*
X5426848Y-6493984D02*
X5407801Y-6484460D01*
X5407801Y-6484460D02*
X5398277Y-6465412D01*
X5398277Y-6465412D02*
X5398277Y-6446365D01*
X5398277Y-6446365D02*
X5407801Y-6427317D01*
X5407801Y-6427317D02*
X5426848Y-6417793D01*
X5426848Y-6417793D02*
X5474467Y-6417793D01*
X5474467Y-6417793D02*
X5493515Y-6408269D01*
X5588753Y-6360650D02*
X5588753Y-6560650D01*
X5588753Y-6370174D02*
X5607801Y-6360650D01*
X5607801Y-6360650D02*
X5645896Y-6360650D01*
X5645896Y-6360650D02*
X5664943Y-6370174D01*
X5664943Y-6370174D02*
X5674467Y-6379698D01*
X5674467Y-6379698D02*
X5683991Y-6398746D01*
X5683991Y-6398746D02*
X5683991Y-6455888D01*
X5683991Y-6455888D02*
X5674467Y-6474936D01*
X5674467Y-6474936D02*
X5664943Y-6484460D01*
X5664943Y-6484460D02*
X5645896Y-6493984D01*
X5645896Y-6493984D02*
X5607801Y-6493984D01*
X5607801Y-6493984D02*
X5588753Y-6484460D01*
X5769705Y-6474936D02*
X5779229Y-6484460D01*
X5779229Y-6484460D02*
X5769705Y-6493984D01*
X5769705Y-6493984D02*
X5760182Y-6484460D01*
X5760182Y-6484460D02*
X5769705Y-6474936D01*
X5769705Y-6474936D02*
X5769705Y-6493984D01*
X5769705Y-6370174D02*
X5779229Y-6379698D01*
X5779229Y-6379698D02*
X5769705Y-6389222D01*
X5769705Y-6389222D02*
X5760182Y-6379698D01*
X5760182Y-6379698D02*
X5769705Y-6370174D01*
X5769705Y-6370174D02*
X5769705Y-6389222D01*
D12*
X4107500Y-6807500D02*
X4137500Y-6837500D01*
X4137500Y-6807500D02*
X4107500Y-6837500D01*
D11*
X4436372Y-6713984D02*
X4455420Y-6713984D01*
X4455420Y-6713984D02*
X4474467Y-6723508D01*
X4474467Y-6723508D02*
X4483991Y-6733031D01*
X4483991Y-6733031D02*
X4493515Y-6752079D01*
X4493515Y-6752079D02*
X4503039Y-6790174D01*
X4503039Y-6790174D02*
X4503039Y-6837793D01*
X4503039Y-6837793D02*
X4493515Y-6875888D01*
X4493515Y-6875888D02*
X4483991Y-6894936D01*
X4483991Y-6894936D02*
X4474467Y-6904460D01*
X4474467Y-6904460D02*
X4455420Y-6913984D01*
X4455420Y-6913984D02*
X4436372Y-6913984D01*
X4436372Y-6913984D02*
X4417324Y-6904460D01*
X4417324Y-6904460D02*
X4407801Y-6894936D01*
X4407801Y-6894936D02*
X4398277Y-6875888D01*
X4398277Y-6875888D02*
X4388753Y-6837793D01*
X4388753Y-6837793D02*
X4388753Y-6790174D01*
X4388753Y-6790174D02*
X4398277Y-6752079D01*
X4398277Y-6752079D02*
X4407801Y-6733031D01*
X4407801Y-6733031D02*
X4417324Y-6723508D01*
X4417324Y-6723508D02*
X4436372Y-6713984D01*
X4588753Y-6894936D02*
X4598277Y-6904460D01*
X4598277Y-6904460D02*
X4588753Y-6913984D01*
X4588753Y-6913984D02*
X4579229Y-6904460D01*
X4579229Y-6904460D02*
X4588753Y-6894936D01*
X4588753Y-6894936D02*
X4588753Y-6913984D01*
X4664944Y-6713984D02*
X4788753Y-6713984D01*
X4788753Y-6713984D02*
X4722086Y-6790174D01*
X4722086Y-6790174D02*
X4750658Y-6790174D01*
X4750658Y-6790174D02*
X4769705Y-6799698D01*
X4769705Y-6799698D02*
X4779229Y-6809222D01*
X4779229Y-6809222D02*
X4788753Y-6828269D01*
X4788753Y-6828269D02*
X4788753Y-6875888D01*
X4788753Y-6875888D02*
X4779229Y-6894936D01*
X4779229Y-6894936D02*
X4769705Y-6904460D01*
X4769705Y-6904460D02*
X4750658Y-6913984D01*
X4750658Y-6913984D02*
X4693515Y-6913984D01*
X4693515Y-6913984D02*
X4674467Y-6904460D01*
X4674467Y-6904460D02*
X4664944Y-6894936D01*
X4912563Y-6713984D02*
X4931610Y-6713984D01*
X4931610Y-6713984D02*
X4950658Y-6723508D01*
X4950658Y-6723508D02*
X4960182Y-6733031D01*
X4960182Y-6733031D02*
X4969705Y-6752079D01*
X4969705Y-6752079D02*
X4979229Y-6790174D01*
X4979229Y-6790174D02*
X4979229Y-6837793D01*
X4979229Y-6837793D02*
X4969705Y-6875888D01*
X4969705Y-6875888D02*
X4960182Y-6894936D01*
X4960182Y-6894936D02*
X4950658Y-6904460D01*
X4950658Y-6904460D02*
X4931610Y-6913984D01*
X4931610Y-6913984D02*
X4912563Y-6913984D01*
X4912563Y-6913984D02*
X4893515Y-6904460D01*
X4893515Y-6904460D02*
X4883991Y-6894936D01*
X4883991Y-6894936D02*
X4874467Y-6875888D01*
X4874467Y-6875888D02*
X4864944Y-6837793D01*
X4864944Y-6837793D02*
X4864944Y-6790174D01*
X4864944Y-6790174D02*
X4874467Y-6752079D01*
X4874467Y-6752079D02*
X4883991Y-6733031D01*
X4883991Y-6733031D02*
X4893515Y-6723508D01*
X4893515Y-6723508D02*
X4912563Y-6713984D01*
X5103039Y-6713984D02*
X5122086Y-6713984D01*
X5122086Y-6713984D02*
X5141134Y-6723508D01*
X5141134Y-6723508D02*
X5150658Y-6733031D01*
X5150658Y-6733031D02*
X5160182Y-6752079D01*
X5160182Y-6752079D02*
X5169705Y-6790174D01*
X5169705Y-6790174D02*
X5169705Y-6837793D01*
X5169705Y-6837793D02*
X5160182Y-6875888D01*
X5160182Y-6875888D02*
X5150658Y-6894936D01*
X5150658Y-6894936D02*
X5141134Y-6904460D01*
X5141134Y-6904460D02*
X5122086Y-6913984D01*
X5122086Y-6913984D02*
X5103039Y-6913984D01*
X5103039Y-6913984D02*
X5083991Y-6904460D01*
X5083991Y-6904460D02*
X5074467Y-6894936D01*
X5074467Y-6894936D02*
X5064944Y-6875888D01*
X5064944Y-6875888D02*
X5055420Y-6837793D01*
X5055420Y-6837793D02*
X5055420Y-6790174D01*
X5055420Y-6790174D02*
X5064944Y-6752079D01*
X5064944Y-6752079D02*
X5074467Y-6733031D01*
X5074467Y-6733031D02*
X5083991Y-6723508D01*
X5083991Y-6723508D02*
X5103039Y-6713984D01*
X5255420Y-6913984D02*
X5255420Y-6780650D01*
X5255420Y-6799698D02*
X5264944Y-6790174D01*
X5264944Y-6790174D02*
X5283991Y-6780650D01*
X5283991Y-6780650D02*
X5312563Y-6780650D01*
X5312563Y-6780650D02*
X5331610Y-6790174D01*
X5331610Y-6790174D02*
X5341134Y-6809222D01*
X5341134Y-6809222D02*
X5341134Y-6913984D01*
X5341134Y-6809222D02*
X5350658Y-6790174D01*
X5350658Y-6790174D02*
X5369705Y-6780650D01*
X5369705Y-6780650D02*
X5398277Y-6780650D01*
X5398277Y-6780650D02*
X5417325Y-6790174D01*
X5417325Y-6790174D02*
X5426848Y-6809222D01*
X5426848Y-6809222D02*
X5426848Y-6913984D01*
X5522086Y-6913984D02*
X5522086Y-6780650D01*
X5522086Y-6799698D02*
X5531610Y-6790174D01*
X5531610Y-6790174D02*
X5550658Y-6780650D01*
X5550658Y-6780650D02*
X5579229Y-6780650D01*
X5579229Y-6780650D02*
X5598277Y-6790174D01*
X5598277Y-6790174D02*
X5607801Y-6809222D01*
X5607801Y-6809222D02*
X5607801Y-6913984D01*
X5607801Y-6809222D02*
X5617324Y-6790174D01*
X5617324Y-6790174D02*
X5636372Y-6780650D01*
X5636372Y-6780650D02*
X5664943Y-6780650D01*
X5664943Y-6780650D02*
X5683991Y-6790174D01*
X5683991Y-6790174D02*
X5693515Y-6809222D01*
X5693515Y-6809222D02*
X5693515Y-6913984D01*
X6083991Y-6704460D02*
X5912563Y-6961603D01*
X6341134Y-6713984D02*
X6360182Y-6713984D01*
X6360182Y-6713984D02*
X6379229Y-6723508D01*
X6379229Y-6723508D02*
X6388753Y-6733031D01*
X6388753Y-6733031D02*
X6398277Y-6752079D01*
X6398277Y-6752079D02*
X6407801Y-6790174D01*
X6407801Y-6790174D02*
X6407801Y-6837793D01*
X6407801Y-6837793D02*
X6398277Y-6875888D01*
X6398277Y-6875888D02*
X6388753Y-6894936D01*
X6388753Y-6894936D02*
X6379229Y-6904460D01*
X6379229Y-6904460D02*
X6360182Y-6913984D01*
X6360182Y-6913984D02*
X6341134Y-6913984D01*
X6341134Y-6913984D02*
X6322086Y-6904460D01*
X6322086Y-6904460D02*
X6312563Y-6894936D01*
X6312563Y-6894936D02*
X6303039Y-6875888D01*
X6303039Y-6875888D02*
X6293515Y-6837793D01*
X6293515Y-6837793D02*
X6293515Y-6790174D01*
X6293515Y-6790174D02*
X6303039Y-6752079D01*
X6303039Y-6752079D02*
X6312563Y-6733031D01*
X6312563Y-6733031D02*
X6322086Y-6723508D01*
X6322086Y-6723508D02*
X6341134Y-6713984D01*
X6493515Y-6894936D02*
X6503039Y-6904460D01*
X6503039Y-6904460D02*
X6493515Y-6913984D01*
X6493515Y-6913984D02*
X6483991Y-6904460D01*
X6483991Y-6904460D02*
X6493515Y-6894936D01*
X6493515Y-6894936D02*
X6493515Y-6913984D01*
X6626848Y-6713984D02*
X6645896Y-6713984D01*
X6645896Y-6713984D02*
X6664944Y-6723508D01*
X6664944Y-6723508D02*
X6674467Y-6733031D01*
X6674467Y-6733031D02*
X6683991Y-6752079D01*
X6683991Y-6752079D02*
X6693515Y-6790174D01*
X6693515Y-6790174D02*
X6693515Y-6837793D01*
X6693515Y-6837793D02*
X6683991Y-6875888D01*
X6683991Y-6875888D02*
X6674467Y-6894936D01*
X6674467Y-6894936D02*
X6664944Y-6904460D01*
X6664944Y-6904460D02*
X6645896Y-6913984D01*
X6645896Y-6913984D02*
X6626848Y-6913984D01*
X6626848Y-6913984D02*
X6607801Y-6904460D01*
X6607801Y-6904460D02*
X6598277Y-6894936D01*
X6598277Y-6894936D02*
X6588753Y-6875888D01*
X6588753Y-6875888D02*
X6579229Y-6837793D01*
X6579229Y-6837793D02*
X6579229Y-6790174D01*
X6579229Y-6790174D02*
X6588753Y-6752079D01*
X6588753Y-6752079D02*
X6598277Y-6733031D01*
X6598277Y-6733031D02*
X6607801Y-6723508D01*
X6607801Y-6723508D02*
X6626848Y-6713984D01*
X6883991Y-6913984D02*
X6769706Y-6913984D01*
X6826848Y-6913984D02*
X6826848Y-6713984D01*
X6826848Y-6713984D02*
X6807801Y-6742555D01*
X6807801Y-6742555D02*
X6788753Y-6761603D01*
X6788753Y-6761603D02*
X6769706Y-6771127D01*
X7074467Y-6913984D02*
X6960182Y-6913984D01*
X7017325Y-6913984D02*
X7017325Y-6713984D01*
X7017325Y-6713984D02*
X6998277Y-6742555D01*
X6998277Y-6742555D02*
X6979229Y-6761603D01*
X6979229Y-6761603D02*
X6960182Y-6771127D01*
X7188753Y-6799698D02*
X7169706Y-6790174D01*
X7169706Y-6790174D02*
X7160182Y-6780650D01*
X7160182Y-6780650D02*
X7150658Y-6761603D01*
X7150658Y-6761603D02*
X7150658Y-6752079D01*
X7150658Y-6752079D02*
X7160182Y-6733031D01*
X7160182Y-6733031D02*
X7169706Y-6723508D01*
X7169706Y-6723508D02*
X7188753Y-6713984D01*
X7188753Y-6713984D02*
X7226848Y-6713984D01*
X7226848Y-6713984D02*
X7245896Y-6723508D01*
X7245896Y-6723508D02*
X7255420Y-6733031D01*
X7255420Y-6733031D02*
X7264944Y-6752079D01*
X7264944Y-6752079D02*
X7264944Y-6761603D01*
X7264944Y-6761603D02*
X7255420Y-6780650D01*
X7255420Y-6780650D02*
X7245896Y-6790174D01*
X7245896Y-6790174D02*
X7226848Y-6799698D01*
X7226848Y-6799698D02*
X7188753Y-6799698D01*
X7188753Y-6799698D02*
X7169706Y-6809222D01*
X7169706Y-6809222D02*
X7160182Y-6818746D01*
X7160182Y-6818746D02*
X7150658Y-6837793D01*
X7150658Y-6837793D02*
X7150658Y-6875888D01*
X7150658Y-6875888D02*
X7160182Y-6894936D01*
X7160182Y-6894936D02*
X7169706Y-6904460D01*
X7169706Y-6904460D02*
X7188753Y-6913984D01*
X7188753Y-6913984D02*
X7226848Y-6913984D01*
X7226848Y-6913984D02*
X7245896Y-6904460D01*
X7245896Y-6904460D02*
X7255420Y-6894936D01*
X7255420Y-6894936D02*
X7264944Y-6875888D01*
X7264944Y-6875888D02*
X7264944Y-6837793D01*
X7264944Y-6837793D02*
X7255420Y-6818746D01*
X7255420Y-6818746D02*
X7245896Y-6809222D01*
X7245896Y-6809222D02*
X7226848Y-6799698D01*
X7341134Y-6713984D02*
X7341134Y-6752079D01*
X7417325Y-6713984D02*
X7417325Y-6752079D01*
X7712563Y-6990174D02*
X7703039Y-6980650D01*
X7703039Y-6980650D02*
X7683991Y-6952079D01*
X7683991Y-6952079D02*
X7674468Y-6933031D01*
X7674468Y-6933031D02*
X7664944Y-6904460D01*
X7664944Y-6904460D02*
X7655420Y-6856841D01*
X7655420Y-6856841D02*
X7655420Y-6818746D01*
X7655420Y-6818746D02*
X7664944Y-6771127D01*
X7664944Y-6771127D02*
X7674468Y-6742555D01*
X7674468Y-6742555D02*
X7683991Y-6723508D01*
X7683991Y-6723508D02*
X7703039Y-6694936D01*
X7703039Y-6694936D02*
X7712563Y-6685412D01*
X7893515Y-6913984D02*
X7779229Y-6913984D01*
X7836372Y-6913984D02*
X7836372Y-6713984D01*
X7836372Y-6713984D02*
X7817325Y-6742555D01*
X7817325Y-6742555D02*
X7798277Y-6761603D01*
X7798277Y-6761603D02*
X7779229Y-6771127D01*
X8131610Y-6913984D02*
X8131610Y-6713984D01*
X8217325Y-6913984D02*
X8217325Y-6809222D01*
X8217325Y-6809222D02*
X8207801Y-6790174D01*
X8207801Y-6790174D02*
X8188753Y-6780650D01*
X8188753Y-6780650D02*
X8160182Y-6780650D01*
X8160182Y-6780650D02*
X8141134Y-6790174D01*
X8141134Y-6790174D02*
X8131610Y-6799698D01*
X8341134Y-6913984D02*
X8322087Y-6904460D01*
X8322087Y-6904460D02*
X8312563Y-6894936D01*
X8312563Y-6894936D02*
X8303039Y-6875888D01*
X8303039Y-6875888D02*
X8303039Y-6818746D01*
X8303039Y-6818746D02*
X8312563Y-6799698D01*
X8312563Y-6799698D02*
X8322087Y-6790174D01*
X8322087Y-6790174D02*
X8341134Y-6780650D01*
X8341134Y-6780650D02*
X8369706Y-6780650D01*
X8369706Y-6780650D02*
X8388753Y-6790174D01*
X8388753Y-6790174D02*
X8398277Y-6799698D01*
X8398277Y-6799698D02*
X8407801Y-6818746D01*
X8407801Y-6818746D02*
X8407801Y-6875888D01*
X8407801Y-6875888D02*
X8398277Y-6894936D01*
X8398277Y-6894936D02*
X8388753Y-6904460D01*
X8388753Y-6904460D02*
X8369706Y-6913984D01*
X8369706Y-6913984D02*
X8341134Y-6913984D01*
X8522087Y-6913984D02*
X8503039Y-6904460D01*
X8503039Y-6904460D02*
X8493515Y-6885412D01*
X8493515Y-6885412D02*
X8493515Y-6713984D01*
X8674468Y-6904460D02*
X8655420Y-6913984D01*
X8655420Y-6913984D02*
X8617325Y-6913984D01*
X8617325Y-6913984D02*
X8598277Y-6904460D01*
X8598277Y-6904460D02*
X8588753Y-6885412D01*
X8588753Y-6885412D02*
X8588753Y-6809222D01*
X8588753Y-6809222D02*
X8598277Y-6790174D01*
X8598277Y-6790174D02*
X8617325Y-6780650D01*
X8617325Y-6780650D02*
X8655420Y-6780650D01*
X8655420Y-6780650D02*
X8674468Y-6790174D01*
X8674468Y-6790174D02*
X8683992Y-6809222D01*
X8683992Y-6809222D02*
X8683992Y-6828269D01*
X8683992Y-6828269D02*
X8588753Y-6847317D01*
X8750658Y-6990174D02*
X8760182Y-6980650D01*
X8760182Y-6980650D02*
X8779230Y-6952079D01*
X8779230Y-6952079D02*
X8788753Y-6933031D01*
X8788753Y-6933031D02*
X8798277Y-6904460D01*
X8798277Y-6904460D02*
X8807801Y-6856841D01*
X8807801Y-6856841D02*
X8807801Y-6818746D01*
X8807801Y-6818746D02*
X8798277Y-6771127D01*
X8798277Y-6771127D02*
X8788753Y-6742555D01*
X8788753Y-6742555D02*
X8779230Y-6723508D01*
X8779230Y-6723508D02*
X8760182Y-6694936D01*
X8760182Y-6694936D02*
X8750658Y-6685412D01*
D12*
X4137500Y-7086500D02*
G75*
G03*
X4057500Y-7086500I-40000J0D01*
G01*
X4057500Y-7086500D02*
G75*
G03*
X4137500Y-7086500I40000J0D01*
G01*
D11*
X4436372Y-6977984D02*
X4455420Y-6977984D01*
X4455420Y-6977984D02*
X4474467Y-6987508D01*
X4474467Y-6987508D02*
X4483991Y-6997031D01*
X4483991Y-6997031D02*
X4493515Y-7016079D01*
X4493515Y-7016079D02*
X4503039Y-7054174D01*
X4503039Y-7054174D02*
X4503039Y-7101793D01*
X4503039Y-7101793D02*
X4493515Y-7139888D01*
X4493515Y-7139888D02*
X4483991Y-7158936D01*
X4483991Y-7158936D02*
X4474467Y-7168460D01*
X4474467Y-7168460D02*
X4455420Y-7177984D01*
X4455420Y-7177984D02*
X4436372Y-7177984D01*
X4436372Y-7177984D02*
X4417324Y-7168460D01*
X4417324Y-7168460D02*
X4407801Y-7158936D01*
X4407801Y-7158936D02*
X4398277Y-7139888D01*
X4398277Y-7139888D02*
X4388753Y-7101793D01*
X4388753Y-7101793D02*
X4388753Y-7054174D01*
X4388753Y-7054174D02*
X4398277Y-7016079D01*
X4398277Y-7016079D02*
X4407801Y-6997031D01*
X4407801Y-6997031D02*
X4417324Y-6987508D01*
X4417324Y-6987508D02*
X4436372Y-6977984D01*
X4588753Y-7158936D02*
X4598277Y-7168460D01*
X4598277Y-7168460D02*
X4588753Y-7177984D01*
X4588753Y-7177984D02*
X4579229Y-7168460D01*
X4579229Y-7168460D02*
X4588753Y-7158936D01*
X4588753Y-7158936D02*
X4588753Y-7177984D01*
X4712563Y-7063698D02*
X4693515Y-7054174D01*
X4693515Y-7054174D02*
X4683991Y-7044650D01*
X4683991Y-7044650D02*
X4674467Y-7025603D01*
X4674467Y-7025603D02*
X4674467Y-7016079D01*
X4674467Y-7016079D02*
X4683991Y-6997031D01*
X4683991Y-6997031D02*
X4693515Y-6987508D01*
X4693515Y-6987508D02*
X4712563Y-6977984D01*
X4712563Y-6977984D02*
X4750658Y-6977984D01*
X4750658Y-6977984D02*
X4769705Y-6987508D01*
X4769705Y-6987508D02*
X4779229Y-6997031D01*
X4779229Y-6997031D02*
X4788753Y-7016079D01*
X4788753Y-7016079D02*
X4788753Y-7025603D01*
X4788753Y-7025603D02*
X4779229Y-7044650D01*
X4779229Y-7044650D02*
X4769705Y-7054174D01*
X4769705Y-7054174D02*
X4750658Y-7063698D01*
X4750658Y-7063698D02*
X4712563Y-7063698D01*
X4712563Y-7063698D02*
X4693515Y-7073222D01*
X4693515Y-7073222D02*
X4683991Y-7082746D01*
X4683991Y-7082746D02*
X4674467Y-7101793D01*
X4674467Y-7101793D02*
X4674467Y-7139888D01*
X4674467Y-7139888D02*
X4683991Y-7158936D01*
X4683991Y-7158936D02*
X4693515Y-7168460D01*
X4693515Y-7168460D02*
X4712563Y-7177984D01*
X4712563Y-7177984D02*
X4750658Y-7177984D01*
X4750658Y-7177984D02*
X4769705Y-7168460D01*
X4769705Y-7168460D02*
X4779229Y-7158936D01*
X4779229Y-7158936D02*
X4788753Y-7139888D01*
X4788753Y-7139888D02*
X4788753Y-7101793D01*
X4788753Y-7101793D02*
X4779229Y-7082746D01*
X4779229Y-7082746D02*
X4769705Y-7073222D01*
X4769705Y-7073222D02*
X4750658Y-7063698D01*
X4912563Y-6977984D02*
X4931610Y-6977984D01*
X4931610Y-6977984D02*
X4950658Y-6987508D01*
X4950658Y-6987508D02*
X4960182Y-6997031D01*
X4960182Y-6997031D02*
X4969705Y-7016079D01*
X4969705Y-7016079D02*
X4979229Y-7054174D01*
X4979229Y-7054174D02*
X4979229Y-7101793D01*
X4979229Y-7101793D02*
X4969705Y-7139888D01*
X4969705Y-7139888D02*
X4960182Y-7158936D01*
X4960182Y-7158936D02*
X4950658Y-7168460D01*
X4950658Y-7168460D02*
X4931610Y-7177984D01*
X4931610Y-7177984D02*
X4912563Y-7177984D01*
X4912563Y-7177984D02*
X4893515Y-7168460D01*
X4893515Y-7168460D02*
X4883991Y-7158936D01*
X4883991Y-7158936D02*
X4874467Y-7139888D01*
X4874467Y-7139888D02*
X4864944Y-7101793D01*
X4864944Y-7101793D02*
X4864944Y-7054174D01*
X4864944Y-7054174D02*
X4874467Y-7016079D01*
X4874467Y-7016079D02*
X4883991Y-6997031D01*
X4883991Y-6997031D02*
X4893515Y-6987508D01*
X4893515Y-6987508D02*
X4912563Y-6977984D01*
X5103039Y-6977984D02*
X5122086Y-6977984D01*
X5122086Y-6977984D02*
X5141134Y-6987508D01*
X5141134Y-6987508D02*
X5150658Y-6997031D01*
X5150658Y-6997031D02*
X5160182Y-7016079D01*
X5160182Y-7016079D02*
X5169705Y-7054174D01*
X5169705Y-7054174D02*
X5169705Y-7101793D01*
X5169705Y-7101793D02*
X5160182Y-7139888D01*
X5160182Y-7139888D02*
X5150658Y-7158936D01*
X5150658Y-7158936D02*
X5141134Y-7168460D01*
X5141134Y-7168460D02*
X5122086Y-7177984D01*
X5122086Y-7177984D02*
X5103039Y-7177984D01*
X5103039Y-7177984D02*
X5083991Y-7168460D01*
X5083991Y-7168460D02*
X5074467Y-7158936D01*
X5074467Y-7158936D02*
X5064944Y-7139888D01*
X5064944Y-7139888D02*
X5055420Y-7101793D01*
X5055420Y-7101793D02*
X5055420Y-7054174D01*
X5055420Y-7054174D02*
X5064944Y-7016079D01*
X5064944Y-7016079D02*
X5074467Y-6997031D01*
X5074467Y-6997031D02*
X5083991Y-6987508D01*
X5083991Y-6987508D02*
X5103039Y-6977984D01*
X5255420Y-7177984D02*
X5255420Y-7044650D01*
X5255420Y-7063698D02*
X5264944Y-7054174D01*
X5264944Y-7054174D02*
X5283991Y-7044650D01*
X5283991Y-7044650D02*
X5312563Y-7044650D01*
X5312563Y-7044650D02*
X5331610Y-7054174D01*
X5331610Y-7054174D02*
X5341134Y-7073222D01*
X5341134Y-7073222D02*
X5341134Y-7177984D01*
X5341134Y-7073222D02*
X5350658Y-7054174D01*
X5350658Y-7054174D02*
X5369705Y-7044650D01*
X5369705Y-7044650D02*
X5398277Y-7044650D01*
X5398277Y-7044650D02*
X5417325Y-7054174D01*
X5417325Y-7054174D02*
X5426848Y-7073222D01*
X5426848Y-7073222D02*
X5426848Y-7177984D01*
X5522086Y-7177984D02*
X5522086Y-7044650D01*
X5522086Y-7063698D02*
X5531610Y-7054174D01*
X5531610Y-7054174D02*
X5550658Y-7044650D01*
X5550658Y-7044650D02*
X5579229Y-7044650D01*
X5579229Y-7044650D02*
X5598277Y-7054174D01*
X5598277Y-7054174D02*
X5607801Y-7073222D01*
X5607801Y-7073222D02*
X5607801Y-7177984D01*
X5607801Y-7073222D02*
X5617324Y-7054174D01*
X5617324Y-7054174D02*
X5636372Y-7044650D01*
X5636372Y-7044650D02*
X5664943Y-7044650D01*
X5664943Y-7044650D02*
X5683991Y-7054174D01*
X5683991Y-7054174D02*
X5693515Y-7073222D01*
X5693515Y-7073222D02*
X5693515Y-7177984D01*
X6083991Y-6968460D02*
X5912563Y-7225603D01*
X6341134Y-6977984D02*
X6360182Y-6977984D01*
X6360182Y-6977984D02*
X6379229Y-6987508D01*
X6379229Y-6987508D02*
X6388753Y-6997031D01*
X6388753Y-6997031D02*
X6398277Y-7016079D01*
X6398277Y-7016079D02*
X6407801Y-7054174D01*
X6407801Y-7054174D02*
X6407801Y-7101793D01*
X6407801Y-7101793D02*
X6398277Y-7139888D01*
X6398277Y-7139888D02*
X6388753Y-7158936D01*
X6388753Y-7158936D02*
X6379229Y-7168460D01*
X6379229Y-7168460D02*
X6360182Y-7177984D01*
X6360182Y-7177984D02*
X6341134Y-7177984D01*
X6341134Y-7177984D02*
X6322086Y-7168460D01*
X6322086Y-7168460D02*
X6312563Y-7158936D01*
X6312563Y-7158936D02*
X6303039Y-7139888D01*
X6303039Y-7139888D02*
X6293515Y-7101793D01*
X6293515Y-7101793D02*
X6293515Y-7054174D01*
X6293515Y-7054174D02*
X6303039Y-7016079D01*
X6303039Y-7016079D02*
X6312563Y-6997031D01*
X6312563Y-6997031D02*
X6322086Y-6987508D01*
X6322086Y-6987508D02*
X6341134Y-6977984D01*
X6493515Y-7158936D02*
X6503039Y-7168460D01*
X6503039Y-7168460D02*
X6493515Y-7177984D01*
X6493515Y-7177984D02*
X6483991Y-7168460D01*
X6483991Y-7168460D02*
X6493515Y-7158936D01*
X6493515Y-7158936D02*
X6493515Y-7177984D01*
X6626848Y-6977984D02*
X6645896Y-6977984D01*
X6645896Y-6977984D02*
X6664944Y-6987508D01*
X6664944Y-6987508D02*
X6674467Y-6997031D01*
X6674467Y-6997031D02*
X6683991Y-7016079D01*
X6683991Y-7016079D02*
X6693515Y-7054174D01*
X6693515Y-7054174D02*
X6693515Y-7101793D01*
X6693515Y-7101793D02*
X6683991Y-7139888D01*
X6683991Y-7139888D02*
X6674467Y-7158936D01*
X6674467Y-7158936D02*
X6664944Y-7168460D01*
X6664944Y-7168460D02*
X6645896Y-7177984D01*
X6645896Y-7177984D02*
X6626848Y-7177984D01*
X6626848Y-7177984D02*
X6607801Y-7168460D01*
X6607801Y-7168460D02*
X6598277Y-7158936D01*
X6598277Y-7158936D02*
X6588753Y-7139888D01*
X6588753Y-7139888D02*
X6579229Y-7101793D01*
X6579229Y-7101793D02*
X6579229Y-7054174D01*
X6579229Y-7054174D02*
X6588753Y-7016079D01*
X6588753Y-7016079D02*
X6598277Y-6997031D01*
X6598277Y-6997031D02*
X6607801Y-6987508D01*
X6607801Y-6987508D02*
X6626848Y-6977984D01*
X6760182Y-6977984D02*
X6883991Y-6977984D01*
X6883991Y-6977984D02*
X6817325Y-7054174D01*
X6817325Y-7054174D02*
X6845896Y-7054174D01*
X6845896Y-7054174D02*
X6864944Y-7063698D01*
X6864944Y-7063698D02*
X6874467Y-7073222D01*
X6874467Y-7073222D02*
X6883991Y-7092269D01*
X6883991Y-7092269D02*
X6883991Y-7139888D01*
X6883991Y-7139888D02*
X6874467Y-7158936D01*
X6874467Y-7158936D02*
X6864944Y-7168460D01*
X6864944Y-7168460D02*
X6845896Y-7177984D01*
X6845896Y-7177984D02*
X6788753Y-7177984D01*
X6788753Y-7177984D02*
X6769706Y-7168460D01*
X6769706Y-7168460D02*
X6760182Y-7158936D01*
X7074467Y-7177984D02*
X6960182Y-7177984D01*
X7017325Y-7177984D02*
X7017325Y-6977984D01*
X7017325Y-6977984D02*
X6998277Y-7006555D01*
X6998277Y-7006555D02*
X6979229Y-7025603D01*
X6979229Y-7025603D02*
X6960182Y-7035127D01*
X7255420Y-6977984D02*
X7160182Y-6977984D01*
X7160182Y-6977984D02*
X7150658Y-7073222D01*
X7150658Y-7073222D02*
X7160182Y-7063698D01*
X7160182Y-7063698D02*
X7179229Y-7054174D01*
X7179229Y-7054174D02*
X7226848Y-7054174D01*
X7226848Y-7054174D02*
X7245896Y-7063698D01*
X7245896Y-7063698D02*
X7255420Y-7073222D01*
X7255420Y-7073222D02*
X7264944Y-7092269D01*
X7264944Y-7092269D02*
X7264944Y-7139888D01*
X7264944Y-7139888D02*
X7255420Y-7158936D01*
X7255420Y-7158936D02*
X7245896Y-7168460D01*
X7245896Y-7168460D02*
X7226848Y-7177984D01*
X7226848Y-7177984D02*
X7179229Y-7177984D01*
X7179229Y-7177984D02*
X7160182Y-7168460D01*
X7160182Y-7168460D02*
X7150658Y-7158936D01*
X7341134Y-6977984D02*
X7341134Y-7016079D01*
X7417325Y-6977984D02*
X7417325Y-7016079D01*
X7712563Y-7254174D02*
X7703039Y-7244650D01*
X7703039Y-7244650D02*
X7683991Y-7216079D01*
X7683991Y-7216079D02*
X7674468Y-7197031D01*
X7674468Y-7197031D02*
X7664944Y-7168460D01*
X7664944Y-7168460D02*
X7655420Y-7120841D01*
X7655420Y-7120841D02*
X7655420Y-7082746D01*
X7655420Y-7082746D02*
X7664944Y-7035127D01*
X7664944Y-7035127D02*
X7674468Y-7006555D01*
X7674468Y-7006555D02*
X7683991Y-6987508D01*
X7683991Y-6987508D02*
X7703039Y-6958936D01*
X7703039Y-6958936D02*
X7712563Y-6949412D01*
X7817325Y-7063698D02*
X7798277Y-7054174D01*
X7798277Y-7054174D02*
X7788753Y-7044650D01*
X7788753Y-7044650D02*
X7779229Y-7025603D01*
X7779229Y-7025603D02*
X7779229Y-7016079D01*
X7779229Y-7016079D02*
X7788753Y-6997031D01*
X7788753Y-6997031D02*
X7798277Y-6987508D01*
X7798277Y-6987508D02*
X7817325Y-6977984D01*
X7817325Y-6977984D02*
X7855420Y-6977984D01*
X7855420Y-6977984D02*
X7874468Y-6987508D01*
X7874468Y-6987508D02*
X7883991Y-6997031D01*
X7883991Y-6997031D02*
X7893515Y-7016079D01*
X7893515Y-7016079D02*
X7893515Y-7025603D01*
X7893515Y-7025603D02*
X7883991Y-7044650D01*
X7883991Y-7044650D02*
X7874468Y-7054174D01*
X7874468Y-7054174D02*
X7855420Y-7063698D01*
X7855420Y-7063698D02*
X7817325Y-7063698D01*
X7817325Y-7063698D02*
X7798277Y-7073222D01*
X7798277Y-7073222D02*
X7788753Y-7082746D01*
X7788753Y-7082746D02*
X7779229Y-7101793D01*
X7779229Y-7101793D02*
X7779229Y-7139888D01*
X7779229Y-7139888D02*
X7788753Y-7158936D01*
X7788753Y-7158936D02*
X7798277Y-7168460D01*
X7798277Y-7168460D02*
X7817325Y-7177984D01*
X7817325Y-7177984D02*
X7855420Y-7177984D01*
X7855420Y-7177984D02*
X7874468Y-7168460D01*
X7874468Y-7168460D02*
X7883991Y-7158936D01*
X7883991Y-7158936D02*
X7893515Y-7139888D01*
X7893515Y-7139888D02*
X7893515Y-7101793D01*
X7893515Y-7101793D02*
X7883991Y-7082746D01*
X7883991Y-7082746D02*
X7874468Y-7073222D01*
X7874468Y-7073222D02*
X7855420Y-7063698D01*
X8131610Y-7177984D02*
X8131610Y-6977984D01*
X8217325Y-7177984D02*
X8217325Y-7073222D01*
X8217325Y-7073222D02*
X8207801Y-7054174D01*
X8207801Y-7054174D02*
X8188753Y-7044650D01*
X8188753Y-7044650D02*
X8160182Y-7044650D01*
X8160182Y-7044650D02*
X8141134Y-7054174D01*
X8141134Y-7054174D02*
X8131610Y-7063698D01*
X8341134Y-7177984D02*
X8322087Y-7168460D01*
X8322087Y-7168460D02*
X8312563Y-7158936D01*
X8312563Y-7158936D02*
X8303039Y-7139888D01*
X8303039Y-7139888D02*
X8303039Y-7082746D01*
X8303039Y-7082746D02*
X8312563Y-7063698D01*
X8312563Y-7063698D02*
X8322087Y-7054174D01*
X8322087Y-7054174D02*
X8341134Y-7044650D01*
X8341134Y-7044650D02*
X8369706Y-7044650D01*
X8369706Y-7044650D02*
X8388753Y-7054174D01*
X8388753Y-7054174D02*
X8398277Y-7063698D01*
X8398277Y-7063698D02*
X8407801Y-7082746D01*
X8407801Y-7082746D02*
X8407801Y-7139888D01*
X8407801Y-7139888D02*
X8398277Y-7158936D01*
X8398277Y-7158936D02*
X8388753Y-7168460D01*
X8388753Y-7168460D02*
X8369706Y-7177984D01*
X8369706Y-7177984D02*
X8341134Y-7177984D01*
X8522087Y-7177984D02*
X8503039Y-7168460D01*
X8503039Y-7168460D02*
X8493515Y-7149412D01*
X8493515Y-7149412D02*
X8493515Y-6977984D01*
X8674468Y-7168460D02*
X8655420Y-7177984D01*
X8655420Y-7177984D02*
X8617325Y-7177984D01*
X8617325Y-7177984D02*
X8598277Y-7168460D01*
X8598277Y-7168460D02*
X8588753Y-7149412D01*
X8588753Y-7149412D02*
X8588753Y-7073222D01*
X8588753Y-7073222D02*
X8598277Y-7054174D01*
X8598277Y-7054174D02*
X8617325Y-7044650D01*
X8617325Y-7044650D02*
X8655420Y-7044650D01*
X8655420Y-7044650D02*
X8674468Y-7054174D01*
X8674468Y-7054174D02*
X8683992Y-7073222D01*
X8683992Y-7073222D02*
X8683992Y-7092269D01*
X8683992Y-7092269D02*
X8588753Y-7111317D01*
X8760182Y-7168460D02*
X8779230Y-7177984D01*
X8779230Y-7177984D02*
X8817325Y-7177984D01*
X8817325Y-7177984D02*
X8836373Y-7168460D01*
X8836373Y-7168460D02*
X8845896Y-7149412D01*
X8845896Y-7149412D02*
X8845896Y-7139888D01*
X8845896Y-7139888D02*
X8836373Y-7120841D01*
X8836373Y-7120841D02*
X8817325Y-7111317D01*
X8817325Y-7111317D02*
X8788753Y-7111317D01*
X8788753Y-7111317D02*
X8769706Y-7101793D01*
X8769706Y-7101793D02*
X8760182Y-7082746D01*
X8760182Y-7082746D02*
X8760182Y-7073222D01*
X8760182Y-7073222D02*
X8769706Y-7054174D01*
X8769706Y-7054174D02*
X8788753Y-7044650D01*
X8788753Y-7044650D02*
X8817325Y-7044650D01*
X8817325Y-7044650D02*
X8836373Y-7054174D01*
X8912563Y-7254174D02*
X8922087Y-7244650D01*
X8922087Y-7244650D02*
X8941134Y-7216079D01*
X8941134Y-7216079D02*
X8950658Y-7197031D01*
X8950658Y-7197031D02*
X8960182Y-7168460D01*
X8960182Y-7168460D02*
X8969706Y-7120841D01*
X8969706Y-7120841D02*
X8969706Y-7082746D01*
X8969706Y-7082746D02*
X8960182Y-7035127D01*
X8960182Y-7035127D02*
X8950658Y-7006555D01*
X8950658Y-7006555D02*
X8941134Y-6987508D01*
X8941134Y-6987508D02*
X8922087Y-6958936D01*
X8922087Y-6958936D02*
X8912563Y-6949412D01*
M02*
