%TF.GenerationSoftware,KiCad,Pcbnew,7.0.11*%
%TF.CreationDate,2024-05-17T15:10:08+03:00*%
%TF.ProjectId,time_delay,74696d65-5f64-4656-9c61-792e6b696361,rev?*%
%TF.SameCoordinates,Original*%
%TF.FileFunction,Legend,Bot*%
%TF.FilePolarity,Positive*%
%FSLAX46Y46*%
G04 Gerber Fmt 4.6, Leading zero omitted, Abs format (unit mm)*
G04 Created by KiCad (PCBNEW 7.0.11) date 2024-05-17 15:10:08*
%MOMM*%
%LPD*%
G01*
G04 APERTURE LIST*
%ADD10C,0.150000*%
G04 APERTURE END LIST*
D10*
X47159819Y-44880951D02*
X46159819Y-44880951D01*
X46159819Y-44880951D02*
X46159819Y-45261903D01*
X46159819Y-45261903D02*
X46207438Y-45357141D01*
X46207438Y-45357141D02*
X46255057Y-45404760D01*
X46255057Y-45404760D02*
X46350295Y-45452379D01*
X46350295Y-45452379D02*
X46493152Y-45452379D01*
X46493152Y-45452379D02*
X46588390Y-45404760D01*
X46588390Y-45404760D02*
X46636009Y-45357141D01*
X46636009Y-45357141D02*
X46683628Y-45261903D01*
X46683628Y-45261903D02*
X46683628Y-44880951D01*
X47159819Y-45880951D02*
X46493152Y-45880951D01*
X46683628Y-45880951D02*
X46588390Y-45928570D01*
X46588390Y-45928570D02*
X46540771Y-45976189D01*
X46540771Y-45976189D02*
X46493152Y-46071427D01*
X46493152Y-46071427D02*
X46493152Y-46166665D01*
X47159819Y-46642856D02*
X47112200Y-46547618D01*
X47112200Y-46547618D02*
X47064580Y-46499999D01*
X47064580Y-46499999D02*
X46969342Y-46452380D01*
X46969342Y-46452380D02*
X46683628Y-46452380D01*
X46683628Y-46452380D02*
X46588390Y-46499999D01*
X46588390Y-46499999D02*
X46540771Y-46547618D01*
X46540771Y-46547618D02*
X46493152Y-46642856D01*
X46493152Y-46642856D02*
X46493152Y-46785713D01*
X46493152Y-46785713D02*
X46540771Y-46880951D01*
X46540771Y-46880951D02*
X46588390Y-46928570D01*
X46588390Y-46928570D02*
X46683628Y-46976189D01*
X46683628Y-46976189D02*
X46969342Y-46976189D01*
X46969342Y-46976189D02*
X47064580Y-46928570D01*
X47064580Y-46928570D02*
X47112200Y-46880951D01*
X47112200Y-46880951D02*
X47159819Y-46785713D01*
X47159819Y-46785713D02*
X47159819Y-46642856D01*
X46493152Y-47261904D02*
X46493152Y-47642856D01*
X46159819Y-47404761D02*
X47016961Y-47404761D01*
X47016961Y-47404761D02*
X47112200Y-47452380D01*
X47112200Y-47452380D02*
X47159819Y-47547618D01*
X47159819Y-47547618D02*
X47159819Y-47642856D01*
X47159819Y-48119047D02*
X47112200Y-48023809D01*
X47112200Y-48023809D02*
X47064580Y-47976190D01*
X47064580Y-47976190D02*
X46969342Y-47928571D01*
X46969342Y-47928571D02*
X46683628Y-47928571D01*
X46683628Y-47928571D02*
X46588390Y-47976190D01*
X46588390Y-47976190D02*
X46540771Y-48023809D01*
X46540771Y-48023809D02*
X46493152Y-48119047D01*
X46493152Y-48119047D02*
X46493152Y-48261904D01*
X46493152Y-48261904D02*
X46540771Y-48357142D01*
X46540771Y-48357142D02*
X46588390Y-48404761D01*
X46588390Y-48404761D02*
X46683628Y-48452380D01*
X46683628Y-48452380D02*
X46969342Y-48452380D01*
X46969342Y-48452380D02*
X47064580Y-48404761D01*
X47064580Y-48404761D02*
X47112200Y-48357142D01*
X47112200Y-48357142D02*
X47159819Y-48261904D01*
X47159819Y-48261904D02*
X47159819Y-48119047D01*
X46493152Y-48738095D02*
X46493152Y-49119047D01*
X46159819Y-48880952D02*
X47016961Y-48880952D01*
X47016961Y-48880952D02*
X47112200Y-48928571D01*
X47112200Y-48928571D02*
X47159819Y-49023809D01*
X47159819Y-49023809D02*
X47159819Y-49119047D01*
X46493152Y-49357143D02*
X47159819Y-49595238D01*
X46493152Y-49833333D02*
X47159819Y-49595238D01*
X47159819Y-49595238D02*
X47397914Y-49500000D01*
X47397914Y-49500000D02*
X47445533Y-49452381D01*
X47445533Y-49452381D02*
X47493152Y-49357143D01*
X46493152Y-50214286D02*
X47493152Y-50214286D01*
X46540771Y-50214286D02*
X46493152Y-50309524D01*
X46493152Y-50309524D02*
X46493152Y-50500000D01*
X46493152Y-50500000D02*
X46540771Y-50595238D01*
X46540771Y-50595238D02*
X46588390Y-50642857D01*
X46588390Y-50642857D02*
X46683628Y-50690476D01*
X46683628Y-50690476D02*
X46969342Y-50690476D01*
X46969342Y-50690476D02*
X47064580Y-50642857D01*
X47064580Y-50642857D02*
X47112200Y-50595238D01*
X47112200Y-50595238D02*
X47159819Y-50500000D01*
X47159819Y-50500000D02*
X47159819Y-50309524D01*
X47159819Y-50309524D02*
X47112200Y-50214286D01*
X47112200Y-51500000D02*
X47159819Y-51404762D01*
X47159819Y-51404762D02*
X47159819Y-51214286D01*
X47159819Y-51214286D02*
X47112200Y-51119048D01*
X47112200Y-51119048D02*
X47016961Y-51071429D01*
X47016961Y-51071429D02*
X46636009Y-51071429D01*
X46636009Y-51071429D02*
X46540771Y-51119048D01*
X46540771Y-51119048D02*
X46493152Y-51214286D01*
X46493152Y-51214286D02*
X46493152Y-51404762D01*
X46493152Y-51404762D02*
X46540771Y-51500000D01*
X46540771Y-51500000D02*
X46636009Y-51547619D01*
X46636009Y-51547619D02*
X46731247Y-51547619D01*
X46731247Y-51547619D02*
X46826485Y-51071429D01*
X47159819Y-52738096D02*
X46159819Y-52738096D01*
X46540771Y-52738096D02*
X46493152Y-52833334D01*
X46493152Y-52833334D02*
X46493152Y-53023810D01*
X46493152Y-53023810D02*
X46540771Y-53119048D01*
X46540771Y-53119048D02*
X46588390Y-53166667D01*
X46588390Y-53166667D02*
X46683628Y-53214286D01*
X46683628Y-53214286D02*
X46969342Y-53214286D01*
X46969342Y-53214286D02*
X47064580Y-53166667D01*
X47064580Y-53166667D02*
X47112200Y-53119048D01*
X47112200Y-53119048D02*
X47159819Y-53023810D01*
X47159819Y-53023810D02*
X47159819Y-52833334D01*
X47159819Y-52833334D02*
X47112200Y-52738096D01*
X46493152Y-53547620D02*
X47159819Y-53785715D01*
X46493152Y-54023810D02*
X47159819Y-53785715D01*
X47159819Y-53785715D02*
X47397914Y-53690477D01*
X47397914Y-53690477D02*
X47445533Y-53642858D01*
X47445533Y-53642858D02*
X47493152Y-53547620D01*
X47159819Y-55166668D02*
X46159819Y-55166668D01*
X46159819Y-55166668D02*
X46874104Y-55500001D01*
X46874104Y-55500001D02*
X46159819Y-55833334D01*
X46159819Y-55833334D02*
X47159819Y-55833334D01*
X47159819Y-56738096D02*
X46636009Y-56738096D01*
X46636009Y-56738096D02*
X46540771Y-56690477D01*
X46540771Y-56690477D02*
X46493152Y-56595239D01*
X46493152Y-56595239D02*
X46493152Y-56404763D01*
X46493152Y-56404763D02*
X46540771Y-56309525D01*
X47112200Y-56738096D02*
X47159819Y-56642858D01*
X47159819Y-56642858D02*
X47159819Y-56404763D01*
X47159819Y-56404763D02*
X47112200Y-56309525D01*
X47112200Y-56309525D02*
X47016961Y-56261906D01*
X47016961Y-56261906D02*
X46921723Y-56261906D01*
X46921723Y-56261906D02*
X46826485Y-56309525D01*
X46826485Y-56309525D02*
X46778866Y-56404763D01*
X46778866Y-56404763D02*
X46778866Y-56642858D01*
X46778866Y-56642858D02*
X46731247Y-56738096D01*
X47159819Y-57642858D02*
X46159819Y-57642858D01*
X47112200Y-57642858D02*
X47159819Y-57547620D01*
X47159819Y-57547620D02*
X47159819Y-57357144D01*
X47159819Y-57357144D02*
X47112200Y-57261906D01*
X47112200Y-57261906D02*
X47064580Y-57214287D01*
X47064580Y-57214287D02*
X46969342Y-57166668D01*
X46969342Y-57166668D02*
X46683628Y-57166668D01*
X46683628Y-57166668D02*
X46588390Y-57214287D01*
X46588390Y-57214287D02*
X46540771Y-57261906D01*
X46540771Y-57261906D02*
X46493152Y-57357144D01*
X46493152Y-57357144D02*
X46493152Y-57547620D01*
X46493152Y-57547620D02*
X46540771Y-57642858D01*
X47064580Y-58690477D02*
X47112200Y-58642858D01*
X47112200Y-58642858D02*
X47159819Y-58500001D01*
X47159819Y-58500001D02*
X47159819Y-58404763D01*
X47159819Y-58404763D02*
X47112200Y-58261906D01*
X47112200Y-58261906D02*
X47016961Y-58166668D01*
X47016961Y-58166668D02*
X46921723Y-58119049D01*
X46921723Y-58119049D02*
X46731247Y-58071430D01*
X46731247Y-58071430D02*
X46588390Y-58071430D01*
X46588390Y-58071430D02*
X46397914Y-58119049D01*
X46397914Y-58119049D02*
X46302676Y-58166668D01*
X46302676Y-58166668D02*
X46207438Y-58261906D01*
X46207438Y-58261906D02*
X46159819Y-58404763D01*
X46159819Y-58404763D02*
X46159819Y-58500001D01*
X46159819Y-58500001D02*
X46207438Y-58642858D01*
X46207438Y-58642858D02*
X46255057Y-58690477D01*
X47159819Y-59547620D02*
X46636009Y-59547620D01*
X46636009Y-59547620D02*
X46540771Y-59500001D01*
X46540771Y-59500001D02*
X46493152Y-59404763D01*
X46493152Y-59404763D02*
X46493152Y-59214287D01*
X46493152Y-59214287D02*
X46540771Y-59119049D01*
X47112200Y-59547620D02*
X47159819Y-59452382D01*
X47159819Y-59452382D02*
X47159819Y-59214287D01*
X47159819Y-59214287D02*
X47112200Y-59119049D01*
X47112200Y-59119049D02*
X47016961Y-59071430D01*
X47016961Y-59071430D02*
X46921723Y-59071430D01*
X46921723Y-59071430D02*
X46826485Y-59119049D01*
X46826485Y-59119049D02*
X46778866Y-59214287D01*
X46778866Y-59214287D02*
X46778866Y-59452382D01*
X46778866Y-59452382D02*
X46731247Y-59547620D01*
X46493152Y-59880954D02*
X46493152Y-60261906D01*
X46159819Y-60023811D02*
X47016961Y-60023811D01*
X47016961Y-60023811D02*
X47112200Y-60071430D01*
X47112200Y-60071430D02*
X47159819Y-60166668D01*
X47159819Y-60166668D02*
X47159819Y-60261906D01*
X47769819Y-48428571D02*
X48769819Y-48761904D01*
X48769819Y-48761904D02*
X47769819Y-49095237D01*
X48722200Y-49809523D02*
X48769819Y-49714285D01*
X48769819Y-49714285D02*
X48769819Y-49523809D01*
X48769819Y-49523809D02*
X48722200Y-49428571D01*
X48722200Y-49428571D02*
X48626961Y-49380952D01*
X48626961Y-49380952D02*
X48246009Y-49380952D01*
X48246009Y-49380952D02*
X48150771Y-49428571D01*
X48150771Y-49428571D02*
X48103152Y-49523809D01*
X48103152Y-49523809D02*
X48103152Y-49714285D01*
X48103152Y-49714285D02*
X48150771Y-49809523D01*
X48150771Y-49809523D02*
X48246009Y-49857142D01*
X48246009Y-49857142D02*
X48341247Y-49857142D01*
X48341247Y-49857142D02*
X48436485Y-49380952D01*
X48769819Y-50285714D02*
X48103152Y-50285714D01*
X48293628Y-50285714D02*
X48198390Y-50333333D01*
X48198390Y-50333333D02*
X48150771Y-50380952D01*
X48150771Y-50380952D02*
X48103152Y-50476190D01*
X48103152Y-50476190D02*
X48103152Y-50571428D01*
X48674580Y-50904762D02*
X48722200Y-50952381D01*
X48722200Y-50952381D02*
X48769819Y-50904762D01*
X48769819Y-50904762D02*
X48722200Y-50857143D01*
X48722200Y-50857143D02*
X48674580Y-50904762D01*
X48674580Y-50904762D02*
X48769819Y-50904762D01*
X48769819Y-51904761D02*
X48769819Y-51333333D01*
X48769819Y-51619047D02*
X47769819Y-51619047D01*
X47769819Y-51619047D02*
X47912676Y-51523809D01*
X47912676Y-51523809D02*
X48007914Y-51428571D01*
X48007914Y-51428571D02*
X48055533Y-51333333D01*
X47865057Y-53047619D02*
X47817438Y-53095238D01*
X47817438Y-53095238D02*
X47769819Y-53190476D01*
X47769819Y-53190476D02*
X47769819Y-53428571D01*
X47769819Y-53428571D02*
X47817438Y-53523809D01*
X47817438Y-53523809D02*
X47865057Y-53571428D01*
X47865057Y-53571428D02*
X47960295Y-53619047D01*
X47960295Y-53619047D02*
X48055533Y-53619047D01*
X48055533Y-53619047D02*
X48198390Y-53571428D01*
X48198390Y-53571428D02*
X48769819Y-53000000D01*
X48769819Y-53000000D02*
X48769819Y-53619047D01*
X47769819Y-54238095D02*
X47769819Y-54333333D01*
X47769819Y-54333333D02*
X47817438Y-54428571D01*
X47817438Y-54428571D02*
X47865057Y-54476190D01*
X47865057Y-54476190D02*
X47960295Y-54523809D01*
X47960295Y-54523809D02*
X48150771Y-54571428D01*
X48150771Y-54571428D02*
X48388866Y-54571428D01*
X48388866Y-54571428D02*
X48579342Y-54523809D01*
X48579342Y-54523809D02*
X48674580Y-54476190D01*
X48674580Y-54476190D02*
X48722200Y-54428571D01*
X48722200Y-54428571D02*
X48769819Y-54333333D01*
X48769819Y-54333333D02*
X48769819Y-54238095D01*
X48769819Y-54238095D02*
X48722200Y-54142857D01*
X48722200Y-54142857D02*
X48674580Y-54095238D01*
X48674580Y-54095238D02*
X48579342Y-54047619D01*
X48579342Y-54047619D02*
X48388866Y-54000000D01*
X48388866Y-54000000D02*
X48150771Y-54000000D01*
X48150771Y-54000000D02*
X47960295Y-54047619D01*
X47960295Y-54047619D02*
X47865057Y-54095238D01*
X47865057Y-54095238D02*
X47817438Y-54142857D01*
X47817438Y-54142857D02*
X47769819Y-54238095D01*
X47865057Y-54952381D02*
X47817438Y-55000000D01*
X47817438Y-55000000D02*
X47769819Y-55095238D01*
X47769819Y-55095238D02*
X47769819Y-55333333D01*
X47769819Y-55333333D02*
X47817438Y-55428571D01*
X47817438Y-55428571D02*
X47865057Y-55476190D01*
X47865057Y-55476190D02*
X47960295Y-55523809D01*
X47960295Y-55523809D02*
X48055533Y-55523809D01*
X48055533Y-55523809D02*
X48198390Y-55476190D01*
X48198390Y-55476190D02*
X48769819Y-54904762D01*
X48769819Y-54904762D02*
X48769819Y-55523809D01*
X48103152Y-56380952D02*
X48769819Y-56380952D01*
X47722200Y-56142857D02*
X48436485Y-55904762D01*
X48436485Y-55904762D02*
X48436485Y-56523809D01*
X44269819Y-45793922D02*
X44269819Y-46365350D01*
X45269819Y-46079636D02*
X44269819Y-46079636D01*
X45269819Y-46698684D02*
X44603152Y-46698684D01*
X44269819Y-46698684D02*
X44317438Y-46651065D01*
X44317438Y-46651065D02*
X44365057Y-46698684D01*
X44365057Y-46698684D02*
X44317438Y-46746303D01*
X44317438Y-46746303D02*
X44269819Y-46698684D01*
X44269819Y-46698684D02*
X44365057Y-46698684D01*
X45269819Y-47174874D02*
X44603152Y-47174874D01*
X44698390Y-47174874D02*
X44650771Y-47222493D01*
X44650771Y-47222493D02*
X44603152Y-47317731D01*
X44603152Y-47317731D02*
X44603152Y-47460588D01*
X44603152Y-47460588D02*
X44650771Y-47555826D01*
X44650771Y-47555826D02*
X44746009Y-47603445D01*
X44746009Y-47603445D02*
X45269819Y-47603445D01*
X44746009Y-47603445D02*
X44650771Y-47651064D01*
X44650771Y-47651064D02*
X44603152Y-47746302D01*
X44603152Y-47746302D02*
X44603152Y-47889159D01*
X44603152Y-47889159D02*
X44650771Y-47984398D01*
X44650771Y-47984398D02*
X44746009Y-48032017D01*
X44746009Y-48032017D02*
X45269819Y-48032017D01*
X45222200Y-48889159D02*
X45269819Y-48793921D01*
X45269819Y-48793921D02*
X45269819Y-48603445D01*
X45269819Y-48603445D02*
X45222200Y-48508207D01*
X45222200Y-48508207D02*
X45126961Y-48460588D01*
X45126961Y-48460588D02*
X44746009Y-48460588D01*
X44746009Y-48460588D02*
X44650771Y-48508207D01*
X44650771Y-48508207D02*
X44603152Y-48603445D01*
X44603152Y-48603445D02*
X44603152Y-48793921D01*
X44603152Y-48793921D02*
X44650771Y-48889159D01*
X44650771Y-48889159D02*
X44746009Y-48936778D01*
X44746009Y-48936778D02*
X44841247Y-48936778D01*
X44841247Y-48936778D02*
X44936485Y-48460588D01*
X45269819Y-50555826D02*
X44269819Y-50555826D01*
X45222200Y-50555826D02*
X45269819Y-50460588D01*
X45269819Y-50460588D02*
X45269819Y-50270112D01*
X45269819Y-50270112D02*
X45222200Y-50174874D01*
X45222200Y-50174874D02*
X45174580Y-50127255D01*
X45174580Y-50127255D02*
X45079342Y-50079636D01*
X45079342Y-50079636D02*
X44793628Y-50079636D01*
X44793628Y-50079636D02*
X44698390Y-50127255D01*
X44698390Y-50127255D02*
X44650771Y-50174874D01*
X44650771Y-50174874D02*
X44603152Y-50270112D01*
X44603152Y-50270112D02*
X44603152Y-50460588D01*
X44603152Y-50460588D02*
X44650771Y-50555826D01*
X45222200Y-51412969D02*
X45269819Y-51317731D01*
X45269819Y-51317731D02*
X45269819Y-51127255D01*
X45269819Y-51127255D02*
X45222200Y-51032017D01*
X45222200Y-51032017D02*
X45126961Y-50984398D01*
X45126961Y-50984398D02*
X44746009Y-50984398D01*
X44746009Y-50984398D02*
X44650771Y-51032017D01*
X44650771Y-51032017D02*
X44603152Y-51127255D01*
X44603152Y-51127255D02*
X44603152Y-51317731D01*
X44603152Y-51317731D02*
X44650771Y-51412969D01*
X44650771Y-51412969D02*
X44746009Y-51460588D01*
X44746009Y-51460588D02*
X44841247Y-51460588D01*
X44841247Y-51460588D02*
X44936485Y-50984398D01*
X45269819Y-52032017D02*
X45222200Y-51936779D01*
X45222200Y-51936779D02*
X45126961Y-51889160D01*
X45126961Y-51889160D02*
X44269819Y-51889160D01*
X45269819Y-52841541D02*
X44746009Y-52841541D01*
X44746009Y-52841541D02*
X44650771Y-52793922D01*
X44650771Y-52793922D02*
X44603152Y-52698684D01*
X44603152Y-52698684D02*
X44603152Y-52508208D01*
X44603152Y-52508208D02*
X44650771Y-52412970D01*
X45222200Y-52841541D02*
X45269819Y-52746303D01*
X45269819Y-52746303D02*
X45269819Y-52508208D01*
X45269819Y-52508208D02*
X45222200Y-52412970D01*
X45222200Y-52412970D02*
X45126961Y-52365351D01*
X45126961Y-52365351D02*
X45031723Y-52365351D01*
X45031723Y-52365351D02*
X44936485Y-52412970D01*
X44936485Y-52412970D02*
X44888866Y-52508208D01*
X44888866Y-52508208D02*
X44888866Y-52746303D01*
X44888866Y-52746303D02*
X44841247Y-52841541D01*
X44603152Y-53222494D02*
X45269819Y-53460589D01*
X44603152Y-53698684D02*
X45269819Y-53460589D01*
X45269819Y-53460589D02*
X45507914Y-53365351D01*
X45507914Y-53365351D02*
X45555533Y-53317732D01*
X45555533Y-53317732D02*
X45603152Y-53222494D01*
X45269819Y-55365351D02*
X45269819Y-54793923D01*
X45269819Y-55079637D02*
X44269819Y-55079637D01*
X44269819Y-55079637D02*
X44412676Y-54984399D01*
X44412676Y-54984399D02*
X44507914Y-54889161D01*
X44507914Y-54889161D02*
X44555533Y-54793923D01*
X44269819Y-55984399D02*
X44269819Y-56079637D01*
X44269819Y-56079637D02*
X44317438Y-56174875D01*
X44317438Y-56174875D02*
X44365057Y-56222494D01*
X44365057Y-56222494D02*
X44460295Y-56270113D01*
X44460295Y-56270113D02*
X44650771Y-56317732D01*
X44650771Y-56317732D02*
X44888866Y-56317732D01*
X44888866Y-56317732D02*
X45079342Y-56270113D01*
X45079342Y-56270113D02*
X45174580Y-56222494D01*
X45174580Y-56222494D02*
X45222200Y-56174875D01*
X45222200Y-56174875D02*
X45269819Y-56079637D01*
X45269819Y-56079637D02*
X45269819Y-55984399D01*
X45269819Y-55984399D02*
X45222200Y-55889161D01*
X45222200Y-55889161D02*
X45174580Y-55841542D01*
X45174580Y-55841542D02*
X45079342Y-55793923D01*
X45079342Y-55793923D02*
X44888866Y-55746304D01*
X44888866Y-55746304D02*
X44650771Y-55746304D01*
X44650771Y-55746304D02*
X44460295Y-55793923D01*
X44460295Y-55793923D02*
X44365057Y-55841542D01*
X44365057Y-55841542D02*
X44317438Y-55889161D01*
X44317438Y-55889161D02*
X44269819Y-55984399D01*
X44269819Y-56936780D02*
X44269819Y-57032018D01*
X44269819Y-57032018D02*
X44317438Y-57127256D01*
X44317438Y-57127256D02*
X44365057Y-57174875D01*
X44365057Y-57174875D02*
X44460295Y-57222494D01*
X44460295Y-57222494D02*
X44650771Y-57270113D01*
X44650771Y-57270113D02*
X44888866Y-57270113D01*
X44888866Y-57270113D02*
X45079342Y-57222494D01*
X45079342Y-57222494D02*
X45174580Y-57174875D01*
X45174580Y-57174875D02*
X45222200Y-57127256D01*
X45222200Y-57127256D02*
X45269819Y-57032018D01*
X45269819Y-57032018D02*
X45269819Y-56936780D01*
X45269819Y-56936780D02*
X45222200Y-56841542D01*
X45222200Y-56841542D02*
X45174580Y-56793923D01*
X45174580Y-56793923D02*
X45079342Y-56746304D01*
X45079342Y-56746304D02*
X44888866Y-56698685D01*
X44888866Y-56698685D02*
X44650771Y-56698685D01*
X44650771Y-56698685D02*
X44460295Y-56746304D01*
X44460295Y-56746304D02*
X44365057Y-56793923D01*
X44365057Y-56793923D02*
X44317438Y-56841542D01*
X44317438Y-56841542D02*
X44269819Y-56936780D01*
X44603152Y-57698685D02*
X45269819Y-57698685D01*
X44698390Y-57698685D02*
X44650771Y-57746304D01*
X44650771Y-57746304D02*
X44603152Y-57841542D01*
X44603152Y-57841542D02*
X44603152Y-57984399D01*
X44603152Y-57984399D02*
X44650771Y-58079637D01*
X44650771Y-58079637D02*
X44746009Y-58127256D01*
X44746009Y-58127256D02*
X45269819Y-58127256D01*
X45222200Y-58555828D02*
X45269819Y-58651066D01*
X45269819Y-58651066D02*
X45269819Y-58841542D01*
X45269819Y-58841542D02*
X45222200Y-58936780D01*
X45222200Y-58936780D02*
X45126961Y-58984399D01*
X45126961Y-58984399D02*
X45079342Y-58984399D01*
X45079342Y-58984399D02*
X44984104Y-58936780D01*
X44984104Y-58936780D02*
X44936485Y-58841542D01*
X44936485Y-58841542D02*
X44936485Y-58698685D01*
X44936485Y-58698685D02*
X44888866Y-58603447D01*
X44888866Y-58603447D02*
X44793628Y-58555828D01*
X44793628Y-58555828D02*
X44746009Y-58555828D01*
X44746009Y-58555828D02*
X44650771Y-58603447D01*
X44650771Y-58603447D02*
X44603152Y-58698685D01*
X44603152Y-58698685D02*
X44603152Y-58841542D01*
X44603152Y-58841542D02*
X44650771Y-58936780D01*
M02*
