M48
; DRILL file {KiCad 7.0.11} date Sat May 25 01:19:41 2024
; FORMAT={-:-/ absolute / inch / decimal}
; #@! TF.CreationDate,2024-05-25T01:19:41+03:00
; #@! TF.GenerationSoftware,Kicad,Pcbnew,7.0.11
; #@! TF.FileFunction,Plated,1,4,PTH
FMAT,2
INCH
; #@! TA.AperFunction,Plated,PTH,ViaDrill
T1C0.0157
; #@! TA.AperFunction,Plated,PTH,ComponentDrill
T2C0.0315
; #@! TA.AperFunction,Plated,PTH,ComponentDrill
T3C0.0320
; #@! TA.AperFunction,Plated,PTH,ComponentDrill
T4C0.0394
; #@! TA.AperFunction,Plated,PTH,ComponentDrill
T5C0.0400
; #@! TA.AperFunction,Plated,PTH,ComponentDrill
T6C0.0472
; #@! TA.AperFunction,Plated,PTH,ComponentDrill
T7C0.0512
; #@! TA.AperFunction,Plated,PTH,ComponentDrill
T8C0.0752
; #@! TA.AperFunction,Plated,PTH,ComponentDrill
T9C0.0787
; #@! TA.AperFunction,Plated,PTH,ComponentDrill
T10C0.1770
%
G90
G05
T1
X3.5863Y-5.5922
X3.6179Y-3.1973
X3.73Y-4.002
X3.917Y-4.002
X3.9258Y-3.6614
X3.974Y-3.592
X3.9933Y-3.1407
X4.0098Y-5.3186
X4.0252Y-3.4489
X4.047Y-4.267
X4.0955Y-1.4958
X4.1133Y-1.7705
X4.1133Y-3.1262
X4.117Y-6.443
X4.1579Y-5.4744
X4.1591Y-5.368
X4.1834Y-3.6
X4.2036Y-3.4642
X4.204Y-6.495
X4.2134Y-4.4291
X4.2331Y-5.9917
X4.27Y-3.647
X4.2779Y-3.3483
X4.3316Y-3.6153
X4.369Y-7.2048
X4.385Y-3.814
X4.4038Y-5.4532
X4.411Y-3.625
X4.4646Y-5.3937
X4.4662Y-3.3484
X4.524Y-5.2161
X4.5283Y-3.7812
X4.5426Y-2.7845
X4.549Y-3.8696
X4.588Y-2.7874
X4.6234Y-3.1448
X4.6296Y-3.6505
X4.646Y-2.7059
X4.669Y-7.519
X4.7401Y-2.9954
X4.769Y-5.8058
X4.7696Y-2.9484
X4.7723Y-5.1843
X4.7946Y-2.7478
X4.7951Y-8.8061
X4.7951Y-6.3899
X4.8378Y-3.4107
X4.8765Y-6.4
X4.88Y-4.14
X4.8971Y-4.788
X4.9033Y-2.5696
X4.918Y-3.858
X4.919Y-3.6659
X4.9216Y-3.1411
X4.954Y-8.7996
X4.9734Y-3.407
X4.9762Y-3.7868
X4.9813Y-2.9536
X4.987Y-4.145
X4.995Y-6.239
X5.0142Y-2.8376
X5.02Y-4.854
X5.0246Y-3.6135
X5.0456Y-3.8623
X5.0459Y-4.1048
X5.086Y-4.154
X5.0945Y-4.107
X5.1Y-6.69
X5.1005Y-3.1557
X5.1053Y-2.8999
X5.1155Y-6.1559
X5.123Y-4.4769
X5.1245Y-6.5113
X5.1643Y-2.6214
X5.1643Y-2.7154
X5.167Y-2.7618
X5.169Y-6.475
X5.182Y-8.6223
X5.182Y-5.187
X5.1919Y-4.035
X5.1919Y-4.2636
X5.1977Y-2.8822
X5.2429Y-3.4305
X5.2429Y-3.6698
X5.2521Y-3.1598
X5.2556Y-4.3731
X5.2707Y-2.5786
X5.3043Y-3.3995
X5.3232Y-8.6257
X5.3245Y-4.262
X5.3858Y-4.2475
X5.4Y-3.4111
X5.4243Y-8.8085
X5.4596Y-4.2807
X5.497Y-3.6609
X5.5264Y-4.3779
X5.5416Y-3.4715
X5.5465Y-4.5993
X5.5539Y-4.1608
X5.5908Y-4.2775
X5.6136Y-5.561
X5.6144Y-4.3524
X5.6326Y-4.2947
X5.643Y-3.5912
X5.6637Y-3.8442
X5.7018Y-3.6328
X5.7237Y-7.8619
X5.7293Y-2.9562
X5.731Y-3.6
X5.7339Y-4.2831
X5.7875Y-3.3432
X5.7956Y-3.9743
X5.7956Y-4.443
X5.8013Y-3.7991
X5.8136Y-5.5695
X5.8208Y-2.7237
X5.8217Y-3.3014
X5.8414Y-3.3956
X5.8657Y-3.3085
X5.8662Y-3.4706
X5.869Y-8.0316
X5.888Y-2.6967
X5.9229Y-3.8441
X5.9237Y-7.8512
X5.9466Y-2.9826
X5.9566Y-2.5909
X5.9768Y-3.5406
X5.984Y-4.417
X5.988Y-2.9244
X5.9927Y-3.5003
X6.0098Y-3.1955
X6.0442Y-3.6536
X6.0469Y-5.979
X6.0476Y-3.5823
X6.0504Y-8.1474
X6.0871Y-2.89
X6.119Y-4.0523
X6.1232Y-4.4244
X6.1246Y-3.8615
X6.1407Y-2.8376
X6.1428Y-2.9517
X6.169Y-8.0266
X6.1772Y-2.4203
X6.2008Y-2.5705
X6.2008Y-2.7097
X6.2119Y-6.2844
X6.2159Y-3.4408
X6.2189Y-3.8136
X6.224Y-3.561
X6.2246Y-7.8243
X6.2526Y-2.2432
X6.253Y-2.9381
X6.269Y-4.1319
X6.269Y-5.8484
X6.2758Y-2.6984
X6.2877Y-3.6336
X6.3151Y-7.8266
X6.3165Y-3.4538
X6.3221Y-6.0164
X6.3733Y-3.8624
X6.4019Y-3.7697
X6.4237Y-7.835
X6.5063Y-3.1624
X6.5344Y-8.2955
X6.6246Y-7.8289
X6.6954Y-3.4723
X6.6971Y-2.1336
X6.7049Y-3.1833
X6.711Y-7.7963
X6.7739Y-7.8173
X6.8043Y-3.0752
X6.8222Y-1.5474
X6.824Y-3.2954
X6.8289Y-4.2642
X6.869Y-3.8086
X6.8737Y-1.8199
X6.887Y-1.197
X6.8905Y-3.3853
X6.8956Y-3.2907
X6.9002Y-4.3453
X6.901Y-2.0922
X6.9064Y-1.7734
X6.9174Y-7.1539
X6.9178Y-4.2332
X6.942Y-5.0774
X6.9427Y-3.6126
X6.9604Y-4.8737
X6.9666Y-4.0251
X6.969Y-7.653
X6.9777Y-2.0072
X6.9878Y-1.8366
X6.9977Y-3.4552
X6.9977Y-3.5504
X6.9991Y-5.0484
X7.0009Y-3.7711
X7.0549Y-3.3134
X7.0639Y-4.6676
X7.064Y-4.8848
X7.0733Y-4.4453
X7.0954Y-3.3134
X7.0959Y-2.6829
X7.101Y-2.2247
X7.1181Y-3.7538
X7.1413Y-4.5943
X7.1461Y-4.1629
X7.1461Y-4.3096
X7.151Y-1.4135
X7.1672Y-3.5939
X7.1857Y-5.0648
X7.1867Y-2.671
X7.192Y-4.063
X7.2049Y-3.3186
X7.2102Y-9.1014
X7.2279Y-1.3551
X7.2583Y-4.4319
X7.2586Y-4.9604
X7.2689Y-4.1576
X7.2939Y-2.4175
X7.3018Y-4.5686
X7.307Y-3.2064
X7.3221Y-1.8366
X7.3277Y-2.9922
X7.3361Y-6.0936
X7.3361Y-6.9413
X7.3434Y-4.6347
X7.3501Y-7.6588
X7.3511Y-2.4295
X7.3511Y-2.5771
X7.353Y-6.9832
X7.3541Y-4.8542
X7.3541Y-5.3116
X7.3657Y-3.559
X7.366Y-6.4929
X7.3666Y-1.4337
X7.3719Y-5.5877
X7.3768Y-4.5432
X7.3804Y-3.747
X7.3805Y-4.0394
X7.3822Y-6.8687
X7.3838Y-2.637
X7.3838Y-2.8543
X7.3965Y-2.0045
X7.3982Y-3.6993
X7.418Y-4.2364
X7.4182Y-3.2967
X7.4198Y-7.3062
X7.4289Y-6.302
X7.4357Y-4.2937
X7.4551Y-3.5172
X7.4611Y-4.3745
X7.4826Y-3.2323
X7.4853Y-6.4272
X7.496Y-4.111
X7.5006Y-6.1386
X7.5096Y-3.2035
X7.5104Y-3.1639
X7.5364Y-6.0468
X7.5403Y-6.2556
X7.5425Y-6.4772
X7.5494Y-3.3705
X7.57Y-6.0757
X7.5707Y-6.394
X7.5777Y-3.3179
X7.5781Y-3.1659
X7.5797Y-7.1533
X7.5854Y-4.0475
X7.5894Y-4.7132
X7.5951Y-2.7319
X7.5954Y-6.9648
X7.6027Y-5.7087
X7.6044Y-2.471
X7.6091Y-3.9037
X7.6169Y-4.6083
X7.6342Y-5.1141
X7.6393Y-5.8056
X7.6396Y-3.4139
X7.6473Y-4.9421
X7.6503Y-1.8051
X7.6506Y-2.5076
X7.6539Y-6.539
X7.6563Y-2.9219
X7.6657Y-3.8297
X7.6874Y-3.887
X7.7007Y-6.6305
X7.7037Y-2.8369
X7.705Y-3.5157
X7.7087Y-4.0553
X7.7141Y-5.2661
X7.7205Y-5.7075
X7.734Y-2.9316
X7.7422Y-6.5889
X7.745Y-1.803
X7.761Y-1.213
X7.7626Y-3.1461
X7.7724Y-5.2642
X7.805Y-3.6191
X7.8148Y-3.8721
X7.8225Y-6.2303
X7.8302Y-8.45
X7.8345Y-6.9074
X7.8503Y-4.1375
X7.875Y-7.7277
X7.8752Y-4.3523
X7.8874Y-2.7675
X7.8942Y-5.2635
X7.8944Y-1.6608
X7.9013Y-7.1214
X7.915Y-1.813
X7.9156Y-4.3505
X7.9175Y-6.5555
X7.9284Y-5.663
X7.9442Y-4.1928
X7.9554Y-3.1306
X7.966Y-2.3814
X7.9704Y-5.2084
X7.975Y-7.7065
X7.9827Y-5.2611
X7.9863Y-3.7771
X7.9913Y-5.1735
X7.9935Y-8.054
X7.9941Y-2.8351
X8.012Y-4.0097
X8.014Y-4.683
X8.0194Y-7.4346
X8.0208Y-4.0733
X8.0233Y-4.9213
X8.0257Y-3.7676
X8.0262Y-3.1748
X8.0329Y-5.7609
X8.0352Y-6.9427
X8.0415Y-5.8565
X8.0431Y-2.9078
X8.045Y-1.8
X8.0518Y-5.1587
X8.055Y-3.2068
X8.0562Y-2.358
X8.062Y-4.0594
X8.0742Y-3.6706
X8.0845Y-4.6951
X8.0998Y-5.7584
X8.1046Y-2.8711
X8.105Y-3.7513
X8.1121Y-4.2349
X8.1183Y-5.2856
X8.1332Y-2.903
X8.1444Y-3.7459
X8.1468Y-4.0666
X8.156Y-1.569
X8.1726Y-2.8923
X8.18Y-6.6212
X8.1881Y-5.8314
X8.1889Y-6.2464
X8.189Y-4.8661
X8.199Y-7.1015
X8.202Y-3.4107
X8.202Y-3.7676
X8.2025Y-5.6737
X8.2054Y-2.643
X8.2092Y-4.094
X8.2126Y-4.6378
X8.2156Y-5.9665
X8.2208Y-2.8923
X8.2219Y-5.0074
X8.2256Y-5.2649
X8.2256Y-5.8558
X8.2281Y-4.9287
X8.25Y-2.3409
X8.2531Y-6.9388
X8.2575Y-1.6968
X8.271Y-4.9087
X8.274Y-5.2574
X8.2784Y-2.6255
X8.2887Y-5.6848
X8.2911Y-7.405
X8.2992Y-4.3622
X8.3085Y-2.3199
X8.3195Y-4.1817
X8.3533Y-7.6866
X8.3593Y-4.3947
X8.3597Y-3.0617
X8.3658Y-2.3399
X8.3877Y-4.1965
X8.3877Y-2.6255
X8.4087Y-6.4962
X8.4152Y-4.3032
X8.4173Y-4.4252
X8.4266Y-5.5689
X8.4356Y-7.0718
X8.4456Y-3.063
X8.4478Y-3.5215
X8.449Y-1.4446
X8.4617Y-4.1965
X8.4646Y-4.6772
X8.4697Y-3.8431
X8.473Y-3.3966
X8.5Y-2.9045
X8.5033Y-4.8975
X8.5077Y-5.5478
X8.5082Y-4.1437
X8.5118Y-3.9213
X8.5155Y-5.7967
X8.5165Y-6.5299
X8.52Y-3.8541
X8.5253Y-5.3098
X8.5347Y-4.8664
X8.5354Y-4.7165
X8.5373Y-4.5862
X8.5392Y-3.7637
X8.5392Y-7.1726
X8.544Y-3.0731
X8.5521Y-2.94
X8.5622Y-5.9887
X8.5842Y-4.2142
X8.5848Y-3.2372
X8.5947Y-2.6189
X8.5974Y-3.5499
X8.6053Y-4.3514
X8.6064Y-6.4655
X8.6124Y-3.2654
X8.6126Y-3.6462
X8.6195Y-4.9722
X8.6213Y-2.3059
X8.627Y-6.0133
X8.6304Y-5.2799
X8.6478Y-3.2857
X8.6549Y-2.6398
X8.6572Y-1.6313
X8.6681Y-3.4589
X8.6696Y-4.3279
X8.6762Y-4.6145
X8.6771Y-3.1241
X8.6789Y-4.7826
X8.6882Y-3.8901
X8.6935Y-6.141
X8.7092Y-4.58
X8.7164Y-6.5798
X8.7185Y-2.6822
X8.7282Y-3.3713
X8.7317Y-4.4439
X8.7461Y-6.0239
X8.7575Y-3.2204
X8.764Y-5.8253
X8.7657Y-6.3943
X8.7816Y-7.1049
X8.7829Y-3.7665
X8.7877Y-1.6257
X8.7935Y-2.6495
X8.7966Y-3.5187
X8.7969Y-2.9557
X8.797Y-3.2293
X8.7993Y-2.7308
X8.8001Y-3.4703
X8.8058Y-2.2262
X8.8058Y-7.0192
X8.8228Y-1.7501
X8.8238Y-5.2895
X8.8268Y-6.1435
X8.827Y-1.277
X8.8423Y-5.7425
X8.8441Y-2.46
X8.852Y-1.1717
X8.8536Y-4.2842
X8.8593Y-7.0953
X8.8613Y-1.6155
X8.8623Y-2.661
X8.8688Y-1.7773
X8.8728Y-2.3383
X8.8827Y-2.023
X8.888Y-7.2799
X8.8888Y-2.8052
X8.896Y-4.3298
X8.8969Y-6.7522
X8.897Y-1.254
X8.9Y-5.6078
X8.903Y-2.131
X8.9033Y-2.614
X8.9045Y-1.4118
X8.9079Y-2.5049
X8.9135Y-7.3434
X8.9198Y-3.6462
X8.9236Y-7.2508
X8.9247Y-4.7317
X8.9255Y-6.8771
X8.9326Y-2.3798
X8.9378Y-6.6267
X8.9552Y-6.1222
X8.9595Y-2.2369
X8.97Y-5.2828
X8.9798Y-5.6157
X8.9821Y-6.8275
X8.9934Y-4.2648
X8.9997Y-3.433
X9.0009Y-5.3763
X9.0014Y-2.9565
X9.0014Y-3.3936
X9.0046Y-4.783
X9.0218Y-4.1089
X9.03Y-5.0459
X9.0306Y-5.6459
X9.047Y-5.5863
X9.0471Y-6.6311
X9.052Y-1.3577
X9.0639Y-4.271
X9.068Y-6.3943
X9.0747Y-7.5039
X9.0753Y-3.0768
X9.0786Y-4.3466
X9.0819Y-6.2409
X9.0863Y-1.7727
X9.0997Y-3.9104
X9.1008Y-5.3797
X9.112Y-6.4142
X9.1415Y-3.0774
X9.1448Y-7.1813
X9.164Y-5.3859
X9.165Y-1.2225
X9.168Y-3.9137
X9.1682Y-5.6298
X9.1717Y-3.0129
X9.1765Y-6.341
X9.1874Y-4.371
X9.2151Y-3.4526
X9.2232Y-3.5494
X9.2398Y-2.6437
X9.2487Y-4.7561
X9.2514Y-6.1999
X9.2743Y-5.3415
X9.2793Y-3.0901
X9.2935Y-4.4523
X9.299Y-5.0536
X9.3145Y-3.7815
X9.317Y-2.3849
X9.3298Y-4.7728
X9.3351Y-3.0036
X9.3636Y-4.5851
X9.375Y-5.2472
X9.3775Y-6.123
X9.4021Y-3.1202
X9.4207Y-3.9006
X9.4208Y-5.681
X9.4281Y-4.7313
X9.4369Y-1.4577
X9.4451Y-2.386
X9.446Y-1.236
X9.467Y-3.0399
X9.4726Y-2.1161
X9.4782Y-5.3181
X9.4865Y-6.801
X9.5193Y-6.4303
X9.559Y-2.0227
X9.571Y-5.2785
X9.5712Y-6.7301
X9.576Y-4.3622
X9.5774Y-1.2794
X9.5802Y-3.3758
X9.5923Y-3.6027
X9.5996Y-5.1889
X9.6009Y-6.2565
X9.6179Y-3.5473
X9.6606Y-4.4929
X9.6902Y-5.9372
X9.6909Y-3.2204
X9.6909Y-3.4584
X9.6915Y-3.057
X9.7143Y-1.9886
X9.7152Y-4.3639
X9.7152Y-4.5041
X9.7204Y-3.9254
X9.7288Y-1.2572
X9.7626Y-1.8142
X9.7642Y-1.3397
X9.767Y-3.4044
X9.7687Y-1.2724
X9.775Y-5.697
X9.7956Y-6.4814
X9.7974Y-5.8495
X9.8092Y-5.9559
X9.8146Y-2.0858
X9.8226Y-1.259
X9.8326Y-3.1202
X9.8516Y-1.6297
X9.87Y-3.4283
X9.8784Y-5.9958
X9.8926Y-2.3884
X9.894Y-5.335
X9.8974Y-7.6851
X9.9019Y-1.2688
X9.9019Y-1.3439
X9.9085Y-2.9859
X9.9224Y-3.4781
X9.926Y-4.0971
X9.9297Y-4.3964
X9.933Y-3.1143
X9.9399Y-7.3956
X9.942Y-1.3517
X9.9496Y-2.7537
X9.9556Y-4.7936
X9.9563Y-2.9146
X9.9963Y-3.3614
X9.9975Y-3.1178
X10.0056Y-5.4302
X10.0067Y-2.6789
X10.022Y-2.468
X10.0385Y-5.6813
X10.0426Y-3.9474
X10.0452Y-5.1203
X10.0462Y-3.4973
X10.0521Y-4.7509
X10.0729Y-3.529
X10.0883Y-8.2614
X10.101Y-3.9481
X10.1023Y-5.1944
X10.1045Y-6.8906
X10.1151Y-5.0768
X10.13Y-2.6086
X10.1527Y-3.8559
X10.167Y-2.9216
X10.177Y-3.5656
X10.1776Y-4.4843
X10.1865Y-5.5741
X10.1936Y-3.4965
X10.2148Y-7.507
X10.2226Y-2.8949
X10.2397Y-2.111
X10.2424Y-3.3102
X10.2455Y-3.8559
X10.2505Y-6.7191
X10.255Y-5.323
X10.2685Y-4.0196
X10.2724Y-7.4537
X10.2806Y-2.7685
X10.2823Y-3.349
X10.2869Y-2.1462
X10.2909Y-7.7577
X10.2931Y-6.414
X10.3088Y-3.6471
X10.3112Y-7.3954
X10.3126Y-6.8629
X10.3166Y-5.8804
X10.3308Y-4.791
X10.3383Y-4.6197
X10.3421Y-2.9044
X10.3482Y-7.5274
X10.3558Y-2.7395
X10.3587Y-3.8881
X10.3618Y-4.7297
X10.3637Y-3.7769
X10.3657Y-4.1515
X10.3721Y-3.3279
X10.3722Y-3.6448
X10.378Y-5.3404
X10.3959Y-5.5008
X10.3974Y-4.7917
X10.4111Y-4.653
X10.4115Y-1.2926
X10.4221Y-2.9177
X10.4221Y-3.3463
X10.4247Y-4.2116
X10.4264Y-3.6157
X10.4314Y-8.2084
X10.4354Y-7.8417
X10.4381Y-7.9204
X10.4533Y-4.097
X10.4597Y-1.3121
X10.4695Y-6.474
X10.4712Y-4.6204
X10.477Y-7.4519
X10.4793Y-3.5653
X10.5065Y-5.454
X10.5116Y-2.4039
X10.5173Y-3.8474
X10.5173Y-4.0973
X10.5396Y-4.3272
X10.5457Y-7.453
X10.5651Y-3.3279
X10.5661Y-3.3674
X10.5662Y-3.8164
X10.5839Y-2.6535
X10.5839Y-2.8362
X10.5895Y-4.3992
X10.5989Y-7.2382
X10.609Y-1.8786
X10.6099Y-3.8536
X10.6216Y-5.2174
X10.6367Y-2.9355
X10.6474Y-4.3778
X10.6486Y-3.4102
X10.6649Y-5.2581
X10.667Y-2.686
X10.6777Y-2.8598
X10.6855Y-4.0385
X10.6889Y-3.4367
X10.6889Y-3.8095
X10.6904Y-4.9974
X10.6992Y-1.9083
X10.7064Y-2.9218
X10.7215Y-5.0473
X10.7431Y-4.028
X10.7447Y-3.3285
X10.7848Y-4.6441
X10.7859Y-3.9201
X10.7887Y-2.7285
X10.7895Y-3.2924
X10.795Y-8.014
X10.8145Y-1.5624
X10.8526Y-3.4369
X10.8594Y-2.1274
X10.8653Y-4.6465
X10.8893Y-3.3694
X10.8906Y-2.0777
X10.8944Y-3.0709
X10.895Y-5.7199
X10.8994Y-4.4976
X10.9114Y-2.5037
X10.9175Y-3.3996
X10.9351Y-4.6985
X10.945Y-6.8583
X10.9479Y-3.3463
X10.9619Y-2.7285
X10.9619Y-3.0709
X10.9642Y-4.4976
X10.9766Y-3.9981
X11.0066Y-3.081
X11.0086Y-3.4199
X11.0163Y-4.4816
X11.0187Y-4.1295
X11.0378Y-2.2791
X11.0378Y-2.3304
X11.0439Y-3.9997
X11.0471Y-2.4786
X11.0508Y-3.0443
X11.0513Y-2.6571
X11.0823Y-1.842
X11.0826Y-3.1618
X11.0856Y-4.5408
X11.0909Y-1.6957
X11.1209Y-3.3988
X11.1348Y-3.7622
X11.1467Y-4.2575
X11.148Y-1.1777
X11.1484Y-2.0883
X11.1591Y-3.1348
X11.1836Y-2.7378
X11.195Y-8.0243
X11.1969Y-3.6661
X11.1993Y-2.8494
X11.2058Y-4.1853
X11.206Y-2.6979
X11.2254Y-3.8403
X11.2255Y-1.8228
X11.2457Y-3.0671
X11.249Y-4.411
X11.2852Y-3.0493
X11.2852Y-4.0069
X11.2913Y-4.1867
X11.3122Y-3.9774
X11.3142Y-5.9054
X11.3155Y-7.2107
X11.319Y-3.2029
X11.3242Y-2.7347
X11.3321Y-3.0315
X11.3377Y-4.3851
X11.3417Y-5.732
X11.3421Y-7.4073
X11.3705Y-4.7309
X11.3721Y-3.3523
X11.3757Y-4.3953
X11.3768Y-4.0366
X11.4103Y-4.7473
X11.4916Y-4.4645
X11.4994Y-2.976
X11.5077Y-4.9933
X11.5198Y-2.7295
X11.5531Y-5.0187
X11.5744Y-3.8985
X11.5817Y-2.9623
X11.6082Y-2.5364
X11.619Y-3.3998
X11.6198Y-4.5484
X11.6215Y-4.7924
X11.6477Y-2.8971
X11.6651Y-4.6977
X11.669Y-3.4005
X11.6708Y-3.0207
X11.7091Y-4.6766
X11.7213Y-4.4198
X11.729Y-4.8728
X11.7642Y-2.9881
X11.7698Y-2.5587
X11.7772Y-2.1794
X11.7873Y-3.3553
X11.8045Y-2.6829
X11.8198Y-1.4798
X11.8986Y-3.0214
X11.9524Y-4.4926
X11.9644Y-1.7318
X11.9672Y-3.3765
X11.9698Y-2.6659
X11.9698Y-3.9342
X11.9829Y-3.054
X11.9848Y-5.2329
X11.9943Y-2.5231
X12.0156Y-4.9864
X12.0263Y-5.4041
X12.042Y-5.2397
X12.0546Y-4.9109
X12.0663Y-3.1704
X12.0676Y-3.3472
X12.0775Y-2.1795
X12.087Y-3.9919
X12.0881Y-1.8107
X12.0891Y-1.4907
X12.1041Y-4.5443
X12.1041Y-4.6015
X12.1127Y-3.0531
X12.1378Y-1.9686
X12.1585Y-3.2797
X12.1595Y-2.4287
X12.181Y-8.0
X12.1828Y-3.722
X12.1851Y-4.382
X12.1884Y-4.2378
X12.1897Y-2.1415
X12.1946Y-4.0674
X12.2186Y-2.9956
X12.2284Y-1.9883
X12.2601Y-4.398
X12.2634Y-3.8918
X12.2754Y-2.1709
X12.2759Y-2.4294
X12.2802Y-4.4908
X12.281Y-5.9575
X12.2902Y-2.7125
X12.3099Y-3.9273
X12.3179Y-4.351
X12.323Y-3.3609
X12.3286Y-2.1784
X12.3356Y-3.7329
X12.3716Y-4.0003
X12.373Y-1.7207
X12.424Y-3.1839
X12.4452Y-4.0003
X12.5201Y-1.7462
X12.6228Y-2.9936
X12.6231Y-3.1915
X12.673Y-2.0326
X12.8083Y-4.4442
X12.8211Y-1.9883
X12.8702Y-2.5059
X12.882Y-4.4987
X12.8836Y-3.9402
X12.9036Y-3.0527
X12.9137Y-4.4426
X12.9229Y-3.65
X12.9276Y-6.9605
X12.9373Y-3.5293
X12.9402Y-2.1619
X12.9486Y-3.3055
X12.961Y-1.6498
X12.965Y-3.2027
X12.9763Y-1.9029
X12.9774Y-2.6938
X12.9951Y-3.3085
X13.0123Y-2.2518
X13.0153Y-3.3956
X13.0196Y-4.4402
X13.0444Y-2.6994
X13.0454Y-1.6318
X13.0463Y-7.5379
X13.0479Y-1.5219
X13.0519Y-2.2617
X13.052Y-2.4062
X13.0771Y-3.9995
X13.0795Y-3.6327
X13.0947Y-3.5589
X13.1003Y-4.0887
X13.116Y-8.2494
X13.116Y-8.4157
X13.1297Y-2.5243
X13.1481Y-3.705
X13.1682Y-2.9441
X13.1716Y-2.5299
X13.1737Y-2.7666
X13.1833Y-3.3613
X13.204Y-2.8978
X13.218Y-3.7251
X13.2397Y-1.7136
X13.2413Y-2.703
X13.2624Y-3.7015
X13.2803Y-2.8505
X13.283Y-7.4392
X13.318Y-3.5278
X13.3228Y-2.3897
X13.333Y-8.0591
X13.418Y-2.7173
X13.4723Y-2.1618
X13.518Y-2.9264
X13.5499Y-8.7088
X13.5499Y-3.1524
X13.5513Y-6.8912
X13.568Y-2.9264
X13.613Y-2.3832
X13.6685Y-2.3684
X13.6879Y-2.9442
X13.6931Y-3.4914
X13.7459Y-2.9426
X13.7497Y-3.5217
X13.7624Y-3.3925
X13.7733Y-2.357
X13.7875Y-5.1867
X13.8071Y-8.7374
X13.8353Y-2.9609
X13.8453Y-5.2142
X13.8631Y-2.7081
X13.8635Y-3.2473
X13.8746Y-4.536
X13.9525Y-2.7086
X13.9543Y-4.0413
X13.971Y-3.5417
X13.9797Y-3.9174
X14.0173Y-2.0333
X14.0436Y-4.6281
X14.0493Y-2.7376
X14.0502Y-3.6189
X14.0897Y-3.6091
X14.1501Y-2.9448
X14.2236Y-3.4467
X14.2566Y-3.4215
X14.2566Y-3.7481
X14.3132Y-2.0472
X14.3225Y-2.2428
X14.5416Y-2.159
X14.662Y-1.196
X14.819Y-4.1594
T2
X3.399Y-3.897
X3.4Y-3.672
X3.848Y-3.222
X3.848Y-3.522
X3.948Y-3.222
X3.948Y-3.522
X3.999Y-3.897
X4.0Y-3.672
X4.048Y-3.222
X4.048Y-3.522
X4.057Y-4.164
X4.057Y-4.3569
X4.148Y-3.222
X4.148Y-3.522
X4.188Y-2.4282
X4.188Y-3.0282
X4.19Y-1.623
X4.19Y-2.223
X4.248Y-3.222
X4.248Y-3.522
X4.288Y-2.4282
X4.288Y-3.0282
X4.29Y-1.623
X4.29Y-2.223
X4.348Y-3.222
X4.348Y-3.522
X4.388Y-2.4282
X4.388Y-3.0282
X4.39Y-1.623
X4.39Y-2.223
X4.448Y-3.222
X4.448Y-3.522
X4.488Y-2.4282
X4.488Y-3.0282
X4.49Y-1.623
X4.49Y-2.223
X4.548Y-3.222
X4.548Y-3.522
X4.588Y-2.4282
X4.588Y-3.0282
X4.59Y-1.623
X4.59Y-2.223
X4.648Y-3.222
X4.648Y-3.522
X4.688Y-2.4282
X4.688Y-3.0282
X4.69Y-1.623
X4.69Y-2.223
X4.788Y-2.4282
X4.788Y-3.0282
X4.79Y-1.623
X4.79Y-2.223
X4.888Y-2.4282
X4.888Y-3.0282
X4.89Y-1.623
X4.89Y-2.223
X4.897Y-3.223
X4.897Y-3.523
X4.988Y-2.4282
X4.988Y-3.0282
X4.99Y-1.623
X4.99Y-2.223
X4.997Y-3.223
X4.997Y-3.523
X5.088Y-2.4282
X5.088Y-3.0282
X5.09Y-1.623
X5.09Y-2.223
X5.097Y-3.223
X5.097Y-3.523
X5.188Y-2.4282
X5.188Y-3.0282
X5.19Y-1.623
X5.19Y-2.223
X5.197Y-3.223
X5.197Y-3.523
X5.288Y-2.4282
X5.288Y-3.0282
X5.29Y-1.623
X5.29Y-2.223
X5.297Y-3.223
X5.297Y-3.523
X5.388Y-2.4282
X5.388Y-3.0282
X5.39Y-1.623
X5.39Y-2.223
X5.397Y-3.223
X5.397Y-3.523
X5.488Y-2.4282
X5.488Y-3.0282
X5.49Y-1.623
X5.49Y-2.223
X5.497Y-3.223
X5.497Y-3.523
X5.588Y-2.4282
X5.588Y-3.0282
X5.59Y-1.623
X5.59Y-2.223
X5.597Y-3.223
X5.597Y-3.523
X5.688Y-2.4282
X5.688Y-3.0282
X5.69Y-1.623
X5.69Y-2.223
X5.697Y-3.223
X5.697Y-3.523
X5.788Y-2.4282
X5.788Y-3.0282
X5.79Y-1.623
X5.79Y-2.223
X5.797Y-3.223
X5.797Y-3.523
X5.888Y-2.4282
X5.888Y-3.0282
X5.89Y-1.623
X5.89Y-2.223
X5.988Y-2.4282
X5.988Y-3.0282
X5.99Y-1.623
X5.99Y-2.223
X6.088Y-2.4282
X6.088Y-3.0282
X6.09Y-1.623
X6.09Y-2.223
X6.351Y-1.6236
X6.351Y-1.9236
X6.351Y-2.1666
X6.351Y-2.4666
X6.351Y-2.721
X6.351Y-3.021
X6.351Y-3.216
X6.351Y-3.516
X6.451Y-1.6236
X6.451Y-1.9236
X6.451Y-2.1666
X6.451Y-2.4666
X6.451Y-2.721
X6.451Y-3.021
X6.451Y-3.216
X6.451Y-3.516
X6.551Y-1.6236
X6.551Y-1.9236
X6.551Y-2.1666
X6.551Y-2.4666
X6.551Y-2.721
X6.551Y-3.021
X6.551Y-3.216
X6.551Y-3.516
X6.651Y-1.6236
X6.651Y-1.9236
X6.651Y-2.1666
X6.651Y-2.4666
X6.651Y-2.721
X6.651Y-3.021
X6.651Y-3.216
X6.651Y-3.516
X6.751Y-1.6236
X6.751Y-1.9236
X6.751Y-2.1666
X6.751Y-2.4666
X6.751Y-2.721
X6.751Y-3.021
X6.751Y-3.216
X6.751Y-3.516
X6.851Y-1.6236
X6.851Y-1.9236
X6.851Y-2.1666
X6.851Y-2.4666
X6.851Y-2.721
X6.851Y-3.021
X6.851Y-3.216
X6.851Y-3.516
X6.951Y-1.6236
X6.951Y-1.9236
X6.951Y-2.1666
X6.951Y-2.4666
X6.951Y-2.721
X6.951Y-3.021
X6.951Y-3.216
X6.951Y-3.516
X7.051Y-1.6236
X7.051Y-1.9236
X7.051Y-2.1666
X7.051Y-2.4666
X7.051Y-2.721
X7.051Y-3.021
X7.051Y-3.216
X7.051Y-3.516
X7.151Y-1.6236
X7.151Y-1.9236
X7.151Y-2.1666
X7.151Y-2.4666
X7.151Y-2.721
X7.151Y-3.021
X7.151Y-3.216
X7.151Y-3.516
X7.251Y-1.6236
X7.251Y-1.9236
X7.251Y-2.1666
X7.251Y-2.4666
X7.251Y-2.721
X7.251Y-3.021
X7.251Y-3.216
X7.251Y-3.516
X7.5104Y-1.5162
X7.5104Y-2.1162
X7.5104Y-2.4152
X7.5104Y-3.0152
X7.6104Y-1.5162
X7.6104Y-2.1162
X7.6104Y-2.4152
X7.6104Y-3.0152
X7.655Y-3.263
X7.655Y-3.563
X7.662Y-3.972
X7.662Y-4.272
X7.664Y-4.515
X7.664Y-4.815
X7.671Y-5.063
X7.671Y-5.363
X7.671Y-5.615
X7.671Y-5.915
X7.672Y-6.172
X7.672Y-6.472
X7.675Y-7.273
X7.675Y-7.573
X7.678Y-7.812
X7.678Y-8.112
X7.68Y-6.716
X7.68Y-7.016
X7.68Y-8.814
X7.68Y-9.114
X7.683Y-8.326
X7.683Y-8.626
X7.7104Y-1.5162
X7.7104Y-2.1162
X7.7104Y-2.4152
X7.7104Y-3.0152
X7.755Y-3.263
X7.755Y-3.563
X7.762Y-3.972
X7.762Y-4.272
X7.764Y-4.515
X7.764Y-4.815
X7.771Y-5.063
X7.771Y-5.363
X7.771Y-5.615
X7.771Y-5.915
X7.772Y-6.172
X7.772Y-6.472
X7.775Y-7.273
X7.775Y-7.573
X7.778Y-7.812
X7.778Y-8.112
X7.78Y-6.716
X7.78Y-7.016
X7.78Y-8.814
X7.78Y-9.114
X7.783Y-8.326
X7.783Y-8.626
X7.8104Y-1.5162
X7.8104Y-2.1162
X7.8104Y-2.4152
X7.8104Y-3.0152
X7.855Y-3.263
X7.855Y-3.563
X7.862Y-3.972
X7.862Y-4.272
X7.864Y-4.515
X7.864Y-4.815
X7.871Y-5.063
X7.871Y-5.363
X7.871Y-5.615
X7.871Y-5.915
X7.872Y-6.172
X7.872Y-6.472
X7.875Y-7.273
X7.875Y-7.573
X7.878Y-7.812
X7.878Y-8.112
X7.88Y-6.716
X7.88Y-7.016
X7.88Y-8.814
X7.88Y-9.114
X7.883Y-8.326
X7.883Y-8.626
X7.9104Y-1.5162
X7.9104Y-2.1162
X7.9104Y-2.4152
X7.9104Y-3.0152
X7.955Y-3.263
X7.955Y-3.563
X7.962Y-3.972
X7.962Y-4.272
X7.964Y-4.515
X7.964Y-4.815
X7.971Y-5.063
X7.971Y-5.363
X7.971Y-5.615
X7.971Y-5.915
X7.972Y-6.172
X7.972Y-6.472
X7.975Y-7.273
X7.975Y-7.573
X7.978Y-7.812
X7.978Y-8.112
X7.98Y-6.716
X7.98Y-7.016
X7.98Y-8.814
X7.98Y-9.114
X7.983Y-8.326
X7.983Y-8.626
X8.0104Y-1.5162
X8.0104Y-2.1162
X8.0104Y-2.4152
X8.0104Y-3.0152
X8.055Y-3.263
X8.055Y-3.563
X8.062Y-3.972
X8.062Y-4.272
X8.064Y-4.515
X8.064Y-4.815
X8.071Y-5.063
X8.071Y-5.363
X8.071Y-5.615
X8.071Y-5.915
X8.072Y-6.172
X8.072Y-6.472
X8.075Y-7.273
X8.075Y-7.573
X8.078Y-7.812
X8.078Y-8.112
X8.08Y-6.716
X8.08Y-7.016
X8.08Y-8.814
X8.08Y-9.114
X8.083Y-8.326
X8.083Y-8.626
X8.1104Y-1.5162
X8.1104Y-2.1162
X8.1104Y-2.4152
X8.1104Y-3.0152
X8.155Y-3.263
X8.155Y-3.563
X8.162Y-3.972
X8.162Y-4.272
X8.164Y-4.515
X8.164Y-4.815
X8.171Y-5.063
X8.171Y-5.363
X8.171Y-5.615
X8.171Y-5.915
X8.172Y-6.172
X8.172Y-6.472
X8.175Y-7.273
X8.175Y-7.573
X8.178Y-7.812
X8.178Y-8.112
X8.18Y-6.716
X8.18Y-7.016
X8.18Y-8.814
X8.18Y-9.114
X8.183Y-8.326
X8.183Y-8.626
X8.2104Y-1.5162
X8.2104Y-2.1162
X8.2104Y-2.4152
X8.2104Y-3.0152
X8.255Y-3.263
X8.255Y-3.563
X8.262Y-3.972
X8.262Y-4.272
X8.264Y-4.515
X8.264Y-4.815
X8.271Y-5.063
X8.271Y-5.363
X8.271Y-5.615
X8.271Y-5.915
X8.272Y-6.172
X8.272Y-6.472
X8.275Y-7.273
X8.275Y-7.573
X8.278Y-7.812
X8.278Y-8.112
X8.28Y-6.716
X8.28Y-7.016
X8.28Y-8.814
X8.28Y-9.114
X8.283Y-8.326
X8.283Y-8.626
X8.3104Y-1.5162
X8.3104Y-2.1162
X8.3104Y-2.4152
X8.3104Y-3.0152
X8.355Y-3.263
X8.355Y-3.563
X8.362Y-3.972
X8.362Y-4.272
X8.364Y-4.515
X8.364Y-4.815
X8.371Y-5.063
X8.371Y-5.363
X8.371Y-5.615
X8.371Y-5.915
X8.375Y-7.273
X8.375Y-7.573
X8.378Y-7.812
X8.378Y-8.112
X8.38Y-6.716
X8.38Y-7.016
X8.38Y-8.814
X8.38Y-9.114
X8.383Y-8.326
X8.383Y-8.626
X8.4104Y-1.5162
X8.4104Y-2.1162
X8.4104Y-2.4152
X8.4104Y-3.0152
X8.462Y-3.972
X8.462Y-4.272
X8.464Y-4.515
X8.464Y-4.815
X8.471Y-5.063
X8.471Y-5.363
X8.471Y-5.615
X8.471Y-5.915
X8.475Y-7.273
X8.475Y-7.573
X8.48Y-6.716
X8.48Y-7.016
X8.48Y-8.814
X8.48Y-9.114
X8.5104Y-1.5162
X8.5104Y-2.1162
X8.5104Y-2.4152
X8.5104Y-3.0152
X8.562Y-3.972
X8.562Y-4.272
X8.564Y-4.515
X8.564Y-4.815
X8.571Y-5.063
X8.571Y-5.363
X8.571Y-5.615
X8.571Y-5.915
X8.575Y-7.273
X8.575Y-7.573
X8.58Y-6.716
X8.58Y-7.016
X8.58Y-8.814
X8.58Y-9.114
X8.6104Y-1.5162
X8.6104Y-2.1162
X8.6104Y-2.4152
X8.6104Y-3.0152
X8.7104Y-1.5162
X8.7104Y-2.1162
X8.7104Y-2.4152
X8.7104Y-3.0152
X8.8104Y-1.5162
X8.8104Y-2.1162
X8.8104Y-2.4152
X8.8104Y-3.0152
X8.975Y-4.906
X8.975Y-5.506
X9.059Y-1.713
X9.059Y-2.313
X9.067Y-2.566
X9.067Y-3.166
X9.07Y-3.516
X9.07Y-3.816
X9.075Y-4.906
X9.075Y-5.506
X9.076Y-4.059
X9.076Y-4.659
X9.159Y-1.713
X9.159Y-2.313
X9.167Y-2.566
X9.167Y-3.166
X9.17Y-3.516
X9.17Y-3.816
X9.175Y-4.906
X9.175Y-5.506
X9.176Y-4.059
X9.176Y-4.659
X9.259Y-1.713
X9.259Y-2.313
X9.267Y-2.566
X9.267Y-3.166
X9.27Y-3.516
X9.27Y-3.816
X9.275Y-4.906
X9.275Y-5.506
X9.276Y-4.059
X9.276Y-4.659
X9.359Y-1.713
X9.359Y-2.313
X9.367Y-2.566
X9.367Y-3.166
X9.37Y-3.516
X9.37Y-3.816
X9.375Y-4.906
X9.375Y-5.506
X9.376Y-4.059
X9.376Y-4.659
X9.459Y-1.713
X9.459Y-2.313
X9.467Y-2.566
X9.467Y-3.166
X9.47Y-3.516
X9.47Y-3.816
X9.475Y-4.906
X9.475Y-5.506
X9.476Y-4.059
X9.476Y-4.659
X9.559Y-1.713
X9.559Y-2.313
X9.567Y-2.566
X9.567Y-3.166
X9.57Y-3.516
X9.57Y-3.816
X9.575Y-4.906
X9.575Y-5.506
X9.576Y-4.059
X9.576Y-4.659
X9.6418Y-5.803
X9.6418Y-6.103
X9.6418Y-6.3055
X9.6418Y-6.6055
X9.6418Y-6.808
X9.6418Y-7.108
X9.6418Y-7.3105
X9.6418Y-7.6105
X9.6418Y-7.813
X9.6418Y-8.113
X9.6418Y-8.314
X9.6418Y-8.614
X9.65Y-1.31
X9.659Y-1.713
X9.659Y-2.313
X9.667Y-2.566
X9.667Y-3.166
X9.67Y-3.516
X9.67Y-3.816
X9.675Y-4.906
X9.675Y-5.506
X9.676Y-4.059
X9.676Y-4.659
X9.7008Y-8.814
X9.7008Y-9.114
X9.7418Y-5.803
X9.7418Y-6.103
X9.7418Y-6.3055
X9.7418Y-6.6055
X9.7418Y-6.808
X9.7418Y-7.108
X9.7418Y-7.3105
X9.7418Y-7.6105
X9.7418Y-7.813
X9.7418Y-8.113
X9.7418Y-8.314
X9.7418Y-8.614
X9.759Y-1.713
X9.759Y-2.313
X9.767Y-2.566
X9.767Y-3.166
X9.77Y-3.516
X9.77Y-3.816
X9.775Y-4.906
X9.775Y-5.506
X9.776Y-4.059
X9.776Y-4.659
X9.8008Y-8.814
X9.8008Y-9.114
X9.8418Y-5.803
X9.8418Y-6.103
X9.8418Y-6.3055
X9.8418Y-6.6055
X9.8418Y-6.808
X9.8418Y-7.108
X9.8418Y-7.3105
X9.8418Y-7.6105
X9.8418Y-7.813
X9.8418Y-8.113
X9.8418Y-8.314
X9.8418Y-8.614
X9.859Y-1.713
X9.859Y-2.313
X9.867Y-2.566
X9.867Y-3.166
X9.87Y-3.516
X9.87Y-3.816
X9.875Y-4.906
X9.875Y-5.506
X9.876Y-4.059
X9.876Y-4.659
X9.9008Y-8.814
X9.9008Y-9.114
X9.9418Y-5.803
X9.9418Y-6.103
X9.9418Y-6.3055
X9.9418Y-6.6055
X9.9418Y-6.808
X9.9418Y-7.108
X9.9418Y-7.3105
X9.9418Y-7.6105
X9.9418Y-7.813
X9.9418Y-8.113
X9.9418Y-8.314
X9.9418Y-8.614
X9.959Y-1.713
X9.959Y-2.313
X9.967Y-2.566
X9.967Y-3.166
X9.97Y-3.516
X9.97Y-3.816
X9.975Y-4.906
X9.975Y-5.506
X9.976Y-4.059
X9.976Y-4.659
X10.0008Y-8.814
X10.0008Y-9.114
X10.0418Y-5.803
X10.0418Y-6.103
X10.0418Y-6.3055
X10.0418Y-6.6055
X10.0418Y-6.808
X10.0418Y-7.108
X10.0418Y-7.3105
X10.0418Y-7.6105
X10.0418Y-7.813
X10.0418Y-8.113
X10.0418Y-8.314
X10.0418Y-8.614
X10.059Y-1.713
X10.059Y-2.313
X10.067Y-2.566
X10.067Y-3.166
X10.075Y-4.906
X10.075Y-5.506
X10.076Y-4.059
X10.076Y-4.659
X10.1008Y-8.814
X10.1008Y-9.114
X10.1418Y-5.803
X10.1418Y-6.103
X10.1418Y-6.3055
X10.1418Y-6.6055
X10.1418Y-6.808
X10.1418Y-7.108
X10.1418Y-7.3105
X10.1418Y-7.6105
X10.1418Y-7.813
X10.1418Y-8.113
X10.1418Y-8.314
X10.1418Y-8.614
X10.159Y-1.713
X10.159Y-2.313
X10.167Y-2.566
X10.167Y-3.166
X10.175Y-4.906
X10.175Y-5.506
X10.176Y-4.059
X10.176Y-4.659
X10.2008Y-8.814
X10.2008Y-9.114
X10.2418Y-5.803
X10.2418Y-6.103
X10.2418Y-6.3055
X10.2418Y-6.6055
X10.2418Y-6.808
X10.2418Y-7.108
X10.2418Y-7.3105
X10.2418Y-7.6105
X10.2418Y-7.813
X10.2418Y-8.113
X10.2418Y-8.314
X10.2418Y-8.614
X10.25Y-1.31
X10.259Y-1.713
X10.259Y-2.313
X10.267Y-2.566
X10.267Y-3.166
X10.275Y-4.906
X10.275Y-5.506
X10.3008Y-8.814
X10.3008Y-9.114
X10.3418Y-7.3105
X10.3418Y-7.6105
X10.3418Y-7.813
X10.3418Y-8.113
X10.344Y-1.31
X10.359Y-1.713
X10.359Y-2.313
X10.367Y-2.566
X10.367Y-3.166
X10.459Y-1.713
X10.459Y-2.313
X10.467Y-2.566
X10.467Y-3.166
X10.559Y-1.713
X10.559Y-2.313
X10.567Y-2.566
X10.567Y-3.166
X10.595Y-4.814
X10.595Y-5.114
X10.595Y-5.314
X10.595Y-5.614
X10.595Y-5.814
X10.595Y-6.114
X10.595Y-6.314
X10.595Y-6.614
X10.595Y-6.814
X10.595Y-7.114
X10.595Y-7.314
X10.595Y-7.614
X10.595Y-7.814
X10.595Y-8.114
X10.595Y-8.314
X10.595Y-8.614
X10.595Y-8.814
X10.595Y-9.114
X10.659Y-1.713
X10.659Y-2.313
X10.667Y-2.566
X10.667Y-3.166
X10.695Y-4.814
X10.695Y-5.114
X10.695Y-5.314
X10.695Y-5.614
X10.695Y-5.814
X10.695Y-6.114
X10.695Y-6.314
X10.695Y-6.614
X10.695Y-6.814
X10.695Y-7.114
X10.695Y-7.314
X10.695Y-7.614
X10.695Y-7.814
X10.695Y-8.114
X10.695Y-8.314
X10.695Y-8.614
X10.695Y-8.814
X10.695Y-9.114
X10.759Y-1.713
X10.759Y-2.313
X10.767Y-2.566
X10.767Y-3.166
X10.795Y-4.814
X10.795Y-5.114
X10.795Y-5.314
X10.795Y-5.614
X10.795Y-5.814
X10.795Y-6.114
X10.795Y-6.314
X10.795Y-6.614
X10.795Y-6.814
X10.795Y-7.114
X10.795Y-7.314
X10.795Y-7.614
X10.795Y-7.814
X10.795Y-8.114
X10.795Y-8.314
X10.795Y-8.614
X10.795Y-8.814
X10.795Y-9.114
X10.859Y-1.713
X10.859Y-2.313
X10.867Y-2.566
X10.867Y-3.166
X10.895Y-4.814
X10.895Y-5.114
X10.895Y-5.314
X10.895Y-5.614
X10.895Y-5.814
X10.895Y-6.114
X10.895Y-6.314
X10.895Y-6.614
X10.895Y-6.814
X10.895Y-7.114
X10.895Y-7.314
X10.895Y-7.614
X10.895Y-7.814
X10.895Y-8.114
X10.895Y-8.314
X10.895Y-8.614
X10.895Y-8.814
X10.895Y-9.114
X10.944Y-1.31
X10.959Y-1.713
X10.959Y-2.313
X10.967Y-2.566
X10.967Y-3.166
X10.995Y-4.814
X10.995Y-5.114
X10.995Y-5.314
X10.995Y-5.614
X10.995Y-5.814
X10.995Y-6.114
X10.995Y-6.314
X10.995Y-6.614
X10.995Y-6.814
X10.995Y-7.114
X10.995Y-7.314
X10.995Y-7.614
X10.995Y-7.814
X10.995Y-8.114
X10.995Y-8.314
X10.995Y-8.614
X10.995Y-8.814
X10.995Y-9.114
X11.095Y-4.814
X11.095Y-5.114
X11.095Y-5.314
X11.095Y-5.614
X11.095Y-5.814
X11.095Y-6.114
X11.095Y-6.314
X11.095Y-6.614
X11.095Y-6.814
X11.095Y-7.114
X11.095Y-7.314
X11.095Y-7.614
X11.095Y-7.814
X11.095Y-8.114
X11.095Y-8.314
X11.095Y-8.614
X11.095Y-8.814
X11.095Y-9.114
X11.119Y-3.3053
X11.119Y-3.6053
X11.195Y-4.814
X11.195Y-5.114
X11.195Y-5.314
X11.195Y-5.614
X11.195Y-5.814
X11.195Y-6.114
X11.195Y-6.314
X11.195Y-6.614
X11.195Y-6.814
X11.195Y-7.114
X11.195Y-7.314
X11.195Y-7.614
X11.195Y-7.814
X11.195Y-8.114
X11.195Y-8.314
X11.195Y-8.614
X11.195Y-8.814
X11.195Y-9.114
X11.219Y-3.3053
X11.219Y-3.6053
X11.295Y-4.814
X11.295Y-5.114
X11.295Y-5.314
X11.295Y-5.614
X11.295Y-5.814
X11.295Y-6.114
X11.295Y-6.314
X11.295Y-6.614
X11.295Y-6.814
X11.295Y-7.114
X11.295Y-7.314
X11.295Y-7.614
X11.295Y-7.814
X11.295Y-8.114
X11.295Y-8.314
X11.295Y-8.614
X11.295Y-8.814
X11.295Y-9.114
X11.319Y-3.3053
X11.319Y-3.6053
X11.3198Y-1.308
X11.3198Y-1.608
X11.3198Y-1.8073
X11.3198Y-2.1073
X11.3198Y-2.3067
X11.3198Y-2.6067
X11.3198Y-2.806
X11.3198Y-3.106
X11.3198Y-3.8047
X11.3198Y-4.1047
X11.3198Y-4.304
X11.3198Y-4.604
X11.419Y-3.3053
X11.419Y-3.6053
X11.4198Y-1.308
X11.4198Y-1.608
X11.4198Y-1.8073
X11.4198Y-2.1073
X11.4198Y-2.3067
X11.4198Y-2.6067
X11.4198Y-2.806
X11.4198Y-3.106
X11.4198Y-3.8047
X11.4198Y-4.1047
X11.4198Y-4.304
X11.4198Y-4.604
X11.519Y-3.3053
X11.519Y-3.6053
X11.5198Y-1.308
X11.5198Y-1.608
X11.5198Y-1.8073
X11.5198Y-2.1073
X11.5198Y-2.3067
X11.5198Y-2.6067
X11.5198Y-2.806
X11.5198Y-3.106
X11.5198Y-3.8047
X11.5198Y-4.1047
X11.5198Y-4.304
X11.5198Y-4.604
X11.619Y-3.3053
X11.619Y-3.6053
X11.6198Y-1.308
X11.6198Y-1.608
X11.6198Y-1.8073
X11.6198Y-2.1073
X11.6198Y-2.3067
X11.6198Y-2.6067
X11.6198Y-2.806
X11.6198Y-3.106
X11.6198Y-3.8047
X11.6198Y-4.1047
X11.6198Y-4.304
X11.6198Y-4.604
X11.681Y-4.814
X11.681Y-5.114
X11.681Y-5.314
X11.681Y-5.614
X11.681Y-5.814
X11.681Y-6.114
X11.681Y-6.314
X11.681Y-6.614
X11.681Y-6.814
X11.681Y-7.114
X11.681Y-7.314
X11.681Y-7.614
X11.681Y-7.814
X11.681Y-8.114
X11.681Y-8.314
X11.681Y-8.614
X11.681Y-8.814
X11.681Y-9.114
X11.719Y-3.3053
X11.719Y-3.6053
X11.7198Y-1.308
X11.7198Y-1.608
X11.7198Y-1.8073
X11.7198Y-2.1073
X11.7198Y-2.3067
X11.7198Y-2.6067
X11.7198Y-2.806
X11.7198Y-3.106
X11.7198Y-3.8047
X11.7198Y-4.1047
X11.7198Y-4.304
X11.7198Y-4.604
X11.781Y-4.814
X11.781Y-5.114
X11.781Y-5.314
X11.781Y-5.614
X11.781Y-5.814
X11.781Y-6.114
X11.781Y-6.314
X11.781Y-6.614
X11.781Y-6.814
X11.781Y-7.114
X11.781Y-7.314
X11.781Y-7.614
X11.781Y-7.814
X11.781Y-8.114
X11.781Y-8.314
X11.781Y-8.614
X11.781Y-8.814
X11.781Y-9.114
X11.819Y-3.3053
X11.819Y-3.6053
X11.8198Y-1.308
X11.8198Y-1.608
X11.8198Y-1.8073
X11.8198Y-2.1073
X11.8198Y-2.3067
X11.8198Y-2.6067
X11.8198Y-2.806
X11.8198Y-3.106
X11.8198Y-3.8047
X11.8198Y-4.1047
X11.8198Y-4.304
X11.8198Y-4.604
X11.881Y-4.814
X11.881Y-5.114
X11.881Y-5.314
X11.881Y-5.614
X11.881Y-5.814
X11.881Y-6.114
X11.881Y-6.314
X11.881Y-6.614
X11.881Y-6.814
X11.881Y-7.114
X11.881Y-7.314
X11.881Y-7.614
X11.881Y-7.814
X11.881Y-8.114
X11.881Y-8.314
X11.881Y-8.614
X11.881Y-8.814
X11.881Y-9.114
X11.919Y-3.3053
X11.919Y-3.6053
X11.9198Y-1.308
X11.9198Y-1.608
X11.9198Y-1.8073
X11.9198Y-2.1073
X11.9198Y-2.3067
X11.9198Y-2.6067
X11.9198Y-2.806
X11.9198Y-3.106
X11.9198Y-3.8047
X11.9198Y-4.1047
X11.9198Y-4.304
X11.9198Y-4.604
X11.981Y-4.814
X11.981Y-5.114
X11.981Y-5.314
X11.981Y-5.614
X11.981Y-5.814
X11.981Y-6.114
X11.981Y-6.314
X11.981Y-6.614
X11.981Y-6.814
X11.981Y-7.114
X11.981Y-7.314
X11.981Y-7.614
X11.981Y-7.814
X11.981Y-8.114
X11.981Y-8.314
X11.981Y-8.614
X11.981Y-8.814
X11.981Y-9.114
X12.019Y-3.3053
X12.019Y-3.6053
X12.0198Y-1.308
X12.0198Y-1.608
X12.0198Y-1.8073
X12.0198Y-2.1073
X12.0198Y-2.3067
X12.0198Y-2.6067
X12.0198Y-2.806
X12.0198Y-3.106
X12.0198Y-3.8047
X12.0198Y-4.1047
X12.0198Y-4.304
X12.0198Y-4.604
X12.081Y-4.814
X12.081Y-5.114
X12.081Y-5.314
X12.081Y-5.614
X12.081Y-5.814
X12.081Y-6.114
X12.081Y-6.314
X12.081Y-6.614
X12.081Y-6.814
X12.081Y-7.114
X12.081Y-7.314
X12.081Y-7.614
X12.081Y-7.814
X12.081Y-8.114
X12.081Y-8.314
X12.081Y-8.614
X12.081Y-8.814
X12.081Y-9.114
X12.181Y-4.814
X12.181Y-5.114
X12.181Y-5.314
X12.181Y-5.614
X12.181Y-5.814
X12.181Y-6.114
X12.181Y-6.314
X12.181Y-6.614
X12.181Y-6.814
X12.181Y-7.114
X12.181Y-7.314
X12.181Y-7.614
X12.181Y-7.814
X12.181Y-8.114
X12.181Y-8.314
X12.181Y-8.614
X12.181Y-8.814
X12.181Y-9.114
X12.273Y-1.308
X12.273Y-1.608
X12.273Y-1.8073
X12.273Y-2.1073
X12.273Y-2.3067
X12.273Y-2.6067
X12.273Y-2.806
X12.273Y-3.106
X12.273Y-3.3053
X12.273Y-3.6053
X12.273Y-3.8047
X12.273Y-4.1047
X12.273Y-4.304
X12.273Y-4.604
X12.281Y-4.814
X12.281Y-5.114
X12.281Y-5.314
X12.281Y-5.614
X12.281Y-5.814
X12.281Y-6.114
X12.281Y-6.314
X12.281Y-6.614
X12.281Y-6.814
X12.281Y-7.114
X12.281Y-7.314
X12.281Y-7.614
X12.281Y-7.814
X12.281Y-8.114
X12.281Y-8.314
X12.281Y-8.614
X12.281Y-8.814
X12.281Y-9.114
X12.373Y-1.308
X12.373Y-1.608
X12.373Y-1.8073
X12.373Y-2.1073
X12.373Y-2.3067
X12.373Y-2.6067
X12.373Y-2.806
X12.373Y-3.106
X12.373Y-3.3053
X12.373Y-3.6053
X12.373Y-3.8047
X12.373Y-4.1047
X12.373Y-4.304
X12.373Y-4.604
X12.381Y-4.814
X12.381Y-5.114
X12.381Y-5.314
X12.381Y-5.614
X12.381Y-5.814
X12.381Y-6.114
X12.381Y-6.314
X12.381Y-6.614
X12.381Y-6.814
X12.381Y-7.114
X12.381Y-7.314
X12.381Y-7.614
X12.381Y-7.814
X12.381Y-8.114
X12.381Y-8.314
X12.381Y-8.614
X12.381Y-8.814
X12.381Y-9.114
X12.473Y-1.308
X12.473Y-1.608
X12.473Y-1.8073
X12.473Y-2.1073
X12.473Y-2.3067
X12.473Y-2.6067
X12.473Y-2.806
X12.473Y-3.106
X12.473Y-3.3053
X12.473Y-3.6053
X12.473Y-3.8047
X12.473Y-4.1047
X12.473Y-4.304
X12.473Y-4.604
X12.573Y-1.308
X12.573Y-1.608
X12.573Y-1.8073
X12.573Y-2.1073
X12.573Y-2.3067
X12.573Y-2.6067
X12.573Y-2.806
X12.573Y-3.106
X12.573Y-3.3053
X12.573Y-3.6053
X12.573Y-3.8047
X12.573Y-4.1047
X12.573Y-4.304
X12.573Y-4.604
X12.673Y-1.308
X12.673Y-1.608
X12.673Y-1.8073
X12.673Y-2.1073
X12.673Y-2.3067
X12.673Y-2.6067
X12.673Y-2.806
X12.673Y-3.106
X12.673Y-3.3053
X12.673Y-3.6053
X12.673Y-3.8047
X12.673Y-4.1047
X12.673Y-4.304
X12.673Y-4.604
X12.773Y-1.308
X12.773Y-1.608
X12.773Y-1.8073
X12.773Y-2.1073
X12.773Y-2.3067
X12.773Y-2.6067
X12.773Y-2.806
X12.773Y-3.106
X12.773Y-3.3053
X12.773Y-3.6053
X12.773Y-3.8047
X12.773Y-4.1047
X12.773Y-4.304
X12.773Y-4.604
X12.783Y-4.814
X12.783Y-5.114
X12.783Y-5.314
X12.783Y-5.614
X12.783Y-5.814
X12.783Y-6.114
X12.783Y-6.314
X12.783Y-6.614
X12.783Y-6.814
X12.783Y-7.114
X12.783Y-7.314
X12.783Y-7.614
X12.783Y-7.814
X12.783Y-8.114
X12.783Y-8.314
X12.783Y-8.614
X12.783Y-8.814
X12.783Y-9.114
X12.873Y-1.308
X12.873Y-1.608
X12.873Y-1.8073
X12.873Y-2.1073
X12.873Y-2.3067
X12.873Y-2.6067
X12.873Y-2.806
X12.873Y-3.106
X12.873Y-3.3053
X12.873Y-3.6053
X12.873Y-3.8047
X12.873Y-4.1047
X12.873Y-4.304
X12.873Y-4.604
X12.883Y-4.814
X12.883Y-5.114
X12.883Y-5.314
X12.883Y-5.614
X12.883Y-5.814
X12.883Y-6.114
X12.883Y-6.314
X12.883Y-6.614
X12.883Y-6.814
X12.883Y-7.114
X12.883Y-7.314
X12.883Y-7.614
X12.883Y-7.814
X12.883Y-8.114
X12.883Y-8.314
X12.883Y-8.614
X12.883Y-8.814
X12.883Y-9.114
X12.973Y-1.8073
X12.973Y-2.1073
X12.973Y-2.806
X12.973Y-3.106
X12.973Y-3.8047
X12.973Y-4.1047
X12.973Y-4.304
X12.973Y-4.604
X12.983Y-4.814
X12.983Y-5.114
X12.983Y-5.314
X12.983Y-5.614
X12.983Y-5.814
X12.983Y-6.114
X12.983Y-6.314
X12.983Y-6.614
X12.983Y-6.814
X12.983Y-7.114
X12.983Y-7.314
X12.983Y-7.614
X12.983Y-7.814
X12.983Y-8.114
X12.983Y-8.314
X12.983Y-8.614
X12.983Y-8.814
X12.983Y-9.114
X13.083Y-4.814
X13.083Y-5.114
X13.083Y-5.314
X13.083Y-5.614
X13.083Y-5.814
X13.083Y-6.114
X13.083Y-6.314
X13.083Y-6.614
X13.083Y-6.814
X13.083Y-7.114
X13.083Y-7.314
X13.083Y-7.614
X13.083Y-7.814
X13.083Y-8.114
X13.083Y-8.314
X13.083Y-8.614
X13.083Y-8.814
X13.083Y-9.114
X13.183Y-4.814
X13.183Y-5.114
X13.183Y-5.314
X13.183Y-5.614
X13.183Y-5.814
X13.183Y-6.114
X13.183Y-6.314
X13.183Y-6.614
X13.183Y-6.814
X13.183Y-7.114
X13.183Y-7.314
X13.183Y-7.614
X13.183Y-7.814
X13.183Y-8.114
X13.183Y-8.314
X13.183Y-8.614
X13.183Y-8.814
X13.183Y-9.114
X13.218Y-1.308
X13.218Y-1.608
X13.218Y-1.8073
X13.218Y-2.1073
X13.218Y-2.3067
X13.218Y-2.6067
X13.218Y-2.806
X13.218Y-3.106
X13.218Y-3.3053
X13.218Y-3.6053
X13.218Y-3.8047
X13.218Y-4.1047
X13.218Y-4.304
X13.218Y-4.604
X13.283Y-4.814
X13.283Y-5.114
X13.283Y-5.314
X13.283Y-5.614
X13.283Y-5.814
X13.283Y-6.114
X13.283Y-6.314
X13.283Y-6.614
X13.283Y-6.814
X13.283Y-7.114
X13.283Y-7.314
X13.283Y-7.614
X13.283Y-7.814
X13.283Y-8.114
X13.283Y-8.314
X13.283Y-8.614
X13.283Y-8.814
X13.283Y-9.114
X13.318Y-1.308
X13.318Y-1.608
X13.318Y-1.8073
X13.318Y-2.1073
X13.318Y-2.3067
X13.318Y-2.6067
X13.318Y-2.806
X13.318Y-3.106
X13.318Y-3.3053
X13.318Y-3.6053
X13.318Y-3.8047
X13.318Y-4.1047
X13.318Y-4.304
X13.318Y-4.604
X13.383Y-4.814
X13.383Y-5.114
X13.383Y-5.314
X13.383Y-5.614
X13.383Y-5.814
X13.383Y-6.114
X13.383Y-6.314
X13.383Y-6.614
X13.383Y-6.814
X13.383Y-7.114
X13.383Y-7.314
X13.383Y-7.614
X13.383Y-7.814
X13.383Y-8.114
X13.383Y-8.314
X13.383Y-8.614
X13.383Y-8.814
X13.383Y-9.114
X13.418Y-1.308
X13.418Y-1.608
X13.418Y-1.8073
X13.418Y-2.1073
X13.418Y-2.3067
X13.418Y-2.6067
X13.418Y-2.806
X13.418Y-3.106
X13.418Y-3.3053
X13.418Y-3.6053
X13.418Y-3.8047
X13.418Y-4.1047
X13.418Y-4.304
X13.418Y-4.604
X13.483Y-4.814
X13.483Y-5.114
X13.483Y-5.314
X13.483Y-5.614
X13.483Y-5.814
X13.483Y-6.114
X13.483Y-6.314
X13.483Y-6.614
X13.483Y-6.814
X13.483Y-7.114
X13.483Y-7.314
X13.483Y-7.614
X13.483Y-7.814
X13.483Y-8.114
X13.483Y-8.314
X13.483Y-8.614
X13.483Y-8.814
X13.483Y-9.114
X13.518Y-1.308
X13.518Y-1.608
X13.518Y-1.8073
X13.518Y-2.1073
X13.518Y-2.3067
X13.518Y-2.6067
X13.518Y-2.806
X13.518Y-3.106
X13.518Y-3.3053
X13.518Y-3.6053
X13.518Y-3.8047
X13.518Y-4.1047
X13.518Y-4.304
X13.518Y-4.604
X13.618Y-1.308
X13.618Y-1.608
X13.618Y-1.8073
X13.618Y-2.1073
X13.618Y-2.3067
X13.618Y-2.6067
X13.618Y-2.806
X13.618Y-3.106
X13.618Y-3.3053
X13.618Y-3.6053
X13.618Y-3.8047
X13.618Y-4.1047
X13.618Y-4.304
X13.618Y-4.604
X13.718Y-1.308
X13.718Y-1.608
X13.718Y-1.8073
X13.718Y-2.1073
X13.718Y-2.3067
X13.718Y-2.6067
X13.718Y-2.806
X13.718Y-3.106
X13.718Y-3.3053
X13.718Y-3.6053
X13.718Y-3.8047
X13.718Y-4.1047
X13.718Y-4.304
X13.718Y-4.604
X13.818Y-1.308
X13.818Y-1.608
X13.818Y-1.8073
X13.818Y-2.1073
X13.818Y-2.3067
X13.818Y-2.6067
X13.818Y-2.806
X13.818Y-3.106
X13.818Y-3.3053
X13.818Y-3.6053
X13.818Y-3.8047
X13.818Y-4.1047
X13.818Y-4.304
X13.818Y-4.604
X13.888Y-4.814
X13.888Y-5.114
X13.888Y-5.314
X13.888Y-5.614
X13.888Y-5.814
X13.888Y-6.114
X13.888Y-6.314
X13.888Y-6.614
X13.888Y-6.814
X13.888Y-7.114
X13.888Y-7.314
X13.888Y-7.614
X13.888Y-7.814
X13.888Y-8.114
X13.888Y-8.314
X13.888Y-8.614
X13.888Y-8.814
X13.888Y-9.114
X13.988Y-4.814
X13.988Y-5.114
X13.988Y-5.314
X13.988Y-5.614
X13.988Y-5.814
X13.988Y-6.114
X13.988Y-6.314
X13.988Y-6.614
X13.988Y-6.814
X13.988Y-7.114
X13.988Y-7.314
X13.988Y-7.614
X13.988Y-7.814
X13.988Y-8.114
X13.988Y-8.314
X13.988Y-8.614
X13.988Y-8.814
X13.988Y-9.114
X14.088Y-4.814
X14.088Y-5.114
X14.088Y-5.314
X14.088Y-5.614
X14.088Y-5.814
X14.088Y-6.114
X14.088Y-6.314
X14.088Y-6.614
X14.088Y-6.814
X14.088Y-7.114
X14.088Y-7.314
X14.088Y-7.614
X14.088Y-7.814
X14.088Y-8.114
X14.088Y-8.314
X14.088Y-8.614
X14.088Y-8.814
X14.088Y-9.114
X14.169Y-1.308
X14.169Y-1.608
X14.169Y-1.8073
X14.169Y-2.1073
X14.169Y-2.3067
X14.169Y-2.6067
X14.169Y-2.806
X14.169Y-3.106
X14.169Y-3.8047
X14.169Y-4.1047
X14.171Y-4.304
X14.171Y-4.604
X14.172Y-3.3053
X14.172Y-3.6053
X14.188Y-4.814
X14.188Y-5.114
X14.188Y-5.314
X14.188Y-5.614
X14.188Y-5.814
X14.188Y-6.114
X14.188Y-6.314
X14.188Y-6.614
X14.188Y-6.814
X14.188Y-7.114
X14.188Y-7.314
X14.188Y-7.614
X14.188Y-7.814
X14.188Y-8.114
X14.188Y-8.314
X14.188Y-8.614
X14.188Y-8.814
X14.188Y-9.114
X14.269Y-1.308
X14.269Y-1.608
X14.269Y-1.8073
X14.269Y-2.1073
X14.269Y-2.3067
X14.269Y-2.6067
X14.269Y-2.806
X14.269Y-3.106
X14.269Y-3.8047
X14.269Y-4.1047
X14.271Y-4.304
X14.271Y-4.604
X14.288Y-4.814
X14.288Y-5.114
X14.288Y-5.314
X14.288Y-5.614
X14.288Y-5.814
X14.288Y-6.114
X14.288Y-6.314
X14.288Y-6.614
X14.288Y-6.814
X14.288Y-7.114
X14.288Y-7.314
X14.288Y-7.614
X14.288Y-7.814
X14.288Y-8.114
X14.288Y-8.314
X14.288Y-8.614
X14.288Y-8.814
X14.288Y-9.114
X14.369Y-1.308
X14.369Y-1.608
X14.369Y-1.8073
X14.369Y-2.1073
X14.369Y-2.3067
X14.369Y-2.6067
X14.369Y-2.806
X14.369Y-3.106
X14.369Y-3.8047
X14.369Y-4.1047
X14.371Y-4.304
X14.371Y-4.604
X14.372Y-3.3053
X14.388Y-4.814
X14.388Y-5.114
X14.388Y-5.314
X14.388Y-5.614
X14.388Y-5.814
X14.388Y-6.114
X14.388Y-6.314
X14.388Y-6.614
X14.388Y-6.814
X14.388Y-7.114
X14.388Y-7.314
X14.388Y-7.614
X14.388Y-7.814
X14.388Y-8.114
X14.388Y-8.314
X14.388Y-8.614
X14.388Y-8.814
X14.388Y-9.114
X14.469Y-1.308
X14.469Y-1.608
X14.469Y-1.8073
X14.469Y-2.1073
X14.469Y-2.3067
X14.469Y-2.6067
X14.469Y-2.806
X14.469Y-3.106
X14.469Y-3.8047
X14.469Y-4.1047
X14.471Y-4.304
X14.471Y-4.604
X14.472Y-3.6053
X14.488Y-4.814
X14.488Y-5.114
X14.488Y-5.314
X14.488Y-5.614
X14.488Y-5.814
X14.488Y-6.114
X14.488Y-6.314
X14.488Y-6.614
X14.488Y-6.814
X14.488Y-7.114
X14.488Y-7.314
X14.488Y-7.614
X14.488Y-7.814
X14.488Y-8.114
X14.488Y-8.314
X14.488Y-8.614
X14.488Y-8.814
X14.488Y-9.114
X14.569Y-1.308
X14.569Y-1.608
X14.569Y-1.8073
X14.569Y-2.1073
X14.569Y-2.3067
X14.569Y-2.6067
X14.569Y-2.806
X14.569Y-3.106
X14.571Y-4.304
X14.571Y-4.604
X14.572Y-3.3053
X14.588Y-4.814
X14.588Y-5.114
X14.588Y-5.314
X14.588Y-5.614
X14.588Y-5.814
X14.588Y-6.114
X14.588Y-6.314
X14.588Y-6.614
X14.588Y-6.814
X14.588Y-7.114
X14.588Y-7.314
X14.588Y-7.614
X14.588Y-7.814
X14.588Y-8.114
X14.588Y-8.314
X14.588Y-8.614
X14.588Y-8.814
X14.588Y-9.114
X14.669Y-1.308
X14.669Y-1.608
X14.669Y-1.8073
X14.669Y-2.1073
X14.669Y-2.3067
X14.669Y-2.6067
X14.669Y-2.806
X14.669Y-3.106
X14.671Y-4.304
X14.671Y-4.604
X14.672Y-3.6053
X14.769Y-1.308
X14.769Y-1.608
X14.769Y-1.8073
X14.769Y-2.1073
X14.769Y-2.3067
X14.769Y-2.6067
X14.769Y-2.806
X14.769Y-3.106
X14.771Y-4.304
X14.771Y-4.604
X14.772Y-3.3053
X14.772Y-3.6053
X14.869Y-1.8073
X14.869Y-2.1073
X14.871Y-4.304
X14.871Y-4.604
X15.099Y-7.45
X15.099Y-8.05
T3
X3.436Y-1.63
X3.44Y-2.83
X3.44Y-2.93
X3.44Y-3.03
X3.458Y-6.532
X3.466Y-6.781
X3.536Y-1.63
X3.558Y-6.532
X3.566Y-6.781
X3.636Y-1.63
X3.658Y-6.532
X3.665Y-7.523
X3.665Y-7.623
X3.665Y-7.723
X3.666Y-6.781
X3.666Y-8.081
X3.666Y-8.181
X3.666Y-8.281
X3.724Y-9.225
X3.824Y-9.225
X3.924Y-9.225
X3.964Y-7.52
X3.964Y-7.62
X3.964Y-7.72
X4.046Y-2.83
X4.046Y-2.93
X4.046Y-3.03
X4.053Y-1.633
X4.053Y-1.733
X4.053Y-1.833
X4.054Y-1.976
X4.054Y-2.076
X4.054Y-2.176
X4.054Y-2.381
X4.054Y-2.481
X4.054Y-2.581
X4.115Y-5.727
X4.115Y-5.827
X4.115Y-5.927
X4.254Y-4.12
X4.354Y-4.12
X4.454Y-4.12
X6.2449Y-1.3189
X6.3449Y-1.3189
X6.4449Y-1.3189
X6.5929Y-1.315
X6.6929Y-1.315
X6.7929Y-1.315
X7.06Y-4.219
X7.063Y-5.014
X7.065Y-5.819
X7.071Y-6.617
X7.072Y-9.02
X7.075Y-7.42
X7.077Y-8.216
X7.16Y-4.219
X7.163Y-5.014
X7.165Y-5.819
X7.171Y-6.617
X7.172Y-9.02
X7.175Y-7.42
X7.177Y-8.216
X7.26Y-4.219
X7.263Y-5.014
X7.265Y-5.819
X7.271Y-6.617
X7.272Y-9.02
X7.275Y-7.42
X7.277Y-8.216
X7.428Y-8.86
X7.428Y-8.96
X7.428Y-9.06
X8.542Y-1.262
X8.642Y-1.262
X8.742Y-1.262
X9.1559Y-1.4685
X9.2559Y-1.4685
X9.3559Y-1.4685
X10.331Y-4.315
X10.331Y-4.415
X10.331Y-4.515
X10.683Y-4.712
X10.783Y-4.712
X10.883Y-4.712
X11.428Y-4.914
X11.428Y-5.014
X11.428Y-5.114
X11.431Y-5.402
X11.431Y-5.502
X11.431Y-5.602
X11.431Y-6.404
X11.431Y-6.504
X11.431Y-6.604
X11.432Y-5.903
X11.432Y-6.003
X11.432Y-6.103
X11.435Y-6.905
X11.435Y-7.005
X11.435Y-7.105
X11.444Y-8.906
X11.444Y-9.006
X11.444Y-9.106
X11.445Y-7.413
X11.445Y-7.513
X11.445Y-7.613
X11.445Y-8.412
X11.445Y-8.512
X11.445Y-8.612
X11.446Y-7.91
X11.446Y-8.01
X11.446Y-8.11
X12.531Y-4.903
X12.531Y-5.003
X12.531Y-5.103
X12.534Y-5.404
X12.534Y-5.504
X12.534Y-5.604
X12.534Y-6.407
X12.534Y-6.507
X12.534Y-6.607
X12.537Y-5.904
X12.537Y-6.004
X12.537Y-6.104
X12.537Y-7.904
X12.537Y-8.004
X12.537Y-8.104
X12.538Y-7.402
X12.538Y-7.502
X12.538Y-7.602
X12.539Y-8.409
X12.539Y-8.509
X12.539Y-8.609
X12.54Y-6.905
X12.54Y-7.005
X12.54Y-7.105
X12.543Y-8.903
X12.543Y-9.003
X12.543Y-9.103
X13.63Y-4.904
X13.63Y-5.004
X13.63Y-5.104
X13.632Y-5.401
X13.632Y-5.501
X13.632Y-5.601
X13.633Y-5.907
X13.633Y-6.007
X13.633Y-6.107
X13.636Y-6.903
X13.636Y-7.003
X13.636Y-7.103
X13.637Y-6.405
X13.637Y-6.505
X13.637Y-6.605
X13.642Y-7.403
X13.642Y-7.503
X13.642Y-7.603
X13.649Y-8.899
X13.649Y-8.999
X13.649Y-9.099
X13.65Y-8.4
X13.65Y-8.5
X13.65Y-8.6
X13.653Y-7.902
X13.653Y-8.002
X13.653Y-8.102
X13.971Y-1.301
X13.971Y-1.401
X13.971Y-1.501
X14.73Y-4.9
X14.73Y-5.0
X14.73Y-5.1
X14.734Y-5.397
X14.734Y-5.497
X14.734Y-5.597
X14.738Y-5.899
X14.738Y-5.999
X14.738Y-6.099
X14.738Y-6.402
X14.738Y-6.502
X14.738Y-6.602
X14.744Y-6.901
X14.744Y-7.001
X14.744Y-7.101
X14.749Y-7.401
X14.749Y-7.501
X14.749Y-7.601
X14.751Y-8.391
X14.751Y-8.491
X14.751Y-8.591
X14.755Y-7.9
X14.755Y-8.0
X14.755Y-8.1
X14.755Y-8.901
X14.755Y-9.001
X14.755Y-9.101
X15.019Y-1.698
X15.019Y-1.798
X15.019Y-1.898
X15.099Y-6.551
X15.099Y-7.351
T4
X3.436Y-3.273
X3.436Y-3.373
X7.489Y-1.21
X7.489Y-1.31
X7.589Y-1.21
X7.589Y-1.31
X7.902Y-1.21
X7.902Y-1.31
X8.002Y-1.21
X8.002Y-1.31
X8.102Y-1.21
X8.102Y-1.31
X8.202Y-1.21
X8.202Y-1.31
X9.171Y-1.31
X9.271Y-1.31
X9.371Y-1.31
X9.471Y-1.31
X10.471Y-3.905
X10.471Y-4.005
X10.571Y-3.905
X10.571Y-4.005
X14.676Y-3.8
X14.676Y-3.9
X14.676Y-4.0
X14.899Y-8.044
X14.899Y-8.144
X14.899Y-8.244
X14.899Y-8.344
T5
X4.269Y-3.7226
X4.269Y-3.9226
X4.269Y-4.5229
X4.269Y-4.7229
X4.269Y-5.3231
X4.269Y-5.5231
X4.269Y-6.1234
X4.269Y-6.3234
X4.269Y-6.9237
X4.269Y-7.1237
X4.269Y-7.724
X4.269Y-7.924
X4.269Y-8.5243
X4.269Y-8.7243
X4.269Y-9.3246
X4.269Y-9.5246
X4.369Y-3.7226
X4.369Y-3.9226
X4.369Y-4.5229
X4.369Y-4.7229
X4.369Y-5.3231
X4.369Y-5.5231
X4.369Y-6.1234
X4.369Y-6.3234
X4.369Y-6.9237
X4.369Y-7.1237
X4.369Y-7.724
X4.369Y-7.924
X4.369Y-8.5243
X4.369Y-8.7243
X4.369Y-9.3246
X4.369Y-9.5246
X4.469Y-3.7226
X4.469Y-3.9226
X4.469Y-4.5229
X4.469Y-4.7229
X4.469Y-5.3231
X4.469Y-5.5231
X4.469Y-6.1234
X4.469Y-6.3234
X4.469Y-6.9237
X4.469Y-7.1237
X4.469Y-7.724
X4.469Y-7.924
X4.469Y-8.5243
X4.469Y-8.7243
X4.469Y-9.3246
X4.469Y-9.5246
X4.569Y-3.7226
X4.569Y-3.9226
X4.569Y-4.5229
X4.569Y-4.7229
X4.569Y-5.3231
X4.569Y-5.5231
X4.569Y-6.1234
X4.569Y-6.3234
X4.569Y-6.9237
X4.569Y-7.1237
X4.569Y-7.724
X4.569Y-7.924
X4.569Y-8.5243
X4.569Y-8.7243
X4.569Y-9.3246
X4.569Y-9.5246
X4.669Y-3.7226
X4.669Y-3.9226
X4.669Y-4.5229
X4.669Y-4.7229
X4.669Y-5.3231
X4.669Y-5.5231
X4.669Y-6.1234
X4.669Y-6.3234
X4.669Y-6.9237
X4.669Y-7.1237
X4.669Y-7.724
X4.669Y-7.924
X4.669Y-8.5243
X4.669Y-8.7243
X4.669Y-9.3246
X4.669Y-9.5246
X4.769Y-3.7226
X4.769Y-3.9226
X4.769Y-4.5229
X4.769Y-4.7229
X4.769Y-5.3231
X4.769Y-5.5231
X4.769Y-6.1234
X4.769Y-6.3234
X4.769Y-6.9237
X4.769Y-7.1237
X4.769Y-7.724
X4.769Y-7.924
X4.769Y-8.5243
X4.769Y-8.7243
X4.769Y-9.3246
X4.769Y-9.5246
X4.869Y-3.7226
X4.869Y-3.9226
X4.869Y-4.5229
X4.869Y-4.7229
X4.869Y-5.3231
X4.869Y-5.5231
X4.869Y-6.1234
X4.869Y-6.3234
X4.869Y-6.9237
X4.869Y-7.1237
X4.869Y-7.724
X4.869Y-7.924
X4.869Y-8.5243
X4.869Y-8.7243
X4.869Y-9.3246
X4.869Y-9.5246
X4.969Y-3.7226
X4.969Y-3.9226
X4.969Y-4.5229
X4.969Y-4.7229
X4.969Y-5.3231
X4.969Y-5.5231
X4.969Y-6.1234
X4.969Y-6.3234
X4.969Y-6.9237
X4.969Y-7.1237
X4.969Y-7.724
X4.969Y-7.924
X4.969Y-8.5243
X4.969Y-8.7243
X4.969Y-9.3246
X4.969Y-9.5246
X5.069Y-3.7226
X5.069Y-3.9226
X5.069Y-4.5229
X5.069Y-4.7229
X5.069Y-5.3231
X5.069Y-5.5231
X5.069Y-6.1234
X5.069Y-6.3234
X5.069Y-6.9237
X5.069Y-7.1237
X5.069Y-7.724
X5.069Y-7.924
X5.069Y-8.5243
X5.069Y-8.7243
X5.069Y-9.3246
X5.069Y-9.5246
X5.169Y-3.7226
X5.169Y-3.9226
X5.169Y-4.5229
X5.169Y-4.7229
X5.169Y-5.3231
X5.169Y-5.5231
X5.169Y-6.1234
X5.169Y-6.3234
X5.169Y-6.9237
X5.169Y-7.1237
X5.169Y-7.724
X5.169Y-7.924
X5.169Y-8.5243
X5.169Y-8.7243
X5.169Y-9.3246
X5.169Y-9.5246
X5.269Y-3.7226
X5.269Y-3.9226
X5.269Y-4.5229
X5.269Y-4.7229
X5.269Y-5.3231
X5.269Y-5.5231
X5.269Y-6.1234
X5.269Y-6.3234
X5.269Y-6.9237
X5.269Y-7.1237
X5.269Y-7.724
X5.269Y-7.924
X5.269Y-8.5243
X5.269Y-8.7243
X5.269Y-9.3246
X5.269Y-9.5246
X5.369Y-3.7226
X5.369Y-3.9226
X5.369Y-4.5229
X5.369Y-4.7229
X5.369Y-5.3231
X5.369Y-5.5231
X5.369Y-6.1234
X5.369Y-6.3234
X5.369Y-6.9237
X5.369Y-7.1237
X5.369Y-7.724
X5.369Y-7.924
X5.369Y-8.5243
X5.369Y-8.7243
X5.369Y-9.3246
X5.369Y-9.5246
X5.469Y-3.7226
X5.469Y-3.9226
X5.469Y-4.5229
X5.469Y-4.7229
X5.469Y-5.3231
X5.469Y-5.5231
X5.469Y-6.1234
X5.469Y-6.3234
X5.469Y-6.9237
X5.469Y-7.1237
X5.469Y-7.724
X5.469Y-7.924
X5.469Y-8.5243
X5.469Y-8.7243
X5.469Y-9.3246
X5.469Y-9.5246
X5.569Y-3.7226
X5.569Y-3.9226
X5.569Y-4.5229
X5.569Y-4.7229
X5.569Y-5.3231
X5.569Y-5.5231
X5.569Y-6.1234
X5.569Y-6.3234
X5.569Y-6.9237
X5.569Y-7.1237
X5.569Y-7.724
X5.569Y-7.924
X5.569Y-8.5243
X5.569Y-8.7243
X5.569Y-9.3246
X5.569Y-9.5246
X5.669Y-3.7226
X5.669Y-3.9226
X5.669Y-4.5229
X5.669Y-4.7229
X5.669Y-5.3231
X5.669Y-5.5231
X5.669Y-6.1234
X5.669Y-6.3234
X5.669Y-6.9237
X5.669Y-7.1237
X5.669Y-7.724
X5.669Y-7.924
X5.669Y-8.5243
X5.669Y-8.7243
X5.669Y-9.3246
X5.669Y-9.5246
X5.769Y-3.7226
X5.769Y-3.9226
X5.769Y-4.5229
X5.769Y-4.7229
X5.769Y-5.3231
X5.769Y-5.5231
X5.769Y-6.1234
X5.769Y-6.3234
X5.769Y-6.9237
X5.769Y-7.1237
X5.769Y-7.724
X5.769Y-7.924
X5.769Y-8.5243
X5.769Y-8.7243
X5.769Y-9.3246
X5.769Y-9.5246
X5.869Y-3.7226
X5.869Y-3.9226
X5.869Y-4.5229
X5.869Y-4.7229
X5.869Y-5.3231
X5.869Y-5.5231
X5.869Y-6.1234
X5.869Y-6.3234
X5.869Y-6.9237
X5.869Y-7.1237
X5.869Y-7.724
X5.869Y-7.924
X5.869Y-8.5243
X5.869Y-8.7243
X5.869Y-9.3246
X5.869Y-9.5246
X5.969Y-3.7226
X5.969Y-3.9226
X5.969Y-4.5229
X5.969Y-4.7229
X5.969Y-5.3231
X5.969Y-5.5231
X5.969Y-6.1234
X5.969Y-6.3234
X5.969Y-6.9237
X5.969Y-7.1237
X5.969Y-7.724
X5.969Y-7.924
X5.969Y-8.5243
X5.969Y-8.7243
X5.969Y-9.3246
X5.969Y-9.5246
X6.069Y-3.7226
X6.069Y-3.9226
X6.069Y-4.5229
X6.069Y-4.7229
X6.069Y-5.3231
X6.069Y-5.5231
X6.069Y-6.1234
X6.069Y-6.3234
X6.069Y-6.9237
X6.069Y-7.1237
X6.069Y-7.724
X6.069Y-7.924
X6.069Y-8.5243
X6.069Y-8.7243
X6.069Y-9.3246
X6.069Y-9.5246
X6.169Y-3.7226
X6.169Y-3.9226
X6.169Y-4.5229
X6.169Y-4.7229
X6.169Y-5.3231
X6.169Y-5.5231
X6.169Y-6.1234
X6.169Y-6.3234
X6.169Y-6.9237
X6.169Y-7.1237
X6.169Y-7.724
X6.169Y-7.924
X6.169Y-8.5243
X6.169Y-8.7243
X6.169Y-9.3246
X6.169Y-9.5246
X6.269Y-3.7226
X6.269Y-3.9226
X6.269Y-4.5229
X6.269Y-4.7229
X6.269Y-5.3231
X6.269Y-5.5231
X6.269Y-6.1234
X6.269Y-6.3234
X6.269Y-6.9237
X6.269Y-7.1237
X6.269Y-7.724
X6.269Y-7.924
X6.269Y-8.5243
X6.269Y-8.7243
X6.269Y-9.3246
X6.269Y-9.5246
X6.369Y-3.7226
X6.369Y-3.9226
X6.369Y-4.5229
X6.369Y-4.7229
X6.369Y-5.3231
X6.369Y-5.5231
X6.369Y-6.1234
X6.369Y-6.3234
X6.369Y-6.9237
X6.369Y-7.1237
X6.369Y-7.724
X6.369Y-7.924
X6.369Y-8.5243
X6.369Y-8.7243
X6.369Y-9.3246
X6.369Y-9.5246
X6.469Y-3.7226
X6.469Y-3.9226
X6.469Y-4.5229
X6.469Y-4.7229
X6.469Y-5.3231
X6.469Y-5.5231
X6.469Y-6.1234
X6.469Y-6.3234
X6.469Y-6.9237
X6.469Y-7.1237
X6.469Y-7.724
X6.469Y-7.924
X6.469Y-8.5243
X6.469Y-8.7243
X6.469Y-9.3246
X6.469Y-9.5246
X6.569Y-3.7226
X6.569Y-3.9226
X6.569Y-4.5229
X6.569Y-4.7229
X6.569Y-5.3231
X6.569Y-5.5231
X6.569Y-6.1234
X6.569Y-6.3234
X6.569Y-6.9237
X6.569Y-7.1237
X6.569Y-7.724
X6.569Y-7.924
X6.569Y-8.5243
X6.569Y-8.7243
X6.569Y-9.3246
X6.569Y-9.5246
X6.669Y-3.7226
X6.669Y-3.9226
X6.669Y-4.5229
X6.669Y-4.7229
X6.669Y-5.3231
X6.669Y-5.5231
X6.669Y-6.1234
X6.669Y-6.3234
X6.669Y-6.9237
X6.669Y-7.1237
X6.669Y-7.724
X6.669Y-7.924
X6.669Y-8.5243
X6.669Y-8.7243
X6.669Y-9.3246
X6.669Y-9.5246
X6.769Y-3.7226
X6.769Y-3.9226
X6.769Y-4.5229
X6.769Y-4.7229
X6.769Y-5.3231
X6.769Y-5.5231
X6.769Y-6.1234
X6.769Y-6.3234
X6.769Y-6.9237
X6.769Y-7.1237
X6.769Y-7.724
X6.769Y-7.924
X6.769Y-8.5243
X6.769Y-8.7243
X6.769Y-9.3246
X6.769Y-9.5246
X6.869Y-3.7226
X6.869Y-3.9226
X6.869Y-4.5229
X6.869Y-4.7229
X6.869Y-5.3231
X6.869Y-5.5231
X6.869Y-6.1234
X6.869Y-6.3234
X6.869Y-6.9237
X6.869Y-7.1237
X6.869Y-7.724
X6.869Y-7.924
X6.869Y-8.5243
X6.869Y-8.7243
X6.869Y-9.3246
X6.869Y-9.5246
X6.969Y-3.7226
X6.969Y-3.9226
X6.969Y-4.5229
X6.969Y-4.7229
X6.969Y-5.3231
X6.969Y-5.5231
X6.969Y-6.1234
X6.969Y-6.3234
X6.969Y-6.9237
X6.969Y-7.1237
X6.969Y-7.724
X6.969Y-7.924
X6.969Y-8.5243
X6.969Y-8.7243
X6.969Y-9.3246
X6.969Y-9.5246
X7.069Y-3.7226
X7.069Y-3.9226
X7.069Y-4.5229
X7.069Y-4.7229
X7.069Y-5.3231
X7.069Y-5.5231
X7.069Y-6.1234
X7.069Y-6.3234
X7.069Y-6.9237
X7.069Y-7.1237
X7.069Y-7.724
X7.069Y-7.924
X7.069Y-8.5243
X7.069Y-8.7243
X7.069Y-9.3246
X7.069Y-9.5246
X7.169Y-3.7226
X7.169Y-3.9226
X7.169Y-4.5229
X7.169Y-4.7229
X7.169Y-5.3231
X7.169Y-5.5231
X7.169Y-6.1234
X7.169Y-6.3234
X7.169Y-6.9237
X7.169Y-7.1237
X7.169Y-7.724
X7.169Y-7.924
X7.169Y-8.5243
X7.169Y-8.7243
X7.169Y-9.3246
X7.169Y-9.5246
X7.269Y-3.7226
X7.269Y-3.9226
X7.269Y-4.5229
X7.269Y-4.7229
X7.269Y-5.3231
X7.269Y-5.5231
X7.269Y-6.1234
X7.269Y-6.3234
X7.269Y-6.9237
X7.269Y-7.1237
X7.269Y-7.724
X7.269Y-7.924
X7.269Y-8.5243
X7.269Y-8.7243
X7.269Y-9.3246
X7.269Y-9.5246
T6
X3.3532Y-2.1244
X3.3532Y-2.3213
X3.365Y-2.026
X3.365Y-2.4197
T7
X3.7469Y-1.9276
X3.7469Y-2.2229
X3.7469Y-2.5181
X3.8453Y-2.026
X3.8453Y-2.4197
T8
X4.2599Y-1.322
X4.4159Y-1.322
X4.5718Y-1.322
X4.7277Y-1.322
X4.8836Y-1.322
X5.0395Y-1.322
X5.1954Y-1.322
X5.3513Y-1.322
X5.5072Y-1.322
X5.6631Y-1.322
X5.819Y-1.322
X5.9749Y-1.322
T9
X3.727Y-5.026
X4.027Y-4.876
X4.027Y-5.176
T10
X3.653Y-1.313
X3.653Y-5.913
X3.653Y-8.913
X9.278Y-5.913
X9.278Y-8.913
X15.078Y-1.313
X15.078Y-5.913
X15.078Y-8.913
M30
