<?xml version="1.0" encoding="UTF-8"?>
<!-- Created with Inkscape (http://www.inkscape.org/) -->
<svg width="1041.8" height="1468.2" version="1.1" viewBox="0 0 1041.8 1468.2" xmlns="http://www.w3.org/2000/svg">
 <g fill-rule="evenodd">
  <path d="m126.37 1225.8-53.586 115.99-31.6 67.188c-9.2 18.8-15.6 31.999-20.787 37.199-4.8 5.5867-12.8 10.387-20.4 10.387v6.4004h81.188v-6.4004c-12.4 0-19.601-1.6012-23.201-3.2012-5.2-4-8.4004-9.1855-8.4004-15.186 0-5.2 2.0012-12 5.2012-19.6l11.199-24.801h81.986l12.801 30.4c4 6.8 6 11.999 6 13.199 1.2 2 1.1992 5.2008 1.1992 6.8008 0 3.5867-1.1992 6.7855-3.1992 9.1855-4.4 1.6-11.199 3.2012-19.199 3.2012h-6v6.4004h113.99v-6.4004c-8 0-13.2-2.3996-17.6-5.5996-5.2-4.7867-11.6-16.788-20.4-37.188l-32.787-71.986-52.801-115.99zm669.09 0c-6.4 0-13.201 1.5993-16.801 7.1993-6 4-7.5859 10-7.5859 16.4 0 7.9999 1.5859 12.8 7.5859 18.4 3.6 4 10.401 6 16.801 6 8 0 13.201-2 18.801-6 5.2-5.5999 8-10.4 8-18.4 0-6.4-2.8-12.399-8-17.199-5.6-4.8-10.801-6.4004-18.801-6.4004zm-431.13 5.1993v5.2011c8 0 13.2 0.8 17.6 2 2.4 2.8 5.2 4.3997 6 7.5996 0.8 2 2 8.7993 2 21.199v55.588c-6.4-6.8-12.801-13.201-19.201-16.801-5.6-2-12.798-3.5996-20.785-3.5996-12.4 0-22.4 3.2001-33.6 10-11.2 6.8-18.401 16.4-25.201 29.6 0 0-3.9e-4 0.4004-0.40039 0.4004-4.8 13.6-8 29.186-8 45.986 0 20.8 4.8004 37.999 14.4 53.199 11.2 17.987 28.8 26.787 49.6 26.787 7.5867 0 14.788-2.7992 21.188-5.1992 6.8-3.6 14-11.2 22-20.387v25.586l70.387-14v-5.1855c-6.4 0-11.2-1.2141-13.6-2.8008-2.8-2-4.8008-4.8-4.8008-8-0.8-2-0.80078-8.7996-0.80078-19.6v-187.57zm134.39 0v5.2011h7.1992c6.4 0 12.801 0.7996 17.188 3.5996 2.8 2.8 5.9988 6 6.7988 8 1.2 3.2 2.8008 12 2.8008 24v149.97c0 12.4-1.6008 19.6-2.8008 22.4-0.8 4.8-3.9988 7.5855-6.7988 9.1855-3.1867 1.6-10.788 3.2012-17.188 3.2012h-7.1992v6.4004h211.56l8.4004-84.787h-8.4004c-5.2 18.4-12 32.399-17.6 41.199-6.3867 8.4-12.386 16-21.586 20-8 3.6-19.601 6.8008-30.801 6.8008h-20c-10.8 0-18.786 0-21.986-2-2.4-1.2-5.9996-3.2008-7.5996-6.8008-1.2-3.2-1.5996-11.2-1.5996-22v-143.57c0-12 0.39961-20.001 1.5996-23.201 1.6-4 3.1988-7.1996 6.7988-7.5996 2.8-4 8.3871-4.7989 14.787-4.7989h10.4v-5.2011zm365.53 0v5.2011c5.2 0 9.6004 0.7996 12.4 3.5996 2 1.6 5.2 3.1989 6 6.7989 0.8 2.8 0.79882 9.6004 0.79882 20.4v201.16h6.4004l26.801-16.4c6.8 4.8 14.398 9.6008 20.785 12.801 6.4 1.6 15.2 3.5996 24 3.5996 15.2 0 28-3.5996 40-11.6 12.4-7.2 21.988-17.186 29.588-31.986 6-13.6 10.799-29.2 10.799-46 0-13.987-2.7993-25.987-7.1992-36.787-0.4-1.6-0.7997-2.8-1.5997-4-5.2-11.6-12.8-20-22.387-25.6-10.4-6.7999-21.2-10-32-10-16.4 0-31.2 6.4001-44.387 20v-91.188zm-113.17 73.188v5.1992c8 1.2 13.199 2.8004 15.199 6.4004 3.6 3.2 4.8008 11.2 4.8008 23.6v86.787c0 13.2-1.1996 21.586-3.5996 23.186-3.2 4.8-9.6004 7.2012-16.4 7.2012v6.4004h90.387v-6.4004c-7.6 0-13.2-2.3996-16.4-5.5996-2-3.2-2.7988-11.587-2.7988-24.787v-121.99zm-643.91 1.1992 16.799 36.4 16.801 36.387h-67.188l16.801-36.387zm251.16 6.8008c11.6 0 22 9.1992 30 29.199 0.8 1.6 1.1996 2.8004 1.5996 4.4004v80.387c-8 15.2-18.8 22.801-30 22.801-3.6 0-6.7863-1.2141-9.9863-2.8008-4.8-4.8-8.4004-12-12.4-22-2.8-10.4-3.5996-25.6-3.5996-46 0-15.187 0.4-27.987 2-36.787 0.4-2 0.79961-3.9996 1.5996-5.5996 2.4-9.6 6-15.6 10-20 3.6-2 6.7871-3.5996 10.787-3.5996zm603.91 8.7988c8 0 14.401 3.6012 18.801 9.2012 2 3.2 3.9992 6.7996 5.1992 11.6 3.2 9.6 4.8008 22.8 4.8008 38.387 0 25.6-2.0004 42.401-4.4004 52.801-3.2 9.6-6.8008 15.998-10.801 18.785-4.4 3.2-10.399 4.8008-15.199 4.8008-6.4 0-13.2-1.5996-17.6-5.5996-4-4.7867-6.3875-9.5879-7.1875-15.588-1.6-4.4-1.5996-13.598-1.5996-28.398v-70.387c8.7867-10.4 18.386-15.602 27.986-15.602z"/>
  <path d="m799.47 925.86h-175.97c-23.987 0-13.2-18.8-2-19.2l67.587-5.6c28-2.8 65.2-7.6 103.99-11.2l20-0.8c0.8-5.2 2.4-10.4 3.6-16l-26.8 0.8-148.37-0.8c-23.6 0-13.2-18.387-1.6-19.187l67.187-6c28-2.4 65.987-7.2 104.39-10.4l11.6-1.2c0.4-6 0.4-12 1.6-17.6h-176.37c-24 0-13.6-19.2-2-19.6l67.187-6.4c28-2.4 63.587-6.8 101.99-10h7.6c-0.4-6.3867-0.4-13.587-1.6-18.787l-29.6 0.8-148.37-0.8c-23.6 0-14-17.6-2-19.2l67.587-5.2c27.2-2.8 44-3.6 82.787-7.6l23.6-3.2c-2.4-6.8-4.8-11.2-7.2-18l-35.2 0.4-148.77-0.4c-23.987 0-14-18.387-2-19.587l67.187-6c28-2.4 63.6-7.2 102.39-10.4-4-6-7.6-14-11.2-20l-35.587 0.8h-149.17c-23.6-0.8-13.6-18-2.4-19.2l68.387-6.4c21.6-2.4 61.187-6.8 97.987-10.4l-11.2-17.587h-179.97c-23.2 0-13.6-18.8-2.4-19.2l68.387-6c22.4-1.6 58.787-7.2 93.187-9.6l-11.6-19.2c-10 0-18.8 0.4-27.987 0.4l-148.79-0.4c-23.187 0-13.6-17.587-2-19.587l67.987-5.6c24.8-2.4 55.2-5.6 91.187-10l-10.387-18-24.4 0.4-147.97-0.4c-24.4 0-14.8-18.8-2.4-20l67.587-5.6c27.587-2.4 65.587-7.2 104.39-11.2l251.16-15.987-4-6.8-297.16 5.6-148.37-0.8c-24 0-14.4-18-2-19.2l67.587-5.6c27.6-3.2 65.187-7.2 103.99-10.8l251.96-16-4-7.6-298.36 6.4-148.37-0.8c-23.987-0.4-14-18-2-19.587l67.987-6c26.8-2 64.8-6.8 103.59-10.4l252.76-16-3.2-7.6-300.75 6.4-148.77-0.4c-23.2-1.2-13.6-18-1.6-19.6l67.587-6c28-2.4 65.187-6.8 104.39-11.2l253.56-14.787-4.4-8.8-270.76 5.6-29.6 1.2-147.97-1.2c-24.4 0-14.4-18-2-19.2l66.787-6c25.2-1.6 60.387-5.6 95.187-9.6l-8.8-18.8-32.787 0.8-148.39-0.8c-23.987 0-14.387-18-1.6-19.2l66.8-6.4c27.587-2 65.187-7.1867 104.77-9.5867l260.76-16.4-4.4-7.6-307.15 5.2h-148.77c-23.6-0.4-14-18.4-2.4-18.8l68.387-6.8c27.2-2 65.187-6.4 104.39-10.4l260.76-16.787-3.2-6.4-309.16 6.4-148.37-0.813c-22.8 0-13.6-17.987-2-19.587l67.587-6c27.2-2.8 65.987-7.2 103.99-10.4l262.36-16.4-3.6-7.2-308.75 5.2-148.39-0.4c-23.987 0-13.987-17.6-2-18.8l67.6-6c27.987-2 65.587-7.1867 104.37-10.787l261.96-17.6-3.6-6-547.51 3.6 291.95 549.91c-27.187 8-54.787 19.6-80.387 33.6-163.57 92.787-239.56 286.75-167.97 432.73 64.8 133.17 231.97 179.56 385.15 117.57l-31.6 0.8-147.97-0.8c-24.4 0-14-18-1.2-19.2l66.787-5.5866c27.6-2.8134 65.587-7.6 103.99-11.2l88.787-5.6c6.4-3.2 13.2-8.4 19.2-12.8l-47.2 1.6-148.77-0.8c-23.6 0-13.2-18.4-1.2-19.2l67.187-6c27.6-2.8 65.187-7.2 104.39-10.8l63.187-4c4.4-4.8 8-8.8 12.4-13.2l-40.4 0.8-148.77-0.8c-23.6 0-14-18.787-1.6-19.187l67.187-6c27.6-2.8 65.6-7.6 104.39-10.8l48-2.4c3.2-4.4 5.2-9.2 8.7866-14l-33.587 0.8-148.37-0.8c-24 0-13.6-18.4-1.2-19.6l67.587-5.2c28-2.8 64.787-7.6 103.59-11.187l31.187-2.4c2.8-4.8 4.4-10.8 6.4-16.8z" fill="#ed1c24" stroke="#ed1c24" stroke-miterlimit="2.613" stroke-width="5.6"/>
 </g>
</svg>